<svg width="110" height="184" viewBox="0 0 110 184" fill="none" xmlns="http://www.w3.org/2000/svg">
<mask id="path-1-outside-1_19_228" maskUnits="userSpaceOnUse" x="0" y="0" width="110" height="184" fill="black">
<rect fill="white" width="110" height="184"/>
<path d="M0 2H96C102.627 2 108 7.37258 108 14V170C108 176.627 102.627 182 96 182H0V2Z"/>
</mask>
<path d="M0 2H96C102.627 2 108 7.37258 108 14V170C108 176.627 102.627 182 96 182H0V2Z" fill="white"/>
<path d="M0 0H96C103.732 0 110 6.26801 110 14H106C106 8.47715 101.523 4 96 4H0V0ZM110 170C110 177.732 103.732 184 96 184H0V180H96C101.523 180 106 175.523 106 170H110ZM0 182V2V182ZM96 0C103.732 0 110 6.26801 110 14V170C110 177.732 103.732 184 96 184V180C101.523 180 106 175.523 106 170V14C106 8.47715 101.523 4 96 4V0Z" fill="#B7B7B7" mask="url(#path-1-outside-1_19_228)"/>
<path d="M0 2H2V73C2 73.5523 1.55228 74 1 74C0.447715 74 0 73.5523 0 73V2Z" fill="#B7B7B7"/>
<path d="M12.5 24C12.5 23.1716 13.1716 22.5 14 22.5H36C37.933 22.5 39.5 24.067 39.5 26V50C39.5 51.933 37.933 53.5 36 53.5H14C13.1716 53.5 12.5 52.8285 12.5 52V24Z" fill="white" stroke="#B7B7B7"/>
<path d="M19.9999 51.1429V54H13.9999C12.8953 54 11.9999 53.1046 11.9999 52V24C11.9999 22.8955 12.8953 22 13.9999 22H19.9999V24.8572C19.9999 25.9617 19.1044 26.8572 17.9999 26.8572C16.8953 26.8572 15.9999 27.7526 15.9999 28.8572V47.1429C15.9999 48.2475 16.8953 49.1429 17.9999 49.1429C19.1044 49.1429 19.9999 50.0383 19.9999 51.1429Z" fill="#B7B7B7"/>
<path fill-rule="evenodd" clip-rule="evenodd" d="M44 38C44 43.5229 48.4772 48 54 48C59.5228 48 64 43.5229 64 38C64 32.4772 59.5228 28 54 28C48.4772 28 44 32.4772 44 38ZM48.3751 36.8634C47.4069 36.8634 46.4822 36.5128 45.7632 35.893C46.6932 32.2466 49.9807 29.5428 53.9066 29.5005C54.3712 30.3836 54.4932 31.4178 54.2304 32.3984L54.027 33.1575C53.4413 35.3434 51.4604 36.8634 49.1974 36.8634H48.3751ZM62.5 38C62.5 34.7533 60.6796 31.9316 58.0037 30.5002C57.103 31.0279 56.4366 31.8925 56.1623 32.916L55.7063 34.6178C55.5739 35.1119 55.6359 35.6378 55.8794 36.0877L56.3225 36.9062C56.6441 37.5002 56.6441 38.2165 56.3225 38.8106L55.8794 39.6291C55.6359 40.0789 55.5739 40.6048 55.7063 41.0989L56.1623 42.8007C56.4622 43.92 57.231 44.8492 58.2625 45.3557C60.7963 43.8842 62.5 41.1411 62.5 38ZM54.2304 43.3183C54.5215 44.4047 54.3405 45.5567 53.7444 46.4962C49.8102 46.3801 46.547 43.5904 45.7089 39.8814C46.4354 39.2318 47.3824 38.8634 48.3751 38.8634H49.2001C51.4631 38.8634 53.444 40.3833 54.0297 42.5692L54.2304 43.3183ZM52.5 38C52.5 38.8285 53.1716 39.5 54 39.5C54.8284 39.5 55.5 38.8285 55.5 38C55.5 37.1716 54.8284 36.5 54 36.5C53.1716 36.5 52.5 37.1716 52.5 38Z" fill="#B7B7B7"/>
<path d="M80 173.759C80 173.759 83.9059 175.355 90.0852 170.338C93.9961 167.159 97.2953 153.134 98.4769 147.553C98.8025 146.015 99.0111 144.478 99.1043 142.909C99.4156 137.674 100.062 122.946 99.9952 91.6556L99.9952 91.8952C100.062 60.6047 99.4155 45.877 99.1043 40.6423C99.011 39.0732 98.8025 37.5356 98.4769 35.9979C97.2953 30.4169 93.9961 16.3915 90.0852 13.2133C83.9059 8.19587 80 10.5533 80 10.5533C80 10.5533 80 10.5533 80 173.759Z" fill="#E5E5E5"/>
<mask id="path-8-inside-2_19_228" fill="white">
<path d="M4 170C4 168.895 4.89543 168 6 168H66C67.1046 168 68 168.895 68 170V182H4V170Z"/>
</mask>
<path d="M4 170C4 168.895 4.89543 168 6 168H66C67.1046 168 68 168.895 68 170V182H4V170Z" fill="#F6F6F6"/>
<path d="M3 170C3 168.343 4.34315 167 6 167H66C67.6569 167 69 168.343 69 170H67C67 169.448 66.5523 169 66 169H6C5.44772 169 5 169.448 5 170H3ZM68 182H4H68ZM3 182V170C3 168.343 4.34315 167 6 167V169C5.44772 169 5 169.448 5 170V182H3ZM66 167C67.6569 167 69 168.343 69 170V182H67V170C67 169.448 66.5523 169 66 169V167Z" fill="#B7B7B7" mask="url(#path-8-inside-2_19_228)"/>
<path d="M27.9901 175.611C27.6368 175.964 27.887 176.568 28.3868 176.568H35.2799C35.7796 176.568 36.0299 175.964 35.6765 175.611L32.23 172.164C32.0109 171.945 31.6557 171.945 31.4367 172.164L27.9901 175.611Z" fill="#686868"/>
<path d="M36.7201 173.432C36.2204 173.432 35.9701 174.036 36.3235 174.389L39.77 177.836C39.9891 178.055 40.3442 178.055 40.5633 177.836L44.0099 174.389C44.3632 174.036 44.113 173.432 43.6132 173.432H36.7201Z" fill="#686868"/>
</svg>
