<svg width="1276" height="644" viewBox="0 0 1276 644" fill="none" xmlns="http://www.w3.org/2000/svg">
  <mask id="path-1-outside-1_3_2" maskUnits="userSpaceOnUse" x="1202" y="460" width="74" height="184" fill="black">
    <rect fill="white" x="1202" y="460" width="74" height="184"/>
    <path d="M1202 462H1270C1272.21 462 1274 463.791 1274 466V638C1274 640.209 1272.21 642 1270 642H1202V462Z"/>
  </mask>
  <path d="M1202 462H1270C1272.21 462 1274 463.791 1274 466V638C1274 640.209 1272.21 642 1270 642H1202V462Z" fill="white"/>
  <path d="M1202 460H1270C1273.31 460 1276 462.686 1276 466H1272C1272 464.895 1271.1 464 1270 464H1202V460ZM1276 638C1276 641.314 1273.31 644 1270 644H1202V640H1270C1271.1 640 1272 639.105 1272 638H1276ZM1202 642V462V642ZM1270 460C1273.31 460 1276 462.686 1276 466V638C1276 641.314 1273.31 644 1270 644V640C1271.1 640 1272 639.105 1272 638V466C1272 464.895 1271.1 464 1270 464V460Z" fill="#B7B7B7" mask="url(#path-1-outside-1_3_2)"/>
  <mask id="path-3-outside-2_3_2" maskUnits="userSpaceOnUse" x="972" y="460" width="72" height="184" fill="black">
    <rect fill="white" x="972" y="460" width="72" height="184"/>
    <path d="M972 462H1044V642H972V462Z"/>
  </mask>
  <path d="M972 462H1044V642H972V462Z" fill="white"/>
  <path d="M972 464H1044V460H972V464ZM1044 640H972V644H1044V640Z" fill="#B7B7B7" mask="url(#path-3-outside-2_3_2)"/>
  <mask id="path-5-outside-3_3_2" maskUnits="userSpaceOnUse" x="740" y="460" width="74" height="184" fill="black">
    <rect fill="white" x="740" y="460" width="74" height="184"/>
    <path d="M742 466C742 463.791 743.791 462 746 462H814V642H746C743.791 642 742 640.209 742 638V466Z"/>
  </mask>
  <path d="M742 466C742 463.791 743.791 462 746 462H814V642H746C743.791 642 742 640.209 742 638V466Z" fill="white"/>
  <path d="M740 466C740 462.686 742.686 460 746 460H814V464H746C744.895 464 744 464.895 744 466H740ZM814 644H746C742.686 644 740 641.314 740 638H744C744 639.105 744.895 640 746 640H814V644ZM746 644C742.686 644 740 641.314 740 638V466C740 462.686 742.686 460 746 460V464C744.895 464 744 464.895 744 466V638C744 639.105 744.895 640 746 640V644ZM814 462V642V462Z" fill="#B7B7B7" mask="url(#path-5-outside-3_3_2)"/>
  <mask id="path-7-outside-4_3_2" maskUnits="userSpaceOnUse" x="460" y="462" width="184" height="74" fill="black">
    <rect fill="white" x="460" y="462" width="184" height="74"/>
    <path d="M462 462H642V530C642 532.209 640.209 534 638 534H466C463.791 534 462 532.209 462 530V462Z"/>
  </mask>
  <path d="M462 462H642V530C642 532.209 640.209 534 638 534H466C463.791 534 462 532.209 462 530V462Z" fill="white"/>
  <path d="M462 462H642H462ZM644 530C644 533.314 641.314 536 638 536H466C462.686 536 460 533.314 460 530H464C464 531.105 464.895 532 466 532H638C639.105 532 640 531.105 640 530H644ZM466 536C462.686 536 460 533.314 460 530V462H464V530C464 531.105 464.895 532 466 532V536ZM644 462V530C644 533.314 641.314 536 638 536V532C639.105 532 640 531.105 640 530V462H644Z" fill="#B7B7B7" mask="url(#path-7-outside-4_3_2)"/>
  <mask id="path-9-outside-5_3_2" maskUnits="userSpaceOnUse" x="230" y="462" width="184" height="72" fill="black">
    <rect fill="white" x="230" y="462" width="184" height="72"/>
    <path d="M232 462H412V534H232V462Z"/>
  </mask>
  <path d="M232 462H412V534H232V462Z" fill="white"/>
  <path d="M410 462V534H414V462H410ZM234 534V462H230V534H234Z" fill="#B7B7B7" mask="url(#path-9-outside-5_3_2)"/>
  <mask id="path-11-outside-6_3_2" maskUnits="userSpaceOnUse" x="0" y="460" width="184" height="74" fill="black">
    <rect fill="white" y="460" width="184" height="74"/>
    <path d="M2 466C2 463.791 3.79086 462 6 462H178C180.209 462 182 463.791 182 466V534H2V466Z"/>
  </mask>
  <path d="M2 466C2 463.791 3.79086 462 6 462H178C180.209 462 182 463.791 182 466V534H2V466Z" fill="white"/>
  <path d="M0 466C0 462.686 2.68629 460 6 460H178C181.314 460 184 462.686 184 466H180C180 464.895 179.105 464 178 464H6C4.89543 464 4 464.895 4 466H0ZM182 534H2H182ZM0 534V466C0 462.686 2.68629 460 6 460V464C4.89543 464 4 464.895 4 466V534H0ZM178 460C181.314 460 184 462.686 184 466V534H180V466C180 464.895 179.105 464 178 464V460Z" fill="#B7B7B7" mask="url(#path-11-outside-6_3_2)"/>
  <mask id="path-13-outside-7_3_2" maskUnits="userSpaceOnUse" x="1202" y="230" width="20" height="184" fill="black">
    <rect fill="white" x="1202" y="230" width="20" height="184"/>
    <path d="M1202 232H1216C1218.21 232 1220 233.791 1220 236V408C1220 410.209 1218.21 412 1216 412H1202V232Z"/>
  </mask>
  <path d="M1202 232H1216C1218.21 232 1220 233.791 1220 236V408C1220 410.209 1218.21 412 1216 412H1202V232Z" fill="white"/>
  <path d="M1202 230H1216C1219.31 230 1222 232.686 1222 236H1218C1218 234.895 1217.1 234 1216 234H1202V230ZM1222 408C1222 411.314 1219.31 414 1216 414H1202V410H1216C1217.1 410 1218 409.105 1218 408H1222ZM1202 412V232V412ZM1216 230C1219.31 230 1222 232.686 1222 236V408C1222 411.314 1219.31 414 1216 414V410C1217.1 410 1218 409.105 1218 408V236C1218 234.895 1217.1 234 1216 234V230Z" fill="#B7B7B7" mask="url(#path-13-outside-7_3_2)"/>
  <mask id="path-15-outside-8_3_2" maskUnits="userSpaceOnUse" x="972" y="230" width="18" height="184" fill="black">
    <rect fill="white" x="972" y="230" width="18" height="184"/>
    <path d="M972 232H990V412H972V232Z"/>
  </mask>
  <path d="M972 232H990V412H972V232Z" fill="white"/>
  <path d="M972 234H990V230H972V234ZM990 410H972V414H990V410Z" fill="#B7B7B7" mask="url(#path-15-outside-8_3_2)"/>
  <mask id="path-17-outside-9_3_2" maskUnits="userSpaceOnUse" x="740" y="230" width="20" height="184" fill="black">
    <rect fill="white" x="740" y="230" width="20" height="184"/>
    <path d="M742 236C742 233.791 743.791 232 746 232H760V412H746C743.791 412 742 410.209 742 408V236Z"/>
  </mask>
  <path d="M742 236C742 233.791 743.791 232 746 232H760V412H746C743.791 412 742 410.209 742 408V236Z" fill="white"/>
  <path d="M740 236C740 232.686 742.686 230 746 230H760V234H746C744.895 234 744 234.895 744 236H740ZM760 414H746C742.686 414 740 411.314 740 408H744C744 409.105 744.895 410 746 410H760V414ZM746 414C742.686 414 740 411.314 740 408V236C740 232.686 742.686 230 746 230V234C744.895 234 744 234.895 744 236V408C744 409.105 744.895 410 746 410V414ZM760 232V412V232Z" fill="#B7B7B7" mask="url(#path-17-outside-9_3_2)"/>
  <mask id="path-19-outside-10_3_2" maskUnits="userSpaceOnUse" x="460" y="232" width="184" height="20" fill="black">
    <rect fill="white" x="460" y="232" width="184" height="20"/>
    <path d="M462 232H642V246C642 248.209 640.209 250 638 250H466C463.791 250 462 248.209 462 246V232Z"/>
  </mask>
  <path d="M462 232H642V246C642 248.209 640.209 250 638 250H466C463.791 250 462 248.209 462 246V232Z" fill="white"/>
  <path d="M462 232H642H462ZM644 246C644 249.314 641.314 252 638 252H466C462.686 252 460 249.314 460 246H464C464 247.105 464.895 248 466 248H638C639.105 248 640 247.105 640 246H644ZM466 252C462.686 252 460 249.314 460 246V232H464V246C464 247.105 464.895 248 466 248V252ZM644 232V246C644 249.314 641.314 252 638 252V248C639.105 248 640 247.105 640 246V232H644Z" fill="#B7B7B7" mask="url(#path-19-outside-10_3_2)"/>
  <mask id="path-21-outside-11_3_2" maskUnits="userSpaceOnUse" x="230" y="232" width="184" height="18" fill="black">
    <rect fill="white" x="230" y="232" width="184" height="18"/>
    <path d="M232 232H412V250H232V232Z"/>
  </mask>
  <path d="M232 232H412V250H232V232Z" fill="white"/>
  <path d="M410 232V250H414V232H410ZM234 250V232H230V250H234Z" fill="#B7B7B7" mask="url(#path-21-outside-11_3_2)"/>
  <mask id="path-23-outside-12_3_2" maskUnits="userSpaceOnUse" x="0" y="230" width="184" height="20" fill="black">
    <rect fill="white" y="230" width="184" height="20"/>
    <path d="M2 236C2 233.791 3.79086 232 6 232H178C180.209 232 182 233.791 182 236V250H2V236Z"/>
  </mask>
  <path d="M2 236C2 233.791 3.79086 232 6 232H178C180.209 232 182 233.791 182 236V250H2V236Z" fill="white"/>
  <path d="M0 236C0 232.686 2.68629 230 6 230H178C181.314 230 184 232.686 184 236H180C180 234.895 179.105 234 178 234H6C4.89543 234 4 234.895 4 236H0ZM182 250H2H182ZM0 250V236C0 232.686 2.68629 230 6 230V234C4.89543 234 4 234.895 4 236V250H0ZM178 230C181.314 230 184 232.686 184 236V250H180V236C180 234.895 179.105 234 178 234V230Z" fill="#B7B7B7" mask="url(#path-23-outside-12_3_2)"/>
  <mask id="path-25-outside-13_3_2" maskUnits="userSpaceOnUse" x="1202" y="0" width="38" height="184" fill="black">
    <rect fill="white" x="1202" width="38" height="184"/>
    <path d="M1202 2H1234C1236.21 2 1238 3.79086 1238 6V178C1238 180.209 1236.21 182 1234 182H1202V2Z"/>
  </mask>
  <path d="M1202 2H1234C1236.21 2 1238 3.79086 1238 6V178C1238 180.209 1236.21 182 1234 182H1202V2Z" fill="white"/>
  <path d="M1202 0H1234C1237.31 0 1240 2.68629 1240 6H1236C1236 4.89543 1235.1 4 1234 4H1202V0ZM1240 178C1240 181.314 1237.31 184 1234 184H1202V180H1234C1235.1 180 1236 179.105 1236 178H1240ZM1202 182V2V182ZM1234 0C1237.31 0 1240 2.68629 1240 6V178C1240 181.314 1237.31 184 1234 184V180C1235.1 180 1236 179.105 1236 178V6C1236 4.89543 1235.1 4 1234 4V0Z" fill="#B7B7B7" mask="url(#path-25-outside-13_3_2)"/>
  <mask id="path-27-outside-14_3_2" maskUnits="userSpaceOnUse" x="972" y="0" width="36" height="184" fill="black">
    <rect fill="white" x="972" width="36" height="184"/>
    <path d="M972 2H1008V182H972V2Z"/>
  </mask>
  <path d="M972 2H1008V182H972V2Z" fill="white"/>
  <path d="M972 4H1008V0H972V4ZM1008 180H972V184H1008V180Z" fill="#B7B7B7" mask="url(#path-27-outside-14_3_2)"/>
  <mask id="path-29-outside-15_3_2" maskUnits="userSpaceOnUse" x="740" y="0" width="38" height="184" fill="black">
    <rect fill="white" x="740" width="38" height="184"/>
    <path d="M742 6C742 3.79086 743.791 2 746 2H778V182H746C743.791 182 742 180.209 742 178V6Z"/>
  </mask>
  <path d="M742 6C742 3.79086 743.791 2 746 2H778V182H746C743.791 182 742 180.209 742 178V6Z" fill="white"/>
  <path d="M740 6C740 2.68629 742.686 0 746 0H778V4H746C744.895 4 744 4.89543 744 6H740ZM778 184H746C742.686 184 740 181.314 740 178H744C744 179.105 744.895 180 746 180H778V184ZM746 184C742.686 184 740 181.314 740 178V6C740 2.68629 742.686 0 746 0V4C744.895 4 744 4.89543 744 6V178C744 179.105 744.895 180 746 180V184ZM778 2V182V2Z" fill="#B7B7B7" mask="url(#path-29-outside-15_3_2)"/>
  <mask id="path-31-outside-16_3_2" maskUnits="userSpaceOnUse" x="460" y="2" width="184" height="38" fill="black">
    <rect fill="white" x="460" y="2" width="184" height="38"/>
    <path d="M462 2H642V34C642 36.2091 640.209 38 638 38H466C463.791 38 462 36.2091 462 34V2Z"/>
  </mask>
  <path d="M462 2H642V34C642 36.2091 640.209 38 638 38H466C463.791 38 462 36.2091 462 34V2Z" fill="white"/>
  <path d="M462 2H642H462ZM644 34C644 37.3137 641.314 40 638 40H466C462.686 40 460 37.3137 460 34H464C464 35.1046 464.895 36 466 36H638C639.105 36 640 35.1046 640 34H644ZM466 40C462.686 40 460 37.3137 460 34V2H464V34C464 35.1046 464.895 36 466 36V40ZM644 2V34C644 37.3137 641.314 40 638 40V36C639.105 36 640 35.1046 640 34V2H644Z" fill="#B7B7B7" mask="url(#path-31-outside-16_3_2)"/>
  <mask id="path-33-outside-17_3_2" maskUnits="userSpaceOnUse" x="230" y="2" width="184" height="36" fill="black">
    <rect fill="white" x="230" y="2" width="184" height="36"/>
    <path d="M232 2H412V38H232V2Z"/>
  </mask>
  <path d="M232 2H412V38H232V2Z" fill="white"/>
  <path d="M410 2V38H414V2H410ZM234 38V2H230V38H234Z" fill="#B7B7B7" mask="url(#path-33-outside-17_3_2)"/>
  <mask id="path-35-outside-18_3_2" maskUnits="userSpaceOnUse" x="0" y="0" width="184" height="38" fill="black">
    <rect fill="white" width="184" height="38"/>
    <path d="M2 6C2 3.79086 3.79086 2 6 2H178C180.209 2 182 3.79086 182 6V38H2V6Z"/>
  </mask>
  <path d="M2 6C2 3.79086 3.79086 2 6 2H178C180.209 2 182 3.79086 182 6V38H2V6Z" fill="white"/>
  <path d="M0 6C0 2.68629 2.68629 0 6 0H178C181.314 0 184 2.68629 184 6H180C180 4.89543 179.105 4 178 4H6C4.89543 4 4 4.89543 4 6H0ZM182 38H2H182ZM0 38V6C0 2.68629 2.68629 0 6 0V4C4.89543 4 4 4.89543 4 6V38H0ZM178 0C181.314 0 184 2.68629 184 6V38H180V6C180 4.89543 179.105 4 178 4V0Z" fill="#B7B7B7" mask="url(#path-35-outside-18_3_2)"/>
</svg>
