<svg width="108" height="184" viewBox="0 0 108 184" fill="none" xmlns="http://www.w3.org/2000/svg">
<path d="M46.5696 13.2364L34.5654 8.09312C23.6426 3.41313 11.8832 1 0 1L0 183C11.8832 183 23.6426 180.587 34.5654 175.907L46.5696 170.764C66.8271 162.084 83.9797 147.471 95.7674 128.85C100.909 120.728 104.346 111.645 105.87 102.154L106.044 101.069C107.008 95.0615 107.008 88.9385 106.044 82.9308L105.87 81.8461C104.346 72.3549 100.909 63.2724 95.7674 55.1503C83.9797 36.5291 66.827 21.916 46.5696 13.2364Z" fill="white"/>
<path d="M-8.34465e-07 1V1C11.8832 1 23.6426 3.41313 34.5654 8.09312L46.5696 13.2364C66.827 21.916 83.9797 36.5291 95.7674 55.1503V55.1503C100.909 63.2724 104.346 72.3549 105.87 81.8461L106.044 82.9308C107.008 88.9385 107.008 95.0615 106.044 101.069L105.87 102.154C104.346 111.645 100.909 120.728 95.7674 128.85V128.85C83.9797 147.471 66.8271 162.084 46.5696 170.764L34.5654 175.907C23.6426 180.587 11.8832 183 -8.34465e-07 183V183" stroke="#B7B7B7" stroke-width="2"/>
<path d="M29 42.1468C29 42.1468 35.3983 41.176 45.9959 44.2271C54.0703 46.5517 58.6592 54.1897 60.3867 57.695C60.9652 58.869 61.3433 60.1152 61.5451 61.4084C62.1019 64.9779 63.1009 73.9641 62.9917 92.0728L62.9917 91.9272C63.1009 110.036 62.1019 119.022 61.5451 122.592C61.3433 123.885 60.9652 125.131 60.3867 126.305C58.6592 129.81 54.0703 137.448 45.9959 139.773C35.3983 142.824 29 141.853 29 141.853L29 42.1468Z" fill="#E5E5E5"/>
</svg>
