<svg width="205" height="26" viewBox="0 0 205 26" fill="none" xmlns="http://www.w3.org/2000/svg">
  <path d="M0 4C0 1.79086 1.79086 0 4 0H201C203.209 0 205 1.79086 205 4V22C205 24.2091 203.209 26 201 26H4C1.79086 26 0 24.2091 0 22V4Z" fill="#FCBB00"/>
  <path d="M20.1328 9.13281V15.3984H23.5859V13.8828C23.5859 13.4974 23.6589 13.224 23.8047 13.0625C23.9557 12.8958 24.151 12.8125 24.3906 12.8125C24.625 12.8125 24.8151 12.8958 24.9609 13.0625C25.112 13.224 25.1875 13.4974 25.1875 13.8828V17H17.6016C17.2161 17 16.9401 16.9271 16.7734 16.7812C16.612 16.6302 16.5312 16.4349 16.5312 16.1953C16.5312 15.9609 16.612 15.7708 16.7734 15.625C16.9401 15.474 17.2161 15.3984 17.6016 15.3984H18.5312V9.13281H17.6016C17.2161 9.13281 16.9401 9.0599 16.7734 8.91406C16.612 8.76302 16.5312 8.56771 16.5312 8.32812C16.5312 8.08854 16.612 7.89583 16.7734 7.75C16.9401 7.59896 17.2161 7.52344 17.6016 7.52344L21.0703 7.53125C21.4557 7.53125 21.7292 7.60417 21.8906 7.75C22.0573 7.89583 22.1406 8.08854 22.1406 8.32812C22.1406 8.56771 22.0573 8.76302 21.8906 8.91406C21.7292 9.0599 21.4557 9.13281 21.0703 9.13281H20.1328ZM34.5703 13.5859C34.5703 14.2005 34.3984 14.7969 34.0547 15.375C33.7161 15.9479 33.2083 16.4062 32.5312 16.75C31.8594 17.0885 31.1562 17.2578 30.4219 17.2578C29.6927 17.2578 28.9948 17.0911 28.3281 16.7578C27.6615 16.4193 27.1536 15.9609 26.8047 15.3828C26.4557 14.8047 26.2812 14.2005 26.2812 13.5703C26.2812 12.9297 26.4583 12.3021 26.8125 11.6875C27.1667 11.0677 27.6745 10.5807 28.3359 10.2266C29.0026 9.8724 29.6979 9.69531 30.4219 9.69531C31.151 9.69531 31.8516 9.8776 32.5234 10.2422C33.2005 10.6016 33.7109 11.0885 34.0547 11.7031C34.3984 12.3125 34.5703 12.9401 34.5703 13.5859ZM32.9688 13.5938C32.9688 13.0781 32.7839 12.6042 32.4141 12.1719C31.9089 11.5885 31.2448 11.2969 30.4219 11.2969C29.6979 11.2969 29.0938 11.5286 28.6094 11.9922C28.125 12.4557 27.8828 12.9922 27.8828 13.6016C27.8828 14.1016 28.1276 14.5703 28.6172 15.0078C29.1068 15.4401 29.7083 15.6562 30.4219 15.6562C31.1406 15.6562 31.7448 15.4401 32.2344 15.0078C32.724 14.5703 32.9688 14.099 32.9688 13.5938ZM39.6875 9.90625V10.9062C40.3594 10.4219 40.888 10.099 41.2734 9.9375C41.6641 9.77604 42.0286 9.69531 42.3672 9.69531C42.888 9.69531 43.3932 9.88802 43.8828 10.2734C44.2161 10.5339 44.3828 10.7995 44.3828 11.0703C44.3828 11.2995 44.3021 11.4948 44.1406 11.6562C43.9844 11.8125 43.7943 11.8906 43.5703 11.8906C43.3724 11.8906 43.1641 11.7917 42.9453 11.5938C42.7266 11.3958 42.5312 11.2969 42.3594 11.2969C42.1354 11.2969 41.7995 11.4375 41.3516 11.7188C40.9089 12 40.3542 12.4219 39.6875 12.9844V15.3984H41.9688C42.3542 15.3984 42.6276 15.474 42.7891 15.625C42.9557 15.7708 43.0391 15.9635 43.0391 16.2031C43.0391 16.4375 42.9557 16.6302 42.7891 16.7812C42.6276 16.9271 42.3542 17 41.9688 17H37.1328C36.7474 17 36.4714 16.9271 36.3047 16.7812C36.1432 16.6302 36.0625 16.4349 36.0625 16.1953C36.0625 15.9609 36.1432 15.7708 36.3047 15.625C36.4714 15.474 36.7474 15.3984 37.1328 15.3984H38.0859V11.5078H37.5078C37.1224 11.5078 36.8464 11.4349 36.6797 11.2891C36.5182 11.138 36.4375 10.9427 36.4375 10.7031C36.4375 10.4688 36.5182 10.2786 36.6797 10.1328C36.8464 9.98177 37.1224 9.90625 37.5078 9.90625H39.6875ZM53.6484 14.2656H47.0781C47.2448 14.6823 47.5391 15.0182 47.9609 15.2734C48.388 15.5286 48.9635 15.6562 49.6875 15.6562C50.2812 15.6562 51.0703 15.5286 52.0547 15.2734C52.4609 15.1693 52.7422 15.1172 52.8984 15.1172C53.112 15.1172 53.2917 15.1927 53.4375 15.3438C53.5833 15.4948 53.6562 15.6849 53.6562 15.9141C53.6562 16.1224 53.5781 16.2995 53.4219 16.4453C53.2135 16.638 52.7057 16.8229 51.8984 17C51.0911 17.1719 50.3151 17.2578 49.5703 17.2578C48.2891 17.2578 47.263 16.8958 46.4922 16.1719C45.7266 15.4479 45.3438 14.5573 45.3438 13.5C45.3438 12.375 45.7578 11.4609 46.5859 10.7578C47.4193 10.0495 48.3776 9.69531 49.4609 9.69531C50.112 9.69531 50.7083 9.8099 51.25 10.0391C51.7969 10.2682 52.2031 10.5156 52.4688 10.7812C52.8438 11.1667 53.1536 11.6432 53.3984 12.2109C53.5651 12.6068 53.6484 13.0651 53.6484 13.5859V14.2656ZM51.875 12.6641C51.6302 12.2057 51.3099 11.8646 50.9141 11.6406C50.5182 11.4115 50.0469 11.2969 49.5 11.2969C48.9583 11.2969 48.4896 11.4115 48.0938 11.6406C47.6979 11.8646 47.375 12.2057 47.125 12.6641H51.875ZM56.7656 9.90625V10.3594C57.026 10.1042 57.2604 9.92969 57.4688 9.83594C57.6823 9.73698 57.9271 9.6875 58.2031 9.6875C58.4375 9.6875 58.6693 9.74479 58.8984 9.85938C59.1276 9.97396 59.3516 10.1458 59.5703 10.375C59.8464 10.1458 60.125 9.97656 60.4062 9.86719C60.6927 9.7526 60.9844 9.69531 61.2812 9.69531C61.875 9.69531 62.3568 9.85417 62.7266 10.1719C63.2161 10.5885 63.4609 11.1354 63.4609 11.8125V15.3984C63.7943 15.3984 64.0417 15.474 64.2031 15.625C64.3646 15.776 64.4453 15.9688 64.4453 16.2031C64.4453 16.4375 64.3646 16.6302 64.2031 16.7812C64.0417 16.9271 63.7682 17 63.3828 17H61.8594V11.9453C61.8594 11.7005 61.8151 11.5312 61.7266 11.4375C61.638 11.3438 61.5026 11.2969 61.3203 11.2969C61.1432 11.2969 60.9792 11.3438 60.8281 11.4375C60.6354 11.5677 60.401 11.8125 60.125 12.1719V15.3984C60.4583 15.3984 60.7057 15.474 60.8672 15.625C61.0286 15.776 61.1094 15.9688 61.1094 16.2031C61.1094 16.4375 61.0286 16.6302 60.8672 16.7812C60.7057 16.9271 60.4323 17 60.0469 17H58.5234V11.9453C58.5234 11.7057 58.4766 11.5391 58.3828 11.4453C58.2943 11.3464 58.1589 11.2969 57.9766 11.2969C57.7891 11.2969 57.6042 11.3568 57.4219 11.4766C57.2396 11.5911 57.0208 11.8229 56.7656 12.1719V15.3984C57.099 15.3984 57.3464 15.474 57.5078 15.625C57.6745 15.776 57.7578 15.9688 57.7578 16.2031C57.7578 16.4375 57.6745 16.6302 57.5078 16.7812C57.3464 16.9271 57.0729 17 56.6875 17H55.2422C54.8568 17 54.5833 16.9271 54.4219 16.7812C54.2552 16.6302 54.1719 16.4349 54.1719 16.1953C54.1719 15.9609 54.2526 15.7708 54.4141 15.625C54.5755 15.474 54.8255 15.3984 55.1641 15.3984V11.5078C54.8255 11.5078 54.5755 11.4323 54.4141 11.2812C54.2526 11.1302 54.1719 10.9375 54.1719 10.7031C54.1719 10.4688 54.2552 10.2786 54.4219 10.1328C54.5833 9.98177 54.8568 9.90625 55.2422 9.90625H56.7656ZM69.4219 6.86719V8.5625H67.5156V6.86719H69.4219ZM69.6406 9.90625V15.3984H71.5625C71.9479 15.3984 72.2214 15.474 72.3828 15.625C72.5495 15.7708 72.6328 15.9635 72.6328 16.2031C72.6328 16.4375 72.5495 16.6302 72.3828 16.7812C72.2214 16.9271 71.9479 17 71.5625 17H66.1172C65.7318 17 65.4557 16.9271 65.2891 16.7812C65.1276 16.6302 65.0469 16.4349 65.0469 16.1953C65.0469 15.9609 65.1276 15.7708 65.2891 15.625C65.4557 15.474 65.7318 15.3984 66.1172 15.3984H68.0391V11.5078H66.75C66.3698 11.5078 66.0964 11.4349 65.9297 11.2891C65.763 11.138 65.6797 10.9427 65.6797 10.7031C65.6797 10.4688 65.7604 10.2786 65.9219 10.1328C66.0885 9.98177 66.3646 9.90625 66.75 9.90625H69.6406ZM76.4688 16.1172V18.7422H77.4297C77.8151 18.7422 78.0885 18.8151 78.25 18.9609C78.4167 19.112 78.5 19.3073 78.5 19.5469C78.5 19.7812 78.4167 19.9714 78.25 20.1172C78.0885 20.2682 77.8151 20.3438 77.4297 20.3438H74.5938C74.2083 20.3438 73.9323 20.2682 73.7656 20.1172C73.6042 19.9714 73.5234 19.7812 73.5234 19.5469C73.5234 19.3073 73.6068 19.112 73.7734 18.9609C73.9401 18.8151 74.2135 18.7422 74.5938 18.7422H74.8672V11.5078H74.5938C74.2083 11.5078 73.9323 11.4349 73.7656 11.2891C73.6042 11.138 73.5234 10.9427 73.5234 10.7031C73.5234 10.4688 73.6042 10.2786 73.7656 10.1328C73.9323 9.98177 74.2083 9.90625 74.5938 9.90625H76.4688V10.4531C76.8438 10.1979 77.2318 10.0078 77.6328 9.88281C78.0339 9.75781 78.4453 9.69531 78.8672 9.69531C79.9609 9.69531 80.8932 10.0677 81.6641 10.8125C82.4349 11.5521 82.8203 12.401 82.8203 13.3594C82.8203 14.4167 82.3646 15.2891 81.4531 15.9766C80.6927 16.5495 79.8359 16.8359 78.8828 16.8359C78.4714 16.8359 78.0651 16.776 77.6641 16.6562C77.263 16.5365 76.8646 16.3568 76.4688 16.1172ZM81.2188 13.3672C81.2188 13.1432 81.1302 12.8594 80.9531 12.5156C80.776 12.1667 80.5026 11.8776 80.1328 11.6484C79.7682 11.4141 79.3385 11.2969 78.8438 11.2969C78.0469 11.2969 77.4141 11.5964 76.9453 12.1953C76.6276 12.6068 76.4688 13.0026 76.4688 13.3828C76.4688 13.8099 76.6953 14.2266 77.1484 14.6328C77.6068 15.0339 78.1719 15.2344 78.8438 15.2344C79.5208 15.2344 80.0859 15.0339 80.5391 14.6328C80.9922 14.2318 81.2188 13.8099 81.2188 13.3672ZM89.7969 11.7812C89.5365 11.6198 89.263 11.5 88.9766 11.4219C88.6901 11.3385 88.3906 11.2969 88.0781 11.2969C87.4583 11.2969 86.9661 11.3984 86.6016 11.6016C86.4401 11.6901 86.3594 11.7865 86.3594 11.8906C86.3594 12.0104 86.4688 12.1276 86.6875 12.2422C86.8542 12.3255 87.2266 12.4062 87.8047 12.4844C88.8672 12.6302 89.6068 12.776 90.0234 12.9219C90.5703 13.1146 90.9922 13.401 91.2891 13.7812C91.5859 14.1615 91.7344 14.5625 91.7344 14.9844C91.7344 15.5573 91.4818 16.0365 90.9766 16.4219C90.2526 16.9792 89.3125 17.2578 88.1562 17.2578C87.6927 17.2578 87.263 17.2161 86.8672 17.1328C86.4766 17.0547 86.1172 16.9375 85.7891 16.7812C85.7109 16.849 85.6276 16.901 85.5391 16.9375C85.4505 16.974 85.3594 16.9922 85.2656 16.9922C85.0156 16.9922 84.8151 16.9115 84.6641 16.75C84.5182 16.5833 84.4453 16.3073 84.4453 15.9219V15.3828C84.4453 14.9974 84.5182 14.724 84.6641 14.5625C84.8151 14.3958 85.0104 14.3125 85.25 14.3125C85.4427 14.3125 85.6042 14.3672 85.7344 14.4766C85.8646 14.5807 85.9661 14.763 86.0391 15.0234C86.2839 15.2318 86.5781 15.3906 86.9219 15.5C87.2656 15.6042 87.6615 15.6562 88.1094 15.6562C88.8438 15.6562 89.4141 15.5417 89.8203 15.3125C90.013 15.1979 90.1094 15.0781 90.1094 14.9531C90.1094 14.7448 89.9714 14.5729 89.6953 14.4375C89.4193 14.3021 88.849 14.1875 87.9844 14.0938C86.6979 13.9583 85.8385 13.6979 85.4062 13.3125C84.974 12.9323 84.7578 12.4635 84.7578 11.9062C84.7578 11.3333 85 10.8568 85.4844 10.4766C86.1406 9.95573 87 9.69531 88.0625 9.69531C88.4323 9.69531 88.7865 9.73177 89.125 9.80469C89.4688 9.8724 89.7969 9.97917 90.1094 10.125C90.2083 10.0521 90.2995 9.9974 90.3828 9.96094C90.4714 9.92448 90.5521 9.90625 90.625 9.90625C90.8438 9.90625 91.026 9.98958 91.1719 10.1562C91.3177 10.3177 91.3906 10.5911 91.3906 10.9766V11.3672C91.3906 11.7161 91.349 11.9531 91.2656 12.0781C91.099 12.3177 90.8724 12.4375 90.5859 12.4375C90.3932 12.4375 90.224 12.3776 90.0781 12.2578C89.9323 12.138 89.8385 11.9792 89.7969 11.7812ZM101.078 9.90625V15.3984C101.417 15.3984 101.667 15.474 101.828 15.625C101.99 15.776 102.07 15.9688 102.07 16.2031C102.07 16.4375 101.987 16.6302 101.82 16.7812C101.659 16.9271 101.385 17 101 17H99.4766V16.6328C99.0182 16.8411 98.5807 16.9974 98.1641 17.1016C97.7474 17.2057 97.3516 17.2578 96.9766 17.2578C96.4505 17.2578 95.9948 17.1484 95.6094 16.9297C95.224 16.7057 94.9193 16.3984 94.6953 16.0078C94.5339 15.7266 94.4531 15.375 94.4531 14.9531V11.5078H94.1797C93.7943 11.5078 93.5182 11.4349 93.3516 11.2891C93.1901 11.138 93.1094 10.9427 93.1094 10.7031C93.1094 10.4688 93.1901 10.2786 93.3516 10.1328C93.5182 9.98177 93.7943 9.90625 94.1797 9.90625H96.0547V14.6719C96.0547 15.0104 96.1354 15.2604 96.2969 15.4219C96.4635 15.5781 96.7161 15.6562 97.0547 15.6562C97.3776 15.6562 97.724 15.5938 98.0938 15.4688C98.4688 15.3385 98.9297 15.1068 99.4766 14.7734V11.5078H98.8984C98.513 11.5078 98.237 11.4349 98.0703 11.2891C97.9089 11.138 97.8281 10.9427 97.8281 10.7031C97.8281 10.4688 97.9089 10.2786 98.0703 10.1328C98.237 9.98177 98.513 9.90625 98.8984 9.90625H101.078ZM104.812 9.90625V10.3594C105.073 10.1042 105.307 9.92969 105.516 9.83594C105.729 9.73698 105.974 9.6875 106.25 9.6875C106.484 9.6875 106.716 9.74479 106.945 9.85938C107.174 9.97396 107.398 10.1458 107.617 10.375C107.893 10.1458 108.172 9.97656 108.453 9.86719C108.74 9.7526 109.031 9.69531 109.328 9.69531C109.922 9.69531 110.404 9.85417 110.773 10.1719C111.263 10.5885 111.508 11.1354 111.508 11.8125V15.3984C111.841 15.3984 112.089 15.474 112.25 15.625C112.411 15.776 112.492 15.9688 112.492 16.2031C112.492 16.4375 112.411 16.6302 112.25 16.7812C112.089 16.9271 111.815 17 111.43 17H109.906V11.9453C109.906 11.7005 109.862 11.5312 109.773 11.4375C109.685 11.3438 109.549 11.2969 109.367 11.2969C109.19 11.2969 109.026 11.3438 108.875 11.4375C108.682 11.5677 108.448 11.8125 108.172 12.1719V15.3984C108.505 15.3984 108.753 15.474 108.914 15.625C109.076 15.776 109.156 15.9688 109.156 16.2031C109.156 16.4375 109.076 16.6302 108.914 16.7812C108.753 16.9271 108.479 17 108.094 17H106.57V11.9453C106.57 11.7057 106.523 11.5391 106.43 11.4453C106.341 11.3464 106.206 11.2969 106.023 11.2969C105.836 11.2969 105.651 11.3568 105.469 11.4766C105.286 11.5911 105.068 11.8229 104.812 12.1719V15.3984C105.146 15.3984 105.393 15.474 105.555 15.625C105.721 15.776 105.805 15.9688 105.805 16.2031C105.805 16.4375 105.721 16.6302 105.555 16.7812C105.393 16.9271 105.12 17 104.734 17H103.289C102.904 17 102.63 16.9271 102.469 16.7812C102.302 16.6302 102.219 16.4349 102.219 16.1953C102.219 15.9609 102.299 15.7708 102.461 15.625C102.622 15.474 102.872 15.3984 103.211 15.3984V11.5078C102.872 11.5078 102.622 11.4323 102.461 11.2812C102.299 11.1302 102.219 10.9375 102.219 10.7031C102.219 10.4688 102.302 10.2786 102.469 10.1328C102.63 9.98177 102.904 9.90625 103.289 9.90625H104.812ZM118.625 11.7812C118.365 11.6198 118.091 11.5 117.805 11.4219C117.518 11.3385 117.219 11.2969 116.906 11.2969C116.286 11.2969 115.794 11.3984 115.43 11.6016C115.268 11.6901 115.188 11.7865 115.188 11.8906C115.188 12.0104 115.297 12.1276 115.516 12.2422C115.682 12.3255 116.055 12.4062 116.633 12.4844C117.695 12.6302 118.435 12.776 118.852 12.9219C119.398 13.1146 119.82 13.401 120.117 13.7812C120.414 14.1615 120.562 14.5625 120.562 14.9844C120.562 15.5573 120.31 16.0365 119.805 16.4219C119.081 16.9792 118.141 17.2578 116.984 17.2578C116.521 17.2578 116.091 17.2161 115.695 17.1328C115.305 17.0547 114.945 16.9375 114.617 16.7812C114.539 16.849 114.456 16.901 114.367 16.9375C114.279 16.974 114.188 16.9922 114.094 16.9922C113.844 16.9922 113.643 16.9115 113.492 16.75C113.346 16.5833 113.273 16.3073 113.273 15.9219V15.3828C113.273 14.9974 113.346 14.724 113.492 14.5625C113.643 14.3958 113.839 14.3125 114.078 14.3125C114.271 14.3125 114.432 14.3672 114.562 14.4766C114.693 14.5807 114.794 14.763 114.867 15.0234C115.112 15.2318 115.406 15.3906 115.75 15.5C116.094 15.6042 116.49 15.6562 116.938 15.6562C117.672 15.6562 118.242 15.5417 118.648 15.3125C118.841 15.1979 118.938 15.0781 118.938 14.9531C118.938 14.7448 118.799 14.5729 118.523 14.4375C118.247 14.3021 117.677 14.1875 116.812 14.0938C115.526 13.9583 114.667 13.6979 114.234 13.3125C113.802 12.9323 113.586 12.4635 113.586 11.9062C113.586 11.3333 113.828 10.8568 114.312 10.4766C114.969 9.95573 115.828 9.69531 116.891 9.69531C117.26 9.69531 117.615 9.73177 117.953 9.80469C118.297 9.8724 118.625 9.97917 118.938 10.125C119.036 10.0521 119.128 9.9974 119.211 9.96094C119.299 9.92448 119.38 9.90625 119.453 9.90625C119.672 9.90625 119.854 9.98958 120 10.1562C120.146 10.3177 120.219 10.5911 120.219 10.9766V11.3672C120.219 11.7161 120.177 11.9531 120.094 12.0781C119.927 12.3177 119.701 12.4375 119.414 12.4375C119.221 12.4375 119.052 12.3776 118.906 12.2578C118.76 12.138 118.667 11.9792 118.625 11.7812ZM127.078 6.86719V8.5625H125.172V6.86719H127.078ZM127.297 9.90625V15.3984H129.219C129.604 15.3984 129.878 15.474 130.039 15.625C130.206 15.7708 130.289 15.9635 130.289 16.2031C130.289 16.4375 130.206 16.6302 130.039 16.7812C129.878 16.9271 129.604 17 129.219 17H123.773C123.388 17 123.112 16.9271 122.945 16.7812C122.784 16.6302 122.703 16.4349 122.703 16.1953C122.703 15.9609 122.784 15.7708 122.945 15.625C123.112 15.474 123.388 15.3984 123.773 15.3984H125.695V11.5078H124.406C124.026 11.5078 123.753 11.4349 123.586 11.2891C123.419 11.138 123.336 10.9427 123.336 10.7031C123.336 10.4688 123.417 10.2786 123.578 10.1328C123.745 9.98177 124.021 9.90625 124.406 9.90625H127.297ZM135.719 11.5078V14.7188C135.719 15.0625 135.789 15.2891 135.93 15.3984C136.148 15.5703 136.539 15.6562 137.102 15.6562C137.919 15.6562 138.674 15.4818 139.367 15.1328C139.633 14.9974 139.841 14.9297 139.992 14.9297C140.201 14.9297 140.38 15.0078 140.531 15.1641C140.688 15.3203 140.766 15.5104 140.766 15.7344C140.766 15.9427 140.682 16.1224 140.516 16.2734C140.26 16.5182 139.755 16.7448 139 16.9531C138.25 17.1562 137.617 17.2578 137.102 17.2578C136.107 17.2578 135.359 17.0443 134.859 16.6172C134.365 16.1849 134.117 15.6562 134.117 15.0312V11.5078H133.539C133.154 11.5078 132.878 11.4349 132.711 11.2891C132.549 11.138 132.469 10.9427 132.469 10.7031C132.469 10.4688 132.549 10.2786 132.711 10.1328C132.878 9.98177 133.154 9.90625 133.539 9.90625H134.117V8.46094C134.117 8.07552 134.19 7.80208 134.336 7.64062C134.487 7.47396 134.682 7.39062 134.922 7.39062C135.156 7.39062 135.346 7.47396 135.492 7.64062C135.643 7.80208 135.719 8.07552 135.719 8.46094V9.90625H138.68C139.065 9.90625 139.339 9.98177 139.5 10.1328C139.667 10.2786 139.75 10.4714 139.75 10.7109C139.75 10.9453 139.667 11.138 139.5 11.2891C139.339 11.4349 139.065 11.5078 138.68 11.5078H135.719ZM149.398 6.86719V15.3984H149.672C150.052 15.3984 150.326 15.474 150.492 15.625C150.659 15.7708 150.742 15.9635 150.742 16.2031C150.742 16.4375 150.659 16.6302 150.492 16.7812C150.331 16.9271 150.057 17 149.672 17H147.797V16.6094C147.432 16.8229 147.049 16.9844 146.648 17.0938C146.253 17.2031 145.841 17.2578 145.414 17.2578C144.211 17.2578 143.242 16.9115 142.508 16.2188C141.773 15.5208 141.406 14.6536 141.406 13.6172C141.406 12.5339 141.792 11.6094 142.562 10.8438C143.333 10.0781 144.273 9.69531 145.383 9.69531C145.799 9.69531 146.208 9.76042 146.609 9.89062C147.01 10.0156 147.406 10.2057 147.797 10.4609V8.46875H147.523C147.138 8.46875 146.862 8.39583 146.695 8.25C146.534 8.09896 146.453 7.90625 146.453 7.67188C146.453 7.43229 146.534 7.23958 146.695 7.09375C146.862 6.94271 147.138 6.86719 147.523 6.86719H149.398ZM147.797 13.6641C147.797 13.0026 147.565 12.4427 147.102 11.9844C146.638 11.526 146.07 11.2969 145.398 11.2969C144.732 11.2969 144.167 11.526 143.703 11.9844C143.24 12.4427 143.008 12.9948 143.008 13.6406C143.008 14.2292 143.216 14.7135 143.633 15.0938C144.049 15.4688 144.638 15.6562 145.398 15.6562C146.154 15.6562 146.742 15.4688 147.164 15.0938C147.586 14.7135 147.797 14.237 147.797 13.6641ZM159.492 13.5859C159.492 14.2005 159.32 14.7969 158.977 15.375C158.638 15.9479 158.13 16.4062 157.453 16.75C156.781 17.0885 156.078 17.2578 155.344 17.2578C154.615 17.2578 153.917 17.0911 153.25 16.7578C152.583 16.4193 152.076 15.9609 151.727 15.3828C151.378 14.8047 151.203 14.2005 151.203 13.5703C151.203 12.9297 151.38 12.3021 151.734 11.6875C152.089 11.0677 152.596 10.5807 153.258 10.2266C153.924 9.8724 154.62 9.69531 155.344 9.69531C156.073 9.69531 156.773 9.8776 157.445 10.2422C158.122 10.6016 158.633 11.0885 158.977 11.7031C159.32 12.3125 159.492 12.9401 159.492 13.5859ZM157.891 13.5938C157.891 13.0781 157.706 12.6042 157.336 12.1719C156.831 11.5885 156.167 11.2969 155.344 11.2969C154.62 11.2969 154.016 11.5286 153.531 11.9922C153.047 12.4557 152.805 12.9922 152.805 13.6016C152.805 14.1016 153.049 14.5703 153.539 15.0078C154.029 15.4401 154.63 15.6562 155.344 15.6562C156.062 15.6562 156.667 15.4401 157.156 15.0078C157.646 14.5703 157.891 14.099 157.891 13.5938ZM165.742 6.86719V15.3984H167.664C168.049 15.3984 168.323 15.474 168.484 15.625C168.651 15.7708 168.734 15.9635 168.734 16.2031C168.734 16.4375 168.651 16.6302 168.484 16.7812C168.323 16.9271 168.049 17 167.664 17H162.219C161.833 17 161.557 16.9271 161.391 16.7812C161.229 16.6302 161.148 16.4349 161.148 16.1953C161.148 15.9609 161.229 15.7708 161.391 15.625C161.557 15.474 161.833 15.3984 162.219 15.3984H164.141V8.46875H162.852C162.471 8.46875 162.198 8.39583 162.031 8.25C161.865 8.09896 161.781 7.90365 161.781 7.66406C161.781 7.42969 161.862 7.23958 162.023 7.09375C162.19 6.94271 162.466 6.86719 162.852 6.86719H165.742ZM178.711 13.5859C178.711 14.2005 178.539 14.7969 178.195 15.375C177.857 15.9479 177.349 16.4062 176.672 16.75C176 17.0885 175.297 17.2578 174.562 17.2578C173.833 17.2578 173.135 17.0911 172.469 16.7578C171.802 16.4193 171.294 15.9609 170.945 15.3828C170.596 14.8047 170.422 14.2005 170.422 13.5703C170.422 12.9297 170.599 12.3021 170.953 11.6875C171.307 11.0677 171.815 10.5807 172.477 10.2266C173.143 9.8724 173.839 9.69531 174.562 9.69531C175.292 9.69531 175.992 9.8776 176.664 10.2422C177.341 10.6016 177.852 11.0885 178.195 11.7031C178.539 12.3125 178.711 12.9401 178.711 13.5859ZM177.109 13.5938C177.109 13.0781 176.924 12.6042 176.555 12.1719C176.049 11.5885 175.385 11.2969 174.562 11.2969C173.839 11.2969 173.234 11.5286 172.75 11.9922C172.266 12.4557 172.023 12.9922 172.023 13.6016C172.023 14.1016 172.268 14.5703 172.758 15.0078C173.247 15.4401 173.849 15.6562 174.562 15.6562C175.281 15.6562 175.885 15.4401 176.375 15.0078C176.865 14.5703 177.109 14.099 177.109 13.5938ZM183.828 9.90625V10.9062C184.5 10.4219 185.029 10.099 185.414 9.9375C185.805 9.77604 186.169 9.69531 186.508 9.69531C187.029 9.69531 187.534 9.88802 188.023 10.2734C188.357 10.5339 188.523 10.7995 188.523 11.0703C188.523 11.2995 188.443 11.4948 188.281 11.6562C188.125 11.8125 187.935 11.8906 187.711 11.8906C187.513 11.8906 187.305 11.7917 187.086 11.5938C186.867 11.3958 186.672 11.2969 186.5 11.2969C186.276 11.2969 185.94 11.4375 185.492 11.7188C185.049 12 184.495 12.4219 183.828 12.9844V15.3984H186.109C186.495 15.3984 186.768 15.474 186.93 15.625C187.096 15.7708 187.18 15.9635 187.18 16.2031C187.18 16.4375 187.096 16.6302 186.93 16.7812C186.768 16.9271 186.495 17 186.109 17H181.273C180.888 17 180.612 16.9271 180.445 16.7812C180.284 16.6302 180.203 16.4349 180.203 16.1953C180.203 15.9609 180.284 15.7708 180.445 15.625C180.612 15.474 180.888 15.3984 181.273 15.3984H182.227V11.5078H181.648C181.263 11.5078 180.987 11.4349 180.82 11.2891C180.659 11.138 180.578 10.9427 180.578 10.7031C180.578 10.4688 180.659 10.2786 180.82 10.1328C180.987 9.98177 181.263 9.90625 181.648 9.90625H183.828Z" fill="black"/>
</svg>
