<svg width="996" height="36" viewBox="0 0 996 36" fill="none" xmlns="http://www.w3.org/2000/svg">
  <mask id="path-1-inside-1_40_525" fill="white">
    <path d="M960 4C960 1.79086 961.791 0 964 0H992C994.209 0 996 1.79086 996 4V32C996 34.2091 994.209 36 992 36H964C961.791 36 960 34.2091 960 32V4Z"/>
  </mask>
  <path d="M960 4C960 1.79086 961.791 0 964 0H992C994.209 0 996 1.79086 996 4V32C996 34.2091 994.209 36 992 36H964C961.791 36 960 34.2091 960 32V4Z" fill="#F6F6F6"/>
  <path d="M964 1H992V-1H964V1ZM995 4V32H997V4H995ZM992 35H964V37H992V35ZM961 32V4H959V32H961ZM964 35C962.343 35 961 33.6569 961 32H959C959 34.7614 961.239 37 964 37V35ZM995 32C995 33.6569 993.657 35 992 35V37C994.761 37 997 34.7614 997 32H995ZM992 1C993.657 1 995 2.34315 995 4H997C997 1.23858 994.761 -1 992 -1V1ZM964 -1C961.239 -1 959 1.23858 959 4H961C961 2.34315 962.343 1 964 1V-1Z" fill="#B7B7B7" mask="url(#path-1-inside-1_40_525)"/>
  <mask id="path-3-inside-2_40_525" fill="white">
    <path d="M720 0H738V30C738 32.2091 736.209 34 734 34H724C721.791 34 720 32.2091 720 30V0Z"/>
  </mask>
  <path d="M720 0H738V30C738 32.2091 736.209 34 734 34H724C721.791 34 720 32.2091 720 30V0Z" fill="#F6F6F6"/>
  <path d="M720 0H738H720ZM739 30C739 32.7614 736.761 35 734 35H724C721.239 35 719 32.7614 719 30H721C721 31.6569 722.343 33 724 33H734C735.657 33 737 31.6569 737 30H739ZM724 35C721.239 35 719 32.7614 719 30V0H721V30C721 31.6569 722.343 33 724 33V35ZM739 0V30C739 32.7614 736.761 35 734 35V33C735.657 33 737 31.6569 737 30V0H739Z" fill="#B7B7B7" mask="url(#path-3-inside-2_40_525)"/>
  <mask id="path-5-inside-3_40_525" fill="white">
    <path d="M480 6C480 3.79086 481.791 2 484 2H494C496.209 2 498 3.79086 498 6V36H480V6Z"/>
  </mask>
  <path d="M480 6C480 3.79086 481.791 2 484 2H494C496.209 2 498 3.79086 498 6V36H480V6Z" fill="#F6F6F6"/>
  <path d="M479 6C479 3.23858 481.239 1 484 1H494C496.761 1 499 3.23858 499 6H497C497 4.34315 495.657 3 494 3H484C482.343 3 481 4.34315 481 6H479ZM498 36H480H498ZM479 36V6C479 3.23858 481.239 1 484 1V3C482.343 3 481 4.34315 481 6V36H479ZM494 1C496.761 1 499 3.23858 499 6V36H497V6C497 4.34315 495.657 3 494 3V1Z" fill="#B7B7B7" mask="url(#path-5-inside-3_40_525)"/>
  <mask id="path-7-inside-4_40_525" fill="white">
    <path d="M242 4C242 1.79086 243.791 0 246 0H276V18H246C243.791 18 242 16.2091 242 14V4Z"/>
  </mask>
  <path d="M242 4C242 1.79086 243.791 0 246 0H276V18H246C243.791 18 242 16.2091 242 14V4Z" fill="#F6F6F6"/>
  <path d="M241 4C241 1.23858 243.239 -1 246 -1H276V1H246C244.343 1 243 2.34315 243 4H241ZM276 19H246C243.239 19 241 16.7614 241 14H243C243 15.6569 244.343 17 246 17H276V19ZM246 19C243.239 19 241 16.7614 241 14V4C241 1.23858 243.239 -1 246 -1V1C244.343 1 243 2.34315 243 4V14C243 15.6569 244.343 17 246 17V19ZM276 0V18V0Z" fill="#B7B7B7" mask="url(#path-7-inside-4_40_525)"/>
  <mask id="path-9-inside-5_40_525" fill="white">
    <path d="M0 0H30C32.2091 0 34 1.79086 34 4V14C34 16.2091 32.2091 18 30 18H0V0Z"/>
  </mask>
  <path d="M0 0H30C32.2091 0 34 1.79086 34 4V14C34 16.2091 32.2091 18 30 18H0V0Z" fill="#F6F6F6"/>
  <path d="M0 -1H30C32.7614 -1 35 1.23858 35 4H33C33 2.34315 31.6569 1 30 1H0V-1ZM35 14C35 16.7614 32.7614 19 30 19H0V17H30C31.6569 17 33 15.6569 33 14H35ZM0 18V0V18ZM30 -1C32.7614 -1 35 1.23858 35 4V14C35 16.7614 32.7614 19 30 19V17C31.6569 17 33 15.6569 33 14V4C33 2.34315 31.6569 1 30 1V-1Z" fill="#B7B7B7" mask="url(#path-9-inside-5_40_525)"/>
</svg>
