<svg width="36" height="36" viewBox="0 0 36 36" fill="none" xmlns="http://www.w3.org/2000/svg">
<path d="M1.5 4C1.5 3.17157 2.17157 2.5 3 2.5H25C26.933 2.5 28.5 4.067 28.5 6V30C28.5 31.933 26.933 33.5 25 33.5H3C2.17157 33.5 1.5 32.8284 1.5 32V4Z" fill="#F6F6F6"/>
<path d="M1.5 4C1.5 3.17157 2.17157 2.5 3 2.5H25C26.933 2.5 28.5 4.067 28.5 6V30C28.5 31.933 26.933 33.5 25 33.5H3C2.17157 33.5 1.5 32.8284 1.5 32V4Z" stroke="#8D8D8D"/>
<path d="M9 32V34H3C1.89543 34 1 33.1046 1 32V4C1 2.89543 1.89543 2 3 2H9V4C9 5.10457 8.10457 6 7 6C5.89543 6 5 6.89543 5 8V28C5 29.1046 5.89543 30 7 30C8.10457 30 9 30.8954 9 32Z" fill="#8D8D8D"/>
<path d="M8.63672 17.3301C8.20703 17.2051 7.87109 16.9785 7.62891 16.6504C7.38672 16.3223 7.26562 15.9258 7.26562 15.4609C7.26562 14.9375 7.41016 14.4902 7.69922 14.1191C7.95312 13.7988 8.29687 13.5625 8.73047 13.4102C9.07031 13.293 9.43359 13.2344 9.82031 13.2344C10.2148 13.2344 10.582 13.293 10.9219 13.4102C11.2617 13.5273 11.5371 13.6914 11.748 13.9023C12.1582 14.3047 12.3633 14.8086 12.3633 15.4141C12.3633 15.8867 12.248 16.2871 12.0176 16.6152C11.7871 16.9395 11.4492 17.1777 11.0039 17.3301C11.3945 17.4316 11.6973 17.5684 11.9121 17.7402C12.4434 18.1582 12.709 18.7383 12.709 19.4805C12.709 20.1133 12.5566 20.6523 12.252 21.0977C11.748 21.832 10.9336 22.1992 9.80859 22.1992C8.90234 22.1992 8.18945 21.9492 7.66992 21.4492C7.17773 20.9688 6.93164 20.3418 6.93164 19.5684C6.93164 18.9902 7.08008 18.5059 7.37695 18.1152C7.67773 17.7207 8.09766 17.459 8.63672 17.3301ZM9.79687 13.9082C9.25781 13.9082 8.82617 14.0527 8.50195 14.3418C8.17773 14.6309 8.01562 15.0156 8.01562 15.4961C8.01562 15.9648 8.17578 16.3359 8.49609 16.6094C8.83594 16.8984 9.28125 17.043 9.83203 17.043C10.4141 17.043 10.8633 16.8887 11.1797 16.5801C11.4687 16.2949 11.6133 15.9297 11.6133 15.4844C11.6133 15.0859 11.5098 14.7559 11.3027 14.4941C10.9902 14.1035 10.4883 13.9082 9.79687 13.9082ZM9.76758 17.6641C9.16602 17.6641 8.66992 17.8398 8.2793 18.1914C7.90039 18.5313 7.71094 18.9863 7.71094 19.5566C7.71094 20.1777 7.92187 20.6699 8.34375 21.0332C8.72266 21.3613 9.21484 21.5254 9.82031 21.5254C10.5234 21.5254 11.0586 21.3223 11.4258 20.916C11.7617 20.5488 11.9297 20.0977 11.9297 19.5625C11.9297 18.832 11.6387 18.3008 11.0566 17.9688C10.6973 17.7656 10.2676 17.6641 9.76758 17.6641ZM15.3164 17.3301C14.8867 17.2051 14.5508 16.9785 14.3086 16.6504C14.0664 16.3223 13.9453 15.9258 13.9453 15.4609C13.9453 14.9375 14.0898 14.4902 14.3789 14.1191C14.6328 13.7988 14.9766 13.5625 15.4102 13.4102C15.75 13.293 16.1133 13.2344 16.5 13.2344C16.8945 13.2344 17.2617 13.293 17.6016 13.4102C17.9414 13.5273 18.2168 13.6914 18.4277 13.9023C18.8379 14.3047 19.043 14.8086 19.043 15.4141C19.043 15.8867 18.9277 16.2871 18.6973 16.6152C18.4668 16.9395 18.1289 17.1777 17.6836 17.3301C18.0742 17.4316 18.377 17.5684 18.5918 17.7402C19.123 18.1582 19.3887 18.7383 19.3887 19.4805C19.3887 20.1133 19.2363 20.6523 18.9316 21.0977C18.4277 21.832 17.6133 22.1992 16.4883 22.1992C15.582 22.1992 14.8691 21.9492 14.3496 21.4492C13.8574 20.9688 13.6113 20.3418 13.6113 19.5684C13.6113 18.9902 13.7598 18.5059 14.0566 18.1152C14.3574 17.7207 14.7773 17.459 15.3164 17.3301ZM16.4766 13.9082C15.9375 13.9082 15.5059 14.0527 15.1816 14.3418C14.8574 14.6309 14.6953 15.0156 14.6953 15.4961C14.6953 15.9648 14.8555 16.3359 15.1758 16.6094C15.5156 16.8984 15.9609 17.043 16.5117 17.043C17.0937 17.043 17.543 16.8887 17.8594 16.5801C18.1484 16.2949 18.293 15.9297 18.293 15.4844C18.293 15.0859 18.1895 14.7559 17.9824 14.4941C17.6699 14.1035 17.168 13.9082 16.4766 13.9082ZM16.4473 17.6641C15.8457 17.6641 15.3496 17.8398 14.959 18.1914C14.5801 18.5313 14.3906 18.9863 14.3906 19.5566C14.3906 20.1777 14.6016 20.6699 15.0234 21.0332C15.4023 21.3613 15.8945 21.5254 16.5 21.5254C17.2031 21.5254 17.7383 21.3223 18.1055 20.916C18.4414 20.5488 18.6094 20.0977 18.6094 19.5625C18.6094 18.832 18.3184 18.3008 17.7363 17.9688C17.377 17.7656 16.9473 17.6641 16.4473 17.6641ZM21.9961 17.3301C21.5664 17.2051 21.2305 16.9785 20.9883 16.6504C20.7461 16.3223 20.625 15.9258 20.625 15.4609C20.625 14.9375 20.7695 14.4902 21.0586 14.1191C21.3125 13.7988 21.6562 13.5625 22.0898 13.4102C22.4297 13.293 22.793 13.2344 23.1797 13.2344C23.5742 13.2344 23.9414 13.293 24.2812 13.4102C24.6211 13.5273 24.8965 13.6914 25.1074 13.9023C25.5176 14.3047 25.7227 14.8086 25.7227 15.4141C25.7227 15.8867 25.6074 16.2871 25.377 16.6152C25.1465 16.9395 24.8086 17.1777 24.3633 17.3301C24.7539 17.4316 25.0566 17.5684 25.2715 17.7402C25.8027 18.1582 26.0684 18.7383 26.0684 19.4805C26.0684 20.1133 25.916 20.6523 25.6113 21.0977C25.1074 21.832 24.293 22.1992 23.168 22.1992C22.2617 22.1992 21.5488 21.9492 21.0293 21.4492C20.5371 20.9688 20.291 20.3418 20.291 19.5684C20.291 18.9902 20.4395 18.5059 20.7363 18.1152C21.0371 17.7207 21.457 17.459 21.9961 17.3301ZM23.1562 13.9082C22.6172 13.9082 22.1855 14.0527 21.8613 14.3418C21.5371 14.6309 21.375 15.0156 21.375 15.4961C21.375 15.9648 21.5352 16.3359 21.8555 16.6094C22.1953 16.8984 22.6406 17.043 23.1914 17.043C23.7734 17.043 24.2227 16.8887 24.5391 16.5801C24.8281 16.2949 24.9727 15.9297 24.9727 15.4844C24.9727 15.0859 24.8691 14.7559 24.6621 14.4941C24.3496 14.1035 23.8477 13.9082 23.1562 13.9082ZM23.127 17.6641C22.5254 17.6641 22.0293 17.8398 21.6387 18.1914C21.2598 18.5313 21.0703 18.9863 21.0703 19.5566C21.0703 20.1777 21.2812 20.6699 21.7031 21.0332C22.082 21.3613 22.5742 21.5254 23.1797 21.5254C23.8828 21.5254 24.418 21.3223 24.7852 20.916C25.1211 20.5488 25.2891 20.0977 25.2891 19.5625C25.2891 18.832 24.998 18.3008 24.416 17.9688C24.0566 17.7656 23.627 17.6641 23.127 17.6641Z" fill="#8D8D8D"/>
</svg>
