<svg width="36" height="36" viewBox="0 0 36 36" fill="none" xmlns="http://www.w3.org/2000/svg">
<path d="M2.5 4C2.5 3.17157 3.17157 2.5 4 2.5H32C32.8284 2.5 33.5 3.17157 33.5 4V32C33.5 32.8284 32.8284 33.5 32 33.5H4C3.17157 33.5 2.5 32.8284 2.5 32V4Z" fill="#F6F6F6"/>
<path d="M2.5 4C2.5 3.17157 3.17157 2.5 4 2.5H32C32.8284 2.5 33.5 3.17157 33.5 4V32C33.5 32.8284 32.8284 33.5 32 33.5H4C3.17157 33.5 2.5 32.8284 2.5 32V4Z" stroke="#8D8D8D"/>
<path d="M19.6058 7.5122L21.0708 8.02454C21.1023 8.03655 21.137 8.04177 21.1709 8.04177C21.2722 8.04177 21.3662 7.99141 21.4226 7.90736L21.7519 7.41905C21.7788 7.37852 21.7925 7.33118 21.7925 7.28379C21.7925 7.14938 21.6841 7.04045 21.5503 7.04045H19.6864C19.5517 7.04045 19.4428 7.14938 19.4428 7.28379C19.4428 7.38683 19.5089 7.47846 19.6058 7.5122Z" fill="#B7B7B7"/>
<path d="M14.4799 7.52597H16.6043V7.04052H14.4799C14.346 7.04052 14.2377 7.14932 14.2377 7.28355C14.2377 7.41717 14.346 7.52597 14.4799 7.52597Z" fill="#B7B7B7"/>
<path d="M14.4804 8.31508H14.784C14.9178 8.31508 15.0269 8.20616 15.0269 8.07236C15.0269 7.93795 14.9178 7.82902 14.784 7.82902H14.4804C14.3466 7.82902 14.2382 7.93795 14.2382 8.07236C14.2382 8.20616 14.3466 8.31508 14.4804 8.31508Z" fill="#B7B7B7"/>
<path d="M22.3083 9.01214C21.8354 9.01214 21.3688 9.12483 20.9486 9.34104L20.366 8.40587H15.633L15.0505 9.34104C14.6304 9.12483 14.1643 9.01214 13.6915 9.01214C12.05 9.01214 10.7181 10.344 10.7181 11.9861C10.7181 13.6268 12.05 14.9595 13.6915 14.9595C15.3323 14.9595 16.6643 13.6267 16.6643 11.9861C16.6643 11.0441 16.2192 10.1592 15.463 9.5973L15.7893 9.07301L17.3798 11.4379C17.27 11.5768 17.2107 11.7481 17.2107 11.9253C17.2107 12.3603 17.5646 12.7141 17.999 12.7141C18.3057 12.7141 18.5845 12.5361 18.7146 12.2589H19.3476C19.4881 13.789 20.7718 14.9595 22.3082 14.9595C23.9498 14.9595 25.2819 13.6267 25.2819 11.9861C25.2819 10.344 23.9498 9.01214 22.3083 9.01214ZM16.1795 11.9861C16.1795 13.3594 15.0647 14.4741 13.6915 14.4741C12.3183 14.4741 11.2029 13.3594 11.2029 11.9861C11.2029 10.6122 12.3182 9.49802 13.6915 9.49802C14.074 9.49802 14.4506 9.58595 14.7934 9.75495L13.4848 11.8577C13.4616 11.8959 13.4488 11.9403 13.4488 11.9861C13.4488 12.1199 13.5569 12.2288 13.6915 12.2288C13.7757 12.2288 13.8531 12.1851 13.8974 12.1138L15.2061 10.0119C15.8195 10.483 16.1795 11.2124 16.1795 11.9861ZM18.2171 11.1665C18.1465 11.1463 18.0735 11.1365 17.9991 11.1365C17.9263 11.1365 17.8534 11.1462 17.7828 11.1665L16.2524 8.89108H19.7474L18.2171 11.1665ZM19.3422 11.7735H18.774C18.75 11.651 18.6975 11.5354 18.6199 11.4378L20.2098 9.07294L20.5368 9.59724C19.8406 10.114 19.4047 10.9089 19.3422 11.7735ZM20.7937 10.0119L21.8904 11.7735H19.8293C19.8888 11.0764 20.2391 10.4371 20.7937 10.0119ZM22.3083 14.4741C21.0395 14.4741 19.9744 13.5194 19.8345 12.2588H21.9069C21.9972 12.3918 22.1475 12.4715 22.3083 12.4715C22.5759 12.4715 22.793 12.2535 22.793 11.9861C22.793 11.7179 22.5758 11.5001 22.3083 11.5001C22.303 11.5001 22.297 11.5001 22.2926 11.501L21.2057 9.75501C21.5483 9.58601 21.9257 9.49808 22.3083 9.49808C23.6815 9.49808 24.7954 10.6123 24.7954 11.9862C24.7954 13.3594 23.6815 14.4741 22.3083 14.4741Z" fill="#B7B7B7"/>
<path fill-rule="evenodd" clip-rule="evenodd" d="M19.4023 7.28379C19.4023 7.12701 19.5294 7 19.6864 7H21.5503C21.7067 7 21.8329 7.12724 21.8329 7.28379C21.8329 7.3389 21.817 7.39406 21.7855 7.44145L21.4562 7.92991M19.6864 7.08091C19.574 7.08091 19.4832 7.17175 19.4832 7.28379C19.4832 7.36939 19.5382 7.44584 19.6191 7.47399L21.0852 7.98672C21.1113 7.99667 21.141 8.00132 21.1709 8.00132C21.2587 8.00132 21.34 7.95773 21.389 7.88481L21.7182 7.39666C21.7405 7.36299 21.752 7.32344 21.752 7.28379C21.752 7.17152 21.6616 7.08091 21.5503 7.08091H19.6864ZM14.1972 7.28355C14.1972 7.12712 14.3235 7.00006 14.4799 7.00006H16.6448V7.56643H14.4799C14.3236 7.56643 14.1972 7.43943 14.1972 7.28355ZM14.4799 7.08097C14.3685 7.08097 14.2782 7.17152 14.2782 7.28355C14.2782 7.39491 14.3684 7.48552 14.4799 7.48552H16.5638V7.08097H14.4799ZM19.4023 7.28379C19.4023 7.40427 19.4795 7.51108 19.5925 7.55041L19.4023 7.28379ZM19.5925 7.55041L21.0569 8.06255L19.5925 7.55041ZM14.1978 8.07236C14.1978 7.9158 14.324 7.78857 14.4804 7.78857H14.784C14.9401 7.78857 15.0673 7.91563 15.0673 8.07236C15.0673 8.22854 14.9401 8.35554 14.784 8.35554H14.4804C14.3241 8.35554 14.1978 8.22837 14.1978 8.07236ZM14.4804 7.86948C14.3691 7.86948 14.2787 7.96009 14.2787 8.07236C14.2787 8.18395 14.369 8.27463 14.4804 8.27463H14.784C14.8955 8.27463 14.9864 8.18378 14.9864 8.07236C14.9864 7.96026 14.8954 7.86948 14.784 7.86948H14.4804ZM15.6105 8.36541H20.3885L20.9634 9.28821C21.3806 9.08005 21.8414 8.97169 22.3083 8.97169C23.9722 8.97169 25.3223 10.3217 25.3223 11.9861C25.3223 13.6491 23.9722 14.9999 22.3082 15C20.7633 15 19.4703 13.8323 19.3109 12.2993H18.7399C18.5987 12.5773 18.3127 12.7546 17.999 12.7546C17.5422 12.7546 17.1702 12.3826 17.1702 11.9253C17.1702 11.7489 17.2262 11.578 17.3301 11.4364L15.7907 9.14745L15.5169 9.58725C16.2652 10.1577 16.7047 11.0438 16.7047 11.9861C16.7047 13.649 15.3547 14.9999 13.6915 14.9999C12.0276 14.9999 10.6777 13.6491 10.6777 11.9861C10.6777 10.3217 12.0276 8.97169 13.6915 8.97169C14.1583 8.97169 14.6186 9.08005 15.0358 9.28821L15.6105 8.36541ZM15.6554 8.44632L15.0652 9.39407L15.032 9.37701C14.6176 9.16375 14.1579 9.0526 13.6915 9.0526C12.0723 9.0526 10.7586 10.3663 10.7586 11.9861C10.7586 13.6044 12.0723 14.919 13.6915 14.919C15.31 14.919 16.6238 13.6044 16.6238 11.9861C16.6238 11.0569 16.1848 10.1841 15.4389 9.62977L15.409 9.60755L15.788 8.99856L17.4299 11.4398L17.4116 11.4629C17.3075 11.5947 17.2512 11.7571 17.2512 11.9253C17.2512 12.338 17.587 12.6737 17.999 12.6737C18.2899 12.6737 18.5546 12.5048 18.678 12.2417L18.6889 12.2184H19.3845L19.3878 12.2552C19.5265 13.7645 20.7927 14.9191 22.3082 14.9191C23.9275 14.919 25.2414 13.6044 25.2414 11.9861C25.2414 10.3663 23.9275 9.0526 22.3083 9.0526C21.8418 9.0526 21.3816 9.16376 20.9671 9.37701L20.934 9.39406L20.3435 8.44632H15.6554ZM16.1764 8.85063H19.8234L18.2343 11.2135L18.206 11.2054C18.1391 11.1863 18.0699 11.177 17.9991 11.177C17.9299 11.177 17.8608 11.1862 17.7939 11.2054L17.7656 11.2136L16.1764 8.85063ZM16.3284 8.93154L17.8002 11.12C17.8656 11.1038 17.9325 11.096 17.9991 11.096C18.0671 11.096 18.1342 11.1038 18.1997 11.12L19.6714 8.93154H16.3284ZM20.2111 8.99854L20.5908 9.60749L20.5609 9.62972C19.8742 10.1395 19.4442 10.9235 19.3826 11.7764L19.3799 11.8139H18.7407L18.7343 11.7813C18.7115 11.665 18.6617 11.5553 18.5883 11.463L18.5698 11.4398L20.2111 8.99854ZM18.6697 11.4363C18.7349 11.5249 18.7812 11.6262 18.8066 11.733H19.3048C19.3769 10.8836 19.8046 10.1038 20.4828 9.58719L20.2085 9.14735L18.6697 11.4363ZM13.6915 9.53848C12.3405 9.53848 11.2434 10.6346 11.2434 11.9861C11.2434 13.3371 12.3406 14.4337 13.6915 14.4337C15.0424 14.4337 16.139 13.3371 16.139 11.9861C16.139 11.2399 15.7986 10.5355 15.2166 10.0715L13.9318 12.1351C13.8802 12.2182 13.7899 12.2692 13.6915 12.2692C13.5345 12.2692 13.4084 12.1421 13.4084 11.9861C13.4084 11.9328 13.4232 11.8812 13.4501 11.8367L14.7353 9.77184C14.4089 9.61825 14.0529 9.53848 13.6915 9.53848ZM11.1625 11.9861C11.1625 10.5899 12.2959 9.45757 13.6915 9.45757C14.0802 9.45757 14.4629 9.54693 14.8113 9.71867L14.8514 9.73841L13.5194 11.8786C13.5 11.9106 13.4893 11.9479 13.4893 11.9861C13.4893 12.0976 13.5793 12.1883 13.6915 12.1883C13.7615 12.1883 13.826 12.152 13.863 12.0924L15.1953 9.95262L15.2307 9.9798C15.8541 10.4585 16.2199 11.1998 16.2199 11.9861C16.2199 13.3818 15.0871 14.5146 13.6915 14.5146C12.2959 14.5146 11.1625 13.3818 11.1625 11.9861ZM21.2639 9.77189L22.3146 11.4597C22.6016 11.4631 22.8334 11.6978 22.8334 11.9861C22.8334 12.2757 22.5983 12.5119 22.3083 12.5119C22.1414 12.5119 21.9849 12.4326 21.886 12.2993H19.8801C20.0378 13.5171 21.0753 14.4337 22.3083 14.4337C23.6592 14.4337 24.755 13.337 24.7549 11.9862C24.7549 10.6346 23.6591 9.53854 22.3083 9.53854C21.9468 9.53854 21.5901 9.61832 21.2639 9.77189ZM21.1878 9.71873C21.536 9.54698 21.9195 9.45763 22.3083 9.45763C23.7038 9.45763 24.8358 10.5899 24.8358 11.9862C24.8359 13.3817 23.7039 14.5146 22.3083 14.5146C21.0189 14.5146 19.9365 13.5443 19.7943 12.2633L19.7893 12.2184H21.9283L21.9404 12.2361C22.0231 12.358 22.1609 12.431 22.3083 12.431C22.5534 12.431 22.7525 12.2312 22.7525 11.9861C22.7525 11.7401 22.5534 11.5406 22.3083 11.5406L22.3017 11.5406L22.2999 11.5407L22.273 11.546L21.1478 9.73849L21.1878 9.71873ZM20.8045 9.95271L21.9632 11.8139H19.7853L19.789 11.77C19.8494 11.0616 20.2055 10.412 20.7691 9.97984L20.8045 9.95271ZM19.8738 11.733H21.8176L20.7832 10.0715C20.2694 10.4805 19.9414 11.0792 19.8738 11.733Z" fill="#B7B7B7"/>
<path d="M10.1367 23.3301C9.70703 23.2051 9.37109 22.9785 9.12891 22.6504C8.88672 22.3223 8.76562 21.9258 8.76562 21.4609C8.76562 20.9375 8.91016 20.4902 9.19922 20.1191C9.45312 19.7988 9.79687 19.5625 10.2305 19.4102C10.5703 19.293 10.9336 19.2344 11.3203 19.2344C11.7148 19.2344 12.082 19.293 12.4219 19.4102C12.7617 19.5273 13.0371 19.6914 13.248 19.9023C13.6582 20.3047 13.8633 20.8086 13.8633 21.4141C13.8633 21.8867 13.748 22.2871 13.5176 22.6152C13.2871 22.9395 12.9492 23.1777 12.5039 23.3301C12.8945 23.4316 13.1973 23.5684 13.4121 23.7402C13.9434 24.1582 14.209 24.7383 14.209 25.4805C14.209 26.1133 14.0566 26.6523 13.752 27.0977C13.248 27.832 12.4336 28.1992 11.3086 28.1992C10.4023 28.1992 9.68945 27.9492 9.16992 27.4492C8.67773 26.9688 8.43164 26.3418 8.43164 25.5684C8.43164 24.9902 8.58008 24.5059 8.87695 24.1152C9.17773 23.7207 9.59766 23.459 10.1367 23.3301ZM11.2969 19.9082C10.7578 19.9082 10.3262 20.0527 10.002 20.3418C9.67773 20.6309 9.51562 21.0156 9.51562 21.4961C9.51562 21.9648 9.67578 22.3359 9.99609 22.6094C10.3359 22.8984 10.7812 23.043 11.332 23.043C11.9141 23.043 12.3633 22.8887 12.6797 22.5801C12.9687 22.2949 13.1133 21.9297 13.1133 21.4844C13.1133 21.0859 13.0098 20.7559 12.8027 20.4941C12.4902 20.1035 11.9883 19.9082 11.2969 19.9082ZM11.2676 23.6641C10.666 23.6641 10.1699 23.8398 9.7793 24.1914C9.40039 24.5313 9.21094 24.9863 9.21094 25.5566C9.21094 26.1777 9.42187 26.6699 9.84375 27.0332C10.2227 27.3613 10.7148 27.5254 11.3203 27.5254C12.0234 27.5254 12.5586 27.3223 12.9258 26.916C13.2617 26.5488 13.4297 26.0977 13.4297 25.5625C13.4297 24.832 13.1387 24.3008 12.5566 23.9688C12.1973 23.7656 11.7676 23.6641 11.2676 23.6641ZM16.8164 23.3301C16.3867 23.2051 16.0508 22.9785 15.8086 22.6504C15.5664 22.3223 15.4453 21.9258 15.4453 21.4609C15.4453 20.9375 15.5898 20.4902 15.8789 20.1191C16.1328 19.7988 16.4766 19.5625 16.9102 19.4102C17.25 19.293 17.6133 19.2344 18 19.2344C18.3945 19.2344 18.7617 19.293 19.1016 19.4102C19.4414 19.5273 19.7168 19.6914 19.9277 19.9023C20.3379 20.3047 20.543 20.8086 20.543 21.4141C20.543 21.8867 20.4277 22.2871 20.1973 22.6152C19.9668 22.9395 19.6289 23.1777 19.1836 23.3301C19.5742 23.4316 19.877 23.5684 20.0918 23.7402C20.623 24.1582 20.8887 24.7383 20.8887 25.4805C20.8887 26.1133 20.7363 26.6523 20.4316 27.0977C19.9277 27.832 19.1133 28.1992 17.9883 28.1992C17.082 28.1992 16.3691 27.9492 15.8496 27.4492C15.3574 26.9688 15.1113 26.3418 15.1113 25.5684C15.1113 24.9902 15.2598 24.5059 15.5566 24.1152C15.8574 23.7207 16.2773 23.459 16.8164 23.3301ZM17.9766 19.9082C17.4375 19.9082 17.0059 20.0527 16.6816 20.3418C16.3574 20.6309 16.1953 21.0156 16.1953 21.4961C16.1953 21.9648 16.3555 22.3359 16.6758 22.6094C17.0156 22.8984 17.4609 23.043 18.0117 23.043C18.5937 23.043 19.043 22.8887 19.3594 22.5801C19.6484 22.2949 19.793 21.9297 19.793 21.4844C19.793 21.0859 19.6895 20.7559 19.4824 20.4941C19.1699 20.1035 18.668 19.9082 17.9766 19.9082ZM17.9473 23.6641C17.3457 23.6641 16.8496 23.8398 16.459 24.1914C16.0801 24.5313 15.8906 24.9863 15.8906 25.5566C15.8906 26.1777 16.1016 26.6699 16.5234 27.0332C16.9023 27.3613 17.3945 27.5254 18 27.5254C18.7031 27.5254 19.2383 27.3223 19.6055 26.916C19.9414 26.5488 20.1094 26.0977 20.1094 25.5625C20.1094 24.832 19.8184 24.3008 19.2363 23.9688C18.877 23.7656 18.4473 23.6641 17.9473 23.6641ZM23.4961 23.3301C23.0664 23.2051 22.7305 22.9785 22.4883 22.6504C22.2461 22.3223 22.125 21.9258 22.125 21.4609C22.125 20.9375 22.2695 20.4902 22.5586 20.1191C22.8125 19.7988 23.1562 19.5625 23.5898 19.4102C23.9297 19.293 24.293 19.2344 24.6797 19.2344C25.0742 19.2344 25.4414 19.293 25.7812 19.4102C26.1211 19.5273 26.3965 19.6914 26.6074 19.9023C27.0176 20.3047 27.2227 20.8086 27.2227 21.4141C27.2227 21.8867 27.1074 22.2871 26.877 22.6152C26.6465 22.9395 26.3086 23.1777 25.8633 23.3301C26.2539 23.4316 26.5566 23.5684 26.7715 23.7402C27.3027 24.1582 27.5684 24.7383 27.5684 25.4805C27.5684 26.1133 27.416 26.6523 27.1113 27.0977C26.6074 27.832 25.793 28.1992 24.668 28.1992C23.7617 28.1992 23.0488 27.9492 22.5293 27.4492C22.0371 26.9688 21.791 26.3418 21.791 25.5684C21.791 24.9902 21.9395 24.5059 22.2363 24.1152C22.5371 23.7207 22.957 23.459 23.4961 23.3301ZM24.6562 19.9082C24.1172 19.9082 23.6855 20.0527 23.3613 20.3418C23.0371 20.6309 22.875 21.0156 22.875 21.4961C22.875 21.9648 23.0352 22.3359 23.3555 22.6094C23.6953 22.8984 24.1406 23.043 24.6914 23.043C25.2734 23.043 25.7227 22.8887 26.0391 22.5801C26.3281 22.2949 26.4727 21.9297 26.4727 21.4844C26.4727 21.0859 26.3691 20.7559 26.1621 20.4941C25.8496 20.1035 25.3477 19.9082 24.6562 19.9082ZM24.627 23.6641C24.0254 23.6641 23.5293 23.8398 23.1387 24.1914C22.7598 24.5313 22.5703 24.9863 22.5703 25.5566C22.5703 26.1777 22.7812 26.6699 23.2031 27.0332C23.582 27.3613 24.0742 27.5254 24.6797 27.5254C25.3828 27.5254 25.918 27.3223 26.2852 26.916C26.6211 26.5488 26.7891 26.0977 26.7891 25.5625C26.7891 24.832 26.498 24.3008 25.916 23.9688C25.5566 23.7656 25.127 23.6641 24.627 23.6641Z" fill="#8D8D8D"/>
</svg>
