<svg width="10" height="26" viewBox="0 0 10 26" fill="none" xmlns="http://www.w3.org/2000/svg">
  <path d="M1.31934 19.5937C1.88088 19.5937 2.33704 19.1389 2.33704 18.576C2.33704 18.0145 1.88088 17.5583 1.31934 17.5583C0.756475 17.5583 0.301645 18.0145 0.301645 18.576C0.300311 19.1389 0.756475 19.5937 1.31934 19.5937Z" fill="#686868"/>
  <path d="M8.73267 19.5937C9.29554 19.5937 9.75037 19.1389 9.75037 18.576C9.75037 18.0145 9.29421 17.5583 8.73267 17.5583C8.1698 17.5583 7.71497 18.0145 7.71497 18.576C7.71497 19.1389 8.17114 19.5937 8.73267 19.5937Z" fill="#686868"/>
  <path d="M1.26866 8.76181C1.83019 8.76181 2.28636 8.30565 2.28636 7.74411C2.28636 7.18124 1.83019 6.72641 1.26866 6.72641C0.70579 6.72641 0.249626 7.18258 0.249626 7.74411C0.249626 8.30565 0.70579 8.76181 1.26866 8.76181Z" fill="#686868"/>
  <path d="M8.702 8.76181C9.26353 8.76181 9.71969 8.30565 9.71969 7.74411C9.71969 7.18124 9.26353 6.72641 8.702 6.72641C8.13913 6.72641 7.6843 7.18258 7.6843 7.74411C7.6843 8.30565 8.14046 8.76181 8.702 8.76181Z" fill="#686868"/>
  <path d="M6.40117 25.4305L7.25347 26L2.55045 2.36618L2.54512 2.36752L2.5051 2.2368C2.45442 2.08208 2.3984 2.01139 2.23167 1.73529C2.06494 1.45919 1.81686 1.18976 1.45806 0.98302C1.09926 0.774945 0.631097 0.718925 0.631097 0.718925C0.631097 0.718925 0.435026 0.842969 0.516389 0.888319C0.596417 0.933668 1.33668 1.45786 1.51141 1.72195C1.68614 1.98605 1.83286 2.50757 1.83286 2.50757L1.92756 2.49023L1.83686 2.5089L3.84825 12.6072L3.64018 12.6472L3.38809 12.87L3.15067 13.0393L3.01595 13.4848L2.91592 14.1704L2.17832 15.2508L1.53676 15.3762L1.76484 16.5406L4.51916 16.0017" fill="#686868"/>
  <path d="M9.25819 15.0774L9.03145 13.9143L8.38988 14.0384L7.29882 13.3154L6.94803 12.7166L6.65459 12.3551L6.37049 12.2871L6.05304 12.1764L5.88498 12.2097L3.87493 2.11409C3.87493 2.11409 3.82424 1.57123 3.88693 1.26179C3.94962 0.951008 4.4378 0.189401 4.49515 0.114708C4.55251 0.0426819 4.32309 0 4.32309 0C4.32309 0 3.91094 0.228082 3.65618 0.554866C3.40142 0.882984 3.27338 1.22577 3.22269 1.54322C3.17068 1.862 3.148 1.9487 3.15867 2.11142L3.16934 2.26081H3.16667L7.87103 25.896L8.43923 25.033L6.56123 15.6029L9.25819 15.0774Z" fill="#686868"/>
</svg>
