<svg width="24" height="14" viewBox="0 0 24 14" fill="none" xmlns="http://www.w3.org/2000/svg">
  <path d="M22.9227 10.2817C22.92 10.279 15.5467 6.82304 15.5467 6.82304C14.7293 6.34304 14.1707 5.46971 14.1333 4.46171V2.17904C14.1333 1.01104 13.1773 0.0537109 12.0093 0.0537109C10.84 0.0537109 9.88533 1.00971 9.88533 2.17904V2.26838C9.88533 2.31104 9.92 2.34704 9.964 2.34704H10.984C11.0267 2.34704 11.0627 2.31238 11.0627 2.26838V2.17904C11.0627 1.65638 11.4867 1.23238 12.0093 1.23238C12.5307 1.23238 12.956 1.65638 12.956 2.17904V9.09104C12.956 9.61504 12.532 10.039 12.008 10.039C11.4853 10.039 11.0613 9.61504 11.0613 9.09104C11.0613 9.08571 11.0627 9.07904 11.0627 9.07371V4.38704C11.0627 4.34438 11.028 4.30838 10.984 4.30838H9.96267C9.92 4.30838 9.884 4.34438 9.884 4.38704V4.46171L9.88267 4.46304C9.84533 5.47104 9.28667 6.34438 8.468 6.82438C8.468 6.82438 1.07733 10.2804 1.07467 10.283C0.438667 10.5977 0 11.2537 0 12.0137C0 13.0817 0.866667 13.947 1.93333 13.947H22.0653C23.1333 13.947 24 13.0817 24 12.0137C23.9987 11.2537 23.56 10.5977 22.9227 10.2817ZM22.856 12.0137C22.856 12.4457 22.5027 12.799 22.0707 12.799H1.94533C1.51333 12.799 1.16 12.4457 1.16 12.0137C1.16 11.5817 1.51333 11.2284 1.94533 11.2284H22.0707C22.5027 11.2284 22.856 11.5817 22.856 12.0137Z" fill="#686868"/>
</svg>
