<svg width="762" height="194" viewBox="0 0 762 194" fill="none" xmlns="http://www.w3.org/2000/svg">
  <mask id="path-1-inside-1_451_47969" fill="white">
    <path d="M690 122H762V158H690V122Z"/>
  </mask>
  <path d="M690 122H762V158H690V122Z" fill="#F6F6F6"/>
  <path d="M762 157H690V159H762V157Z" fill="#B7B7B7" mask="url(#path-1-inside-1_451_47969)"/>
  <mask id="path-3-inside-2_451_47969" fill="white">
    <path d="M460 122H532V158H460V122Z"/>
  </mask>
  <path d="M460 122H532V158H460V122Z" fill="#F6F6F6"/>
  <path d="M460 123H532V121H460V123Z" fill="#B7B7B7" mask="url(#path-3-inside-2_451_47969)"/>
  <mask id="path-5-inside-3_451_47969" fill="white">
    <path d="M230 122H266V194H230V122Z"/>
  </mask>
  <path d="M230 122H266V194H230V122Z" fill="#F6F6F6"/>
  <path d="M231 194V122H229V194H231Z" fill="#B7B7B7" mask="url(#path-5-inside-3_451_47969)"/>
  <mask id="path-7-inside-4_451_47969" fill="white">
    <path d="M0 122H36V194H0V122Z"/>
  </mask>
  <path d="M0 122H36V194H0V122Z" fill="#F6F6F6"/>
  <path d="M35 122V194H37V122H35Z" fill="#B7B7B7" mask="url(#path-7-inside-4_451_47969)"/>
  <mask id="path-9-inside-5_451_47969" fill="white">
    <path d="M694 0H758V30C758 31.1046 757.105 32 756 32H696C694.895 32 694 31.1046 694 30V0Z"/>
  </mask>
  <path d="M694 0H758V30C758 31.1046 757.105 32 756 32H696C694.895 32 694 31.1046 694 30V0Z" fill="#F6F6F6"/>
  <path d="M694 0H758H694ZM759 30C759 31.6569 757.657 33 756 33H696C694.343 33 693 31.6569 693 30H695C695 30.5523 695.448 31 696 31H756C756.552 31 757 30.5523 757 30H759ZM696 33C694.343 33 693 31.6569 693 30V0H695V30C695 30.5523 695.448 31 696 31V33ZM759 0V30C759 31.6569 757.657 33 756 33V31C756.552 31 757 30.5523 757 30V0H759Z" fill="#B7B7B7" mask="url(#path-9-inside-5_451_47969)"/>
  <mask id="path-11-inside-6_451_47969" fill="white">
    <path d="M464 6C464 4.89543 464.895 4 466 4H526C527.105 4 528 4.89543 528 6V36H464V6Z"/>
  </mask>
  <path d="M464 6C464 4.89543 464.895 4 466 4H526C527.105 4 528 4.89543 528 6V36H464V6Z" fill="#F6F6F6"/>
  <path d="M463 6C463 4.34315 464.343 3 466 3H526C527.657 3 529 4.34315 529 6H527C527 5.44772 526.552 5 526 5H466C465.448 5 465 5.44772 465 6H463ZM528 36H464H528ZM463 36V6C463 4.34315 464.343 3 466 3V5C465.448 5 465 5.44772 465 6V36H463ZM526 3C527.657 3 529 4.34315 529 6V36H527V6C527 5.44772 526.552 5 526 5V3Z" fill="#B7B7B7" mask="url(#path-11-inside-6_451_47969)"/>
  <mask id="path-13-inside-7_451_47969" fill="white">
    <path d="M234 6C234 4.89543 234.895 4 236 4H266V68H236C234.895 68 234 67.1046 234 66V6Z"/>
  </mask>
  <path d="M234 6C234 4.89543 234.895 4 236 4H266V68H236C234.895 68 234 67.1046 234 66V6Z" fill="#F6F6F6"/>
  <path d="M233 6C233 4.34315 234.343 3 236 3H266V5H236C235.448 5 235 5.44772 235 6H233ZM266 69H236C234.343 69 233 67.6569 233 66H235C235 66.5523 235.448 67 236 67H266V69ZM236 69C234.343 69 233 67.6569 233 66V6C233 4.34315 234.343 3 236 3V5C235.448 5 235 5.44772 235 6V66C235 66.5523 235.448 67 236 67V69ZM266 4V68V4Z" fill="#B7B7B7" mask="url(#path-13-inside-7_451_47969)"/>
  <mask id="path-15-inside-8_451_47969" fill="white">
    <path d="M0 4H30C31.1046 4 32 4.89543 32 6V66C32 67.1046 31.1046 68 30 68H0V4Z"/>
  </mask>
  <path d="M0 4H30C31.1046 4 32 4.89543 32 6V66C32 67.1046 31.1046 68 30 68H0V4Z" fill="#F6F6F6"/>
  <path d="M0 3H30C31.6569 3 33 4.34315 33 6H31C31 5.44772 30.5523 5 30 5H0V3ZM33 66C33 67.6569 31.6569 69 30 69H0V67H30C30.5523 67 31 66.5523 31 66H33ZM0 68V4V68ZM30 3C31.6569 3 33 4.34315 33 6V66C33 67.6569 31.6569 69 30 69V67C30.5523 67 31 66.5523 31 66V6C31 5.44772 30.5523 5 30 5V3Z" fill="#B7B7B7" mask="url(#path-15-inside-8_451_47969)"/>
</svg>
