<svg width="20" height="16" viewBox="0 0 20 16" fill="#686868" xmlns="http://www.w3.org/2000/svg">
    <path d="M8.33329 14.6669C8.33329 15.1268 8.70662 15.5 9.16654 15.5H19.1667C19.6266 15.5 19.9999 15.1268 19.9999 14.6669V14.2503H8.3332L8.33329 14.6669Z" />
    <path d="M17.5 5.49999H11.25C11.0199 5.49999 10.8333 5.68691 10.8333 5.91683V12.5837C10.8333 13.0436 11.2067 13.4169 11.6665 13.4169H16.6667C17.1267 13.4169 17.5 13.0436 17.5 12.5837V10.4999C18.8801 10.4999 20 9.38026 20 7.99992C20 6.62025 18.88 5.49999 17.5 5.49999ZM17.5059 9.66684C17.5039 9.66684 17.502 9.66684 17.5 9.66684V6.33341C17.502 6.33341 17.5039 6.33341 17.5059 6.33341C18.4258 6.33341 19.1726 7.08016 19.1726 8C19.1726 8.92009 18.4258 9.66684 17.5059 9.66684Z"/>
    <path d="M7.08328 0.499969H0.416585C0.186501 0.499969 0 0.686887 0 0.916804V5.49999C0 7.261 1.36776 8.71884 3.12501 8.83109V14.2503H0.416585C0.186501 14.2503 0 14.4369 0 14.6669V15.0834C0 15.3134 0.186501 15.5 0.416585 15.5H7.08336C7.31336 15.5 7.49995 15.3134 7.49995 15.0834V14.6669C7.49995 14.4369 7.31336 14.2503 7.08336 14.2503H4.37485V8.83109C6.13211 8.71884 7.49986 7.261 7.49986 5.49999V0.916804C7.49986 0.686887 7.31328 0.499969 7.08328 0.499969Z"/>
</svg>
