<svg width="20" height="20" viewBox="0 0 20 20" fill="#686868" xmlns="http://www.w3.org/2000/svg">
    <path d="M20 19.6667H0V20H20V19.6667Z" />
    <path d="M0 4.75L2.74083 15.3333C2.86667 15.7667 3.2675 16.0833 3.74167 16.0833H5.03167L1.5 4.75H0Z" />
    <path d="M6.08333 9.41667H5C4.77083 9.41667 4.58333 9.60417 4.58333 9.83333V13.5233L5.38083 16.0833H5.66667C6.125 16.0833 6.5 15.7083 6.5 15.25V9.83333C6.5 9.60417 6.3125 9.41667 6.08333 9.41667Z" />
    <path d="M2.41667 3.25C2.5925 3.06583 2.58333 2.97833 2.58333 2.80917V0.416667C2.58333 0.1875 2.39583 0 2.16667 0H0.416667C0.1875 0 0 0.1875 0 0.416667V4.25H1.5L2.41667 3.25Z" />
    <path d="M6.83333 5.74992H6.41658L7.40367 4.77583H6.738L5.51392 6L6.738 7.22408H7.40367L6.41658 6.25H6.83333C8.48742 6.25 9.83308 7.5965 9.83308 9.25158H10.3331C10.3331 7.32075 8.76317 5.74992 6.83333 5.74992Z" />
</svg>
