<svg width="18" height="18" fill="none" viewBox="0 0 18 18" xmlns="http://www.w3.org/2000/svg">
    <path d="M0.411375 18H17.5885C17.8588 18 18.0414 17.7223 17.9328 17.4748C16.9842 15.3123 15.2731 13.5608 13.1401 12.5587C13.0307 12.5074 12.9035 12.5155 12.7978 12.574C11.6856 13.1905 10.3866 13.5452 8.99992 13.5452C7.61325 13.5452 6.31425 13.1905 5.20207 12.574C5.09632 12.5155 4.96912 12.5073 4.8597 12.5587C2.7267 13.5608 1.01557 15.3123 0.0670497 17.4748C-0.0414002 17.7223 0.14115 18 0.411375 18Z" fill="#686868"/>
    <path d="M18 3C18 1.34317 16.6568 0 15 0C14.0225 0 13.1546 0.4677 12.6069 1.19123C11.5565 0.5979 10.3216 0.25575 9 0.25575C7.67842 0.25575 6.44348 0.5979 5.3931 1.19123C4.84538 0.4677 3.9774 0 3 0C1.34317 0 0 1.34317 0 3C0 4.35427 0.897525 5.49848 2.13 5.87138C2.09685 6.12495 2.07937 6.38295 2.07937 6.6447C2.07937 10.1732 5.17785 13.0337 9 13.0337C12.8221 13.0337 15.9205 10.1732 15.9205 6.6447C15.9205 6.38287 15.9031 6.12488 15.8699 5.87138C17.1025 5.49848 18 4.35427 18 3ZM6.06292 7.97377C5.62253 7.97377 5.26552 7.61677 5.26552 7.17637C5.26552 6.73597 5.62253 6.37897 6.06292 6.37897C6.50332 6.37897 6.86032 6.73597 6.86032 7.17637C6.86025 7.61677 6.50325 7.97377 6.06292 7.97377ZM9.7479 11.0254C9.46965 11.0254 9.20377 10.9613 9 10.8472C8.79622 10.9612 8.53035 11.0254 8.2521 11.0254C7.6146 11.0254 7.12012 10.5598 7.12012 10.1592C7.12012 10.0674 7.19452 9.99307 7.28625 9.99307C7.37797 9.99307 7.45237 10.0674 7.45237 10.1592C7.45237 10.3693 7.7958 10.6931 8.2521 10.6931C8.47027 10.6931 8.68087 10.6437 8.83387 10.559V9.5967C8.39948 9.54067 8.0697 9.26977 8.0697 8.94337C8.0697 8.5764 8.48617 8.27887 9 8.27887C9.51375 8.27887 9.9303 8.5764 9.9303 8.94337C9.9303 9.26977 9.60052 9.54067 9.16612 9.5967V10.559C9.31912 10.6437 9.52972 10.6931 9.7479 10.6931C10.2043 10.6931 10.5477 10.3693 10.5477 10.1592C10.5477 10.0674 10.622 9.99307 10.7138 9.99307C10.8056 9.99307 10.8799 10.0674 10.8799 10.1592C10.8799 10.5598 10.3855 11.0254 9.7479 11.0254ZM11.9371 7.97377C11.4967 7.97377 11.1397 7.61677 11.1397 7.17637C11.1397 6.73597 11.4967 6.37897 11.9371 6.37897C12.3775 6.37897 12.7345 6.73597 12.7345 7.17637C12.7345 7.61677 12.3775 7.97377 11.9371 7.97377Z" fill="#686868"/>
</svg>
