<svg width="26" height="14" viewBox="0 0 26 14" fill="#686868" xmlns="http://www.w3.org/2000/svg">
    <path d="M25.2506 0.133896H22.1391C21.7248 0.133896 21.3894 0.469593 21.3894 0.883614V8.31368C21.3894 8.72781 21.7248 9.06351 22.1391 9.06351H25.2506C25.6646 9.06351 26 8.72781 26 8.31368V0.883614C26 0.469593 25.6646 0.133896 25.2506 0.133896ZM23.6878 8.63554C23.5109 8.63235 23.3698 8.48043 23.3737 8.29589C23.3772 8.11079 23.524 7.96425 23.7009 7.96689C23.8785 7.96986 24.0195 8.1221 24.0156 8.30698C24.0122 8.49142 23.8654 8.6385 23.6878 8.63554ZM25.3924 7.39161H21.997V0.974678H25.3924V7.39161Z" />
    <path d="M18.8033 9.83707V9.83509V0.602292C18.8033 0.344037 18.5936 0.133896 18.3353 0.133896H2.38647C2.12821 0.133896 1.91851 0.344037 1.91851 0.602292V9.83509V9.83707L0 13.1697C0 13.1697 0.0353713 13.8673 0.328228 13.8661H20.3934C20.6863 13.8672 20.7217 13.1697 20.7217 13.1697L18.8033 9.83707ZM2.51587 0.731584H18.2059V9.70547H2.51587V0.731584ZM13.263 13.1664H7.45874C7.3657 13.1664 7.31011 13.0933 7.33626 13.0037L7.57408 12.1686C7.59934 12.079 7.69656 12.0056 7.79004 12.0056H12.9316C13.0251 12.0056 13.1223 12.0791 13.1476 12.1686L13.3854 13.0037C13.4117 13.0933 13.3561 13.1664 13.263 13.1664ZM18.9566 11.5952H1.76516C1.67245 11.5952 1.63323 11.5287 1.67794 11.4469L2.22301 10.4542C2.26794 10.3728 2.38021 10.3057 2.47314 10.3057H18.2486C18.3416 10.3057 18.4538 10.3727 18.4988 10.4542L19.0438 11.4469C19.0885 11.5287 19.0493 11.5952 18.9566 11.5952Z" />
</svg>
