    <svg width="16" height="20" viewBox="0 0 16 20" fill="none" xmlns="http://www.w3.org/2000/svg">
    <path d="M7.00488 1.78133C7.00488 2.76516 6.20754 3.5625 5.22371 3.5625C4.23997 3.5625 3.44238 2.76516 3.44238 1.78133C3.44238 0.797428 4.23997 0 5.22371 0C6.20762 0 7.00488 0.797511 7.00488 1.78133Z" fill="#686868"/>
    <path d="M14.9923 16.7826L12.5829 11.118C12.4161 10.7259 12.032 10.4714 11.6058 10.4714H7.49265L7.27197 8.70113H10.6776C11.0361 8.70113 11.3263 8.41054 11.3263 8.05221C11.3263 7.69389 11.0361 7.40297 10.6776 7.40297H7.11033L6.83998 5.23446C6.73921 4.42607 6.00216 3.85242 5.19378 3.95302C4.38539 4.05379 3.81157 4.79084 3.91251 5.59922L4.61937 11.272C4.62782 11.3396 4.65583 11.5119 4.65583 11.5337C4.65583 12.1205 5.13114 12.5957 5.71784 12.5957H10.9035L13.0377 17.6138C13.2097 18.0178 13.6025 18.2603 14.0157 18.2603C14.1542 18.2603 14.2951 18.233 14.4308 18.1754C14.9702 17.9459 15.2217 17.3221 14.9923 16.7826Z" fill="#686868"/>
    <path d="M11.7556 16.0604C10.8796 17.5438 9.26554 18.5399 7.41789 18.5399C4.6371 18.5399 2.38304 16.2856 2.38304 13.505C2.38304 12.1078 2.95252 10.844 3.87161 9.93172L3.671 8.20131C2.009 9.37764 0.922821 11.3139 0.922821 13.505C0.922821 17.0923 3.83081 20 7.41789 20C9.4445 20 11.2539 19.0715 12.4451 17.6171L11.7556 16.0604Z" fill="#686868"/>
</svg>
