<svg width="20" height="16" viewBox="0 0 20 16" fill="none" xmlns="http://www.w3.org/2000/svg">
    <path d="M11.6719 14.3115C11.6719 15.2351 10.9235 15.9835 10.0001 15.9835C9.07691 15.9835 8.32816 15.2351 8.32816 14.3115C8.32816 13.3881 9.07691 12.6397 10.0001 12.6397C10.9235 12.6397 11.6719 13.3881 11.6719 14.3115Z" fill="#686868"/>
    <path d="M14.2562 10.1614C13.0978 9.07742 11.588 8.48023 9.99895 8.48014C8.40473 8.48014 6.90263 9.07609 5.74393 10.1603L7.33272 11.7564C8.06634 11.0939 9.0036 10.7272 9.99895 10.7272C10.9918 10.7273 11.9343 11.0941 12.6679 11.757L14.2562 10.1614Z" fill="#686868"/>
    <path d="M18.4051 6.04019L18.5842 5.87978L20 4.4575C17.4291 1.63486 13.7773 0.0164795 9.9585 0.0164795C6.1838 0.0164795 2.56559 1.60234 0 4.3689L1.58528 5.96145C3.73014 3.61136 6.77849 2.26366 9.9585 2.26366C13.1776 2.26366 16.2561 3.64012 18.4051 6.04019Z" fill="#686868"/>
    <path d="M17.06 7.19463C15.1982 5.28442 12.7095 4.23214 10.0386 4.23214C7.36131 4.23214 4.78594 5.34093 2.94018 7.2763L4.52521 8.86869C5.95099 7.35003 7.95516 6.47932 10.0386 6.47932C12.1089 6.47932 14.0373 7.29887 15.4751 8.78668L17.06 7.19463Z" fill="#686868"/>
</svg>
