<svg width="12" height="20" viewBox="0 0 12 20" fill="none" xmlns="http://www.w3.org/2000/svg">
    <path d="M9.48331 0C8.61483 0 7.91003 0.705605 7.91003 1.57354V11.685H8.80961V18.8758C8.80961 19.4966 9.31189 19.9999 9.93309 19.9999C10.5533 19.9999 11.0565 19.4967 11.0565 18.8758V1.57354C11.0566 0.705605 10.3518 0 9.48331 0Z" fill="#686868"/>
    <path d="M5.3259 0C5.1401 0 4.98954 0.151458 4.98954 0.337252V4.944H4.31495V0.337252C4.31495 0.151458 4.16349 0 3.97761 0C3.79181 0 3.64035 0.151458 3.64035 0.337252V4.944H2.96666V0.337252C2.96666 0.151458 2.81529 0 2.62932 0C2.44352 0 2.29206 0.151458 2.29206 0.337252V4.944H1.61837V0.337252C1.61837 0.151458 1.46691 0 1.28094 0C1.09496 0 0.943504 0.151458 0.943504 0.337252V4.944C0.943504 4.95299 0.943504 4.96072 0.943504 4.96863C0.943504 5.87441 1.41127 6.71457 2.17944 7.19187V18.8759C2.17944 19.4967 2.6837 20 3.30274 20C3.92296 20 4.42749 19.4968 4.42749 18.8759V7.19187C5.19556 6.71457 5.66315 5.87441 5.66315 4.96863C5.66315 4.96072 5.66315 4.95299 5.66315 4.944V0.337252C5.66324 0.151458 5.51187 0 5.3259 0Z" fill="#686868"/>
</svg>
