<svg width="20" height="20" viewBox="0 0 20 20" fill="none" xmlns="http://www.w3.org/2000/svg">
    <path d="M14.5724 1.85589C14.5724 2.87882 13.7415 3.70845 12.7165 3.70845C11.6936 3.70845 10.8641 2.87872 10.8641 1.85589C10.8641 0.830836 11.6936 0 12.7165 0C13.7415 0 14.5724 0.830836 14.5724 1.85589Z" fill="#686868"/>
    <path d="M18.8147 4.27423H11.1736C10.6398 4.24225 10.1068 4.49821 9.80749 4.98669L8.38426 7.30046C8.13599 7.70549 7.87391 8.13722 7.60117 8.58463L7.06672 9.45737C5.6509 11.7794 6.39673 13.679 8.72922 13.679C8.88516 13.679 12.9691 13.679 12.9691 13.679L13.6755 16.671H13.6705C13.6755 16.6868 13.6785 16.7027 13.6825 16.7175C13.6882 16.7341 13.6922 16.7498 13.6963 16.7648L14.3132 19.3721C14.4578 19.7734 14.8551 20.0356 15.2887 19.9961C15.8102 19.9488 16.1965 19.4859 16.1493 18.9633C16.147 18.9467 16.1432 18.9281 16.1403 18.911L14.6423 12.6187C14.5222 12.1802 14.0669 11.8382 13.6146 11.8373H9.98289L13.6683 5.76598H18.8147C19.2288 5.76598 19.5617 5.43307 19.5617 5.01987C19.5617 4.60835 19.2288 4.27423 18.8147 4.27423Z" fill="#686868"/>
    <path d="M19.3015 6.51319H18.3053V19.9736H19.3015V6.51319Z" fill="#686868"/>
    <path d="M11.3632 14.5675H6.04277V14.5713H4.96914C4.78595 14.5713 4.59433 14.4253 4.54705 14.2464L1.46057 2.66383C1.45436 2.64102 1.44611 2.61544 1.43498 2.58763L1.36888 2.33546C1.30102 2.08386 1.04107 1.93349 0.790392 2.00014C0.537674 2.06763 0.386563 2.32768 0.454609 2.57993L3.14069 12.6678C3.14375 12.6674 3.14375 12.6674 3.14375 12.6674L3.81986 15.1943C3.86695 15.3723 4.05811 15.5179 4.24093 15.5179H11.0333C11.0488 15.5179 11.0699 15.5158 11.0871 15.5146H11.3632C11.6255 15.5146 11.8363 15.3033 11.8363 15.0419C11.8363 14.7792 11.6255 14.5675 11.3632 14.5675Z" fill="#686868"/>
</svg>
