<svg width="22" height="20" viewBox="0 0 22 20" fill="none" xmlns="http://www.w3.org/2000/svg">
    <path d="M11.2496 19.9914C11.1359 19.9914 11.0437 19.8993 11.0437 19.7855V0.214627C11.0437 0.100866 11.1359 0.00867503 11.2496 0.00867503C11.3634 0.00867503 11.4556 0.100866 11.4556 0.214627V19.7855C11.4556 19.8993 11.3634 19.9914 11.2496 19.9914Z" fill="#686868"/>
    <path d="M15.9279 1.66585C15.9279 0.746524 16.6742 0.000249651 17.5939 0.000249651C18.513 0.000249651 19.2593 0.746524 19.2593 1.66585C19.2593 2.58519 18.513 3.33146 17.5939 3.33146C16.6741 3.33146 15.9279 2.58519 15.9279 1.66585Z" fill="#686868"/>
    <path d="M21.2436 5.42612V11.0789C21.2436 11.4064 20.9777 11.6721 20.6502 11.6721C20.3225 11.6721 20.0568 11.4064 20.0568 11.0789V6.25893H19.5363V19.1465C19.5363 19.6175 19.1539 20 18.6824 20C18.2113 20 17.8288 19.6175 17.8288 19.1465V11.6512H17.2879V19.1465C17.2879 19.6175 16.9055 20 16.434 20C15.9629 20 15.5804 19.6175 15.5804 19.1465V6.25901H15.0599V11.0789C15.0599 11.4065 14.7942 11.6721 14.4664 11.6721C14.139 11.6721 13.8732 11.4065 13.8732 11.0789V5.42621C13.8732 4.50688 14.6193 3.7606 15.5388 3.7606H19.5778C20.4976 3.76052 21.2436 4.50679 21.2436 5.42612Z" fill="#686868"/>
    <path d="M8.76318 10.7884C8.84912 11.0216 9.07131 11.1767 9.31982 11.1767C9.64753 11.1767 9.91319 10.9109 9.91319 10.5833C9.91319 10.5132 9.90095 10.4438 9.87672 10.378L7.84026 4.85016C7.59892 4.19524 6.9749 3.76035 6.27718 3.76035H4.39246C3.69474 3.76035 3.07097 4.19524 2.82946 4.85016L0.792924 10.378C0.768606 10.4438 0.756447 10.5132 0.756447 10.5833C0.756447 10.9109 1.02211 11.1767 1.34982 11.1767C1.59824 11.1767 1.82035 11.0216 1.90638 10.7884L3.57532 6.25884H4.12988L1.21524 14.1704H3.35662V19.1465C3.35662 19.6176 3.73938 19.9997 4.2105 19.9997C4.68186 19.9997 5.06412 19.6176 5.06412 19.1465V14.1704H5.60544V19.1465C5.60544 19.6176 5.98786 19.9997 6.45906 19.9997C6.93051 19.9997 7.31293 19.6176 7.31293 19.1465V14.1704H9.45465L6.53968 6.25884H7.09457L8.76318 10.7884Z" fill="#686868"/>
    <path d="M6.96632 1.66577C6.96632 0.746274 6.21988 0 5.30047 0C4.38122 0 3.63495 0.746274 3.63495 1.66577C3.63495 2.5851 4.38122 3.33121 5.30047 3.33121C6.21996 3.33121 6.96632 2.5851 6.96632 1.66577Z" fill="#686868"/>
</svg>
