<svg width="16" height="20" viewBox="0 0 16 20" fill="none" xmlns="http://www.w3.org/2000/svg">
    <path d="M5.6634 0.809569C5.31372 0.542543 4.87863 0.382477 4.40426 0.382477C3.98683 0.382477 3.59927 0.506584 3.27331 0.717841L0.341934 2.40973H5.66331L5.6634 0.809569Z" fill="#686868"/>
    <path d="M8.58495 5.18104C10.5713 4.90153 12.3768 4.06108 13.8382 2.82575H8.58495V5.18104Z" fill="#686868"/>
    <path d="M8.58495 2.40965H13.9067L10.9759 0.717425C10.6503 0.506168 10.2617 0.382394 9.84426 0.382394C9.37005 0.382394 8.93472 0.542543 8.58495 0.809486V2.40965Z" fill="#686868"/>
    <path d="M5.6634 2.82575H0.410605C1.87167 4.06108 3.67751 4.90153 5.66348 5.18104L5.6634 2.82575Z" fill="#686868"/>
    <path d="M14.6176 7.86321C14.0432 7.86321 13.5772 8.32917 13.5772 8.90335V11.6219H13.1603V7.64587C13.1603 7.07145 12.6946 6.60582 12.1199 6.60582C11.5451 6.60582 11.0795 7.07145 11.0795 7.64587V10.8093H10.6626V6.81583C10.6626 6.24107 10.197 5.77561 9.62226 5.77561C9.04767 5.77561 8.58154 6.24107 8.58154 6.81583V9.9533H8.16485V1.04064C8.16485 0.465881 7.69939 0 7.1243 0C6.54988 0 6.08391 0.465881 6.08391 1.04064V12.4866H5.66706L5.66565 12.4875V9.81496C5.66565 9.15431 5.25021 8.56615 4.62684 8.34599C4.54427 8.31719 4.45703 8.30195 4.36714 8.30195C3.9383 8.3017 3.58912 8.65114 3.58912 9.08047V14.1011L3.58604 14.1036C3.58604 14.6229 3.69358 15.1595 3.86663 15.5771C4.03943 15.9946 5.69819 20 5.69819 20L14.3293 19.9991L15.3945 17.4161C15.5707 16.9557 15.6581 16.4677 15.6581 15.9453C15.6581 15.8743 15.6581 8.90335 15.6581 8.90335C15.658 8.32917 15.1924 7.86321 14.6176 7.86321Z" fill="#686868"/>
</svg>
