<svg width="20" height="20" viewBox="0 0 20 20" fill="none" xmlns="http://www.w3.org/2000/svg">
<path fill-rule="evenodd" clip-rule="evenodd" d="M16.0166 2.9375C17.6817 2.93774 19.0291 4.2884 19.0293 5.95801H19.0479C19.0479 7.31823 18.1401 8.47228 16.9053 8.84766C16.9333 9.10096 16.9521 9.36427 16.9521 9.62695C16.952 13.1825 13.836 16.0625 10 16.0625C6.16399 16.0625 3.04803 13.1825 3.04785 9.62695C3.04785 9.36427 3.0573 9.10096 3.09473 8.84766C1.8505 8.47228 0.952148 7.31823 0.952148 5.95801C0.952363 4.28835 2.29968 2.93766 3.96484 2.9375C4.94726 2.9375 5.81809 3.4069 6.37012 4.13867C7.41789 3.54774 8.66185 3.20027 9.99023 3.2002C11.3188 3.2002 12.5541 3.53826 13.6113 4.13867C14.1634 3.4069 15.0342 2.9375 16.0166 2.9375ZM9.98145 9.03516C7.91369 9.03516 6.23828 10.2932 6.23828 11.8506C6.23862 13.4077 7.91389 14.665 9.98145 14.665C12.0489 14.665 13.7233 13.4077 13.7236 11.8506C13.7236 10.2933 12.0491 9.03522 9.98145 9.03516ZM9.98145 9.97363C10.7564 9.97372 11.3847 10.6038 11.3848 11.3809C11.3848 12.158 10.7565 12.788 9.98145 12.7881C9.20634 12.7881 8.57812 12.1581 8.57812 11.3809C8.57822 10.6037 9.20639 9.97363 9.98145 9.97363ZM7.1748 6.69043C6.66034 6.69043 6.23851 7.11213 6.23828 7.62793C6.23828 8.14392 6.6602 8.56641 7.1748 8.56641C7.68921 8.56617 8.11035 8.14378 8.11035 7.62793C8.11012 7.11227 7.68907 6.69067 7.1748 6.69043ZM13.2559 6.69043C12.7415 6.69052 12.3205 7.11218 12.3203 7.62793C12.3203 8.14387 12.7413 8.56632 13.2559 8.56641C13.7705 8.56641 14.1914 8.14392 14.1914 7.62793C14.1912 7.11213 13.7703 6.69043 13.2559 6.69043Z" fill="#212121"/>
</svg>
