<svg width="20" height="20" viewBox="0 0 20 20" fill="none" xmlns="http://www.w3.org/2000/svg">
<path d="M8.03003 13C9.13003 13 10.03 13.9 10.03 15C10.03 16.1 9.13003 17 8.03003 17C6.93003 17 6.03003 16.1 6.03003 15C6.03003 13.9 6.93003 13 8.03003 13ZM14.03 13C15.13 13 16.03 13.9 16.03 15C16.03 16.1 15.13 17 14.03 17C12.93 17 12.03 16.1 12.03 15C12.03 13.9 12.93 13 14.03 13ZM8.03003 14C7.48003 14 7.03003 14.45 7.03003 15C7.03003 15.55 7.48003 16 8.03003 16C8.58003 16 9.03003 15.55 9.03003 15C9.03003 14.45 8.58003 14 8.03003 14ZM14.03 14C13.48 14 13.03 14.45 13.03 15C13.03 15.55 13.48 16 14.03 16C14.58 16 15.03 15.55 15.03 15C15.03 14.45 14.58 14 14.03 14ZM16.99 8.29688C16.7541 9.76089 15.9582 10.8937 15.03 12H7.03003C6.04003 10.82 5.21003 9.61 5.03003 8L16.99 8.29688ZM7.03003 7H3.53003C3.25003 7 3.03003 6.78 3.03003 6.5C3.03003 6.22 3.25003 6 3.53003 6H7.03003V7ZM14.2097 3C15.6497 3.82999 16.6797 5.29002 16.9597 7H11.9001L14.2097 3Z" fill="black" fill-opacity="0.9"/>
</svg>
