<svg width="20" height="20" viewBox="0 0 20 20" fill="none" xmlns="http://www.w3.org/2000/svg">
<path d="M6.72949 10.2002C6.27375 10.7602 5.98633 11.4701 5.98633 12.25C5.98634 14.0399 7.43324 15.4999 9.20703 15.5C10.4755 15.5 11.5656 14.7497 12.0908 13.6797L12.7051 15.3799V15.3896C11.8429 16.3696 10.6043 17 9.20703 17C6.61072 16.9999 4.50001 14.8699 4.5 12.25C4.5 10.5502 5.39187 9.07051 6.72949 8.23047V10.2002ZM9.20703 6.25C10.0295 6.25 10.6934 6.92 10.6934 7.75V10.5H13.2207C13.6369 10.5 14.0136 10.7602 14.1523 11.1602L15.4404 14.7402C15.6682 15.3502 15.2124 16 14.5684 16C14.1819 16 13.835 15.7499 13.6963 15.3799L12.834 13H9.20703C8.38458 12.9999 7.7207 12.3299 7.7207 11.5V7.75C7.7207 6.92005 8.38458 6.25008 9.20703 6.25ZM9.21875 3C9.90897 3.00016 10.4688 3.55974 10.4688 4.25C10.4688 4.94026 9.90897 5.49984 9.21875 5.5C8.52839 5.5 7.96875 4.94036 7.96875 4.25C7.96875 3.55964 8.52839 3 9.21875 3Z" fill="black"/>
</svg>
