<svg width="20" height="20" viewBox="0 0 20 20" fill="none" xmlns="http://www.w3.org/2000/svg">
<path d="M15.5357 8.09375C14.9714 8.09375 14.4429 8.22438 13.9643 8.4375L13.3929 7.59875V6.71875H15V5.6875H12.3214V7.23438H8.20715L7.92858 6.71875H8.57144V5.6875H5.7143V6.71875H6.72144L7.22858 7.6675L6.40001 8.63C5.82858 8.29313 5.17144 8.09375 4.45715 8.09375C2.39287 8.09375 0.707153 9.70937 0.707153 11.7031C0.707153 13.6969 2.39287 15.3125 4.45715 15.3125C6.34287 15.3125 7.89287 13.965 8.15001 12.2188H10.2714L12.8357 8.67125L13.0643 9.00812C12.2857 9.66812 11.7786 10.6306 11.7786 11.7031C11.7786 13.6969 13.4643 15.3125 15.5286 15.3125C17.5929 15.3125 19.2786 13.6969 19.2786 11.7031C19.2786 9.70937 17.5929 8.09375 15.5286 8.09375H15.5357ZM9.12144 11.1875H8.15715C8.05001 10.4588 7.72144 9.80562 7.22858 9.29L7.7643 8.66437L9.1143 11.1875H9.12144ZM6.54287 10.0944C6.80715 10.4106 7.00715 10.775 7.09287 11.1875H5.60715L6.54287 10.0944ZM4.4643 14.2812C2.98572 14.2812 1.78572 13.1262 1.78572 11.7031C1.78572 10.28 2.98572 9.125 4.4643 9.125C4.92144 9.125 5.33572 9.24187 5.7143 9.43437L3.32858 12.2188H7.09287C6.84287 13.3944 5.7643 14.2812 4.47144 14.2812H4.4643ZM10.0714 10.7063L8.7643 8.26562H11.8357L10.0714 10.7063ZM15.5357 14.2812C14.0572 14.2812 12.8572 13.1262 12.8572 11.7031C12.8572 10.9881 13.1643 10.3419 13.6572 9.87438L15.0929 11.985L15.9929 11.4213L14.5643 9.31063C14.8714 9.19375 15.2 9.125 15.5429 9.125C17.0214 9.125 18.2214 10.28 18.2214 11.7031C18.2214 13.1262 17.0214 14.2812 15.5429 14.2812H15.5357Z" fill="black"/>
</svg>
