<svg width="20" height="20" viewBox="0 0 20 20" fill="none" xmlns="http://www.w3.org/2000/svg">
<path d="M5.3726 6.87875C6.09004 6.46453 6.33585 5.54715 5.92164 4.82971C5.50742 4.11227 4.59004 3.86646 3.8726 4.28067C3.15516 4.69489 2.90935 5.61227 3.32356 6.32971C3.73777 7.04715 4.65516 7.29296 5.3726 6.87875Z" fill="black"/>
<path d="M1.66511 8.50082C1.92437 8.17778 2.39642 8.12608 2.71946 8.38534L9.85043 14.1084L14.6023 11.365C14.961 11.1579 15.4197 11.2808 15.6268 11.6395C15.8339 11.9982 15.711 12.4569 15.3523 12.664L9.7118 15.9205L1.78059 9.55518C1.45755 9.29592 1.40585 8.82387 1.66511 8.50082Z" fill="black"/>
<path d="M5.36646 9.54138C4.83828 9.12577 4.89688 8.30812 5.47893 7.97208L6.66199 7.28904C7.10464 7.03347 7.65829 7.07315 8.05998 7.38923L11.627 10.196L15.0669 8.20997L18.3829 10.5513C18.7213 10.7903 18.8019 11.2582 18.563 11.5966C18.3241 11.935 17.8561 12.0156 17.5178 11.7767L14.9857 9.98888L9.76541 13.0028L5.36646 9.54138Z" fill="black"/>
</svg>
