<svg width="320" height="320" viewBox="0 0 320 320" fill="none" xmlns="http://www.w3.org/2000/svg">
<g filter="url(#filter0_i_6_197)">
<g clip-path="url(#clip0_6_197)">
<rect opacity="0.3" width="20" height="20" fill="#D2D2D2"/>
<rect opacity="0.3" x="20" width="20" height="20" fill="white"/>
<rect opacity="0.3" x="40" width="20" height="20" fill="#D2D2D2"/>
<rect opacity="0.3" x="60" width="20" height="20" fill="white"/>
<rect opacity="0.3" x="80" width="20" height="20" fill="#D2D2D2"/>
<rect opacity="0.3" x="100" width="20" height="20" fill="white"/>
<rect opacity="0.3" x="120" width="20" height="20" fill="#D2D2D2"/>
<rect opacity="0.3" x="140" width="20" height="20" fill="white"/>
<rect opacity="0.3" x="160" width="20" height="20" fill="#D2D2D2"/>
<rect opacity="0.3" x="180" width="20" height="20" fill="white"/>
<rect opacity="0.3" x="200" width="20" height="20" fill="#D2D2D2"/>
<rect opacity="0.3" x="220" width="20" height="20" fill="white"/>
<rect opacity="0.3" x="240" width="20" height="20" fill="#D2D2D2"/>
<rect opacity="0.3" x="260" width="20" height="20" fill="white"/>
<rect opacity="0.3" x="280" width="20" height="20" fill="#D2D2D2"/>
<rect opacity="0.3" x="300" width="20" height="20" fill="white"/>
<rect opacity="0.3" y="20" width="20" height="20" fill="white"/>
<rect opacity="0.3" x="20" y="20" width="20" height="20" fill="#D2D2D2"/>
<rect opacity="0.3" x="40" y="20" width="20" height="20" fill="white"/>
<rect opacity="0.3" x="60" y="20" width="20" height="20" fill="#D2D2D2"/>
<rect opacity="0.3" x="80" y="20" width="20" height="20" fill="white"/>
<rect opacity="0.3" x="100" y="20" width="20" height="20" fill="#D2D2D2"/>
<rect opacity="0.3" x="120" y="20" width="20" height="20" fill="white"/>
<rect opacity="0.3" x="140" y="20" width="20" height="20" fill="#D2D2D2"/>
<rect opacity="0.3" x="160" y="20" width="20" height="20" fill="white"/>
<rect opacity="0.3" x="180" y="20" width="20" height="20" fill="#D2D2D2"/>
<rect opacity="0.3" x="200" y="20" width="20" height="20" fill="white"/>
<rect opacity="0.3" x="220" y="20" width="20" height="20" fill="#D2D2D2"/>
<rect opacity="0.3" x="240" y="20" width="20" height="20" fill="white"/>
<rect opacity="0.3" x="260" y="20" width="20" height="20" fill="#D2D2D2"/>
<rect opacity="0.3" x="280" y="20" width="20" height="20" fill="white"/>
<rect opacity="0.3" x="300" y="20" width="20" height="20" fill="#D2D2D2"/>
<rect opacity="0.3" y="40" width="20" height="20" fill="#D2D2D2"/>
<rect opacity="0.3" x="20" y="40" width="20" height="20" fill="white"/>
<rect opacity="0.3" x="40" y="40" width="20" height="20" fill="#D2D2D2"/>
<rect opacity="0.3" x="60" y="40" width="20" height="20" fill="white"/>
<rect opacity="0.3" x="80" y="40" width="20" height="20" fill="#D2D2D2"/>
<rect opacity="0.3" x="100" y="40" width="20" height="20" fill="white"/>
<rect opacity="0.3" x="120" y="40" width="20" height="20" fill="#D2D2D2"/>
<rect opacity="0.3" x="140" y="40" width="20" height="20" fill="white"/>
<rect opacity="0.3" x="160" y="40" width="20" height="20" fill="#D2D2D2"/>
<rect opacity="0.3" x="180" y="40" width="20" height="20" fill="white"/>
<rect opacity="0.3" x="200" y="40" width="20" height="20" fill="#D2D2D2"/>
<rect opacity="0.3" x="220" y="40" width="20" height="20" fill="white"/>
<rect opacity="0.3" x="240" y="40" width="20" height="20" fill="#D2D2D2"/>
<rect opacity="0.3" x="260" y="40" width="20" height="20" fill="white"/>
<rect opacity="0.3" x="280" y="40" width="20" height="20" fill="#D2D2D2"/>
<rect opacity="0.3" x="300" y="40" width="20" height="20" fill="white"/>
<rect opacity="0.3" y="60" width="20" height="20" fill="white"/>
<rect opacity="0.3" x="20" y="60" width="20" height="20" fill="#D2D2D2"/>
<rect opacity="0.3" x="40" y="60" width="20" height="20" fill="white"/>
<rect opacity="0.3" x="60" y="60" width="20" height="20" fill="#D2D2D2"/>
<rect opacity="0.3" x="80" y="60" width="20" height="20" fill="white"/>
<rect opacity="0.3" x="100" y="60" width="20" height="20" fill="#D2D2D2"/>
<rect opacity="0.3" x="120" y="60" width="20" height="20" fill="white"/>
<rect opacity="0.3" x="140" y="60" width="20" height="20" fill="#D2D2D2"/>
<rect opacity="0.3" x="160" y="60" width="20" height="20" fill="white"/>
<rect opacity="0.3" x="180" y="60" width="20" height="20" fill="#D2D2D2"/>
<rect opacity="0.3" x="200" y="60" width="20" height="20" fill="white"/>
<rect opacity="0.3" x="220" y="60" width="20" height="20" fill="#D2D2D2"/>
<rect opacity="0.3" x="240" y="60" width="20" height="20" fill="white"/>
<rect opacity="0.3" x="260" y="60" width="20" height="20" fill="#D2D2D2"/>
<rect opacity="0.3" x="280" y="60" width="20" height="20" fill="white"/>
<rect opacity="0.3" x="300" y="60" width="20" height="20" fill="#D2D2D2"/>
<rect opacity="0.3" y="80" width="20" height="20" fill="#D2D2D2"/>
<rect opacity="0.3" x="20" y="80" width="20" height="20" fill="white"/>
<rect opacity="0.3" x="40" y="80" width="20" height="20" fill="#D2D2D2"/>
<rect opacity="0.3" x="60" y="80" width="20" height="20" fill="white"/>
<rect opacity="0.3" x="80" y="80" width="20" height="20" fill="#D2D2D2"/>
<rect opacity="0.3" x="100" y="80" width="20" height="20" fill="white"/>
<rect opacity="0.3" x="120" y="80" width="20" height="20" fill="#D2D2D2"/>
<rect opacity="0.3" x="140" y="80" width="20" height="20" fill="white"/>
<rect opacity="0.3" x="160" y="80" width="20" height="20" fill="#D2D2D2"/>
<rect opacity="0.3" x="180" y="80" width="20" height="20" fill="white"/>
<rect opacity="0.3" x="200" y="80" width="20" height="20" fill="#D2D2D2"/>
<rect opacity="0.3" x="220" y="80" width="20" height="20" fill="white"/>
<rect opacity="0.3" x="240" y="80" width="20" height="20" fill="#D2D2D2"/>
<rect opacity="0.3" x="260" y="80" width="20" height="20" fill="white"/>
<rect opacity="0.3" x="280" y="80" width="20" height="20" fill="#D2D2D2"/>
<rect opacity="0.3" x="300" y="80" width="20" height="20" fill="white"/>
<rect opacity="0.3" y="100" width="20" height="20" fill="white"/>
<rect opacity="0.3" x="20" y="100" width="20" height="20" fill="#D2D2D2"/>
<rect opacity="0.3" x="40" y="100" width="20" height="20" fill="white"/>
<rect opacity="0.3" x="60" y="100" width="20" height="20" fill="#D2D2D2"/>
<rect opacity="0.3" x="80" y="100" width="20" height="20" fill="white"/>
<rect opacity="0.3" x="100" y="100" width="20" height="20" fill="#D2D2D2"/>
<rect opacity="0.3" x="120" y="100" width="20" height="20" fill="white"/>
<rect opacity="0.3" x="140" y="100" width="20" height="20" fill="#D2D2D2"/>
<rect opacity="0.3" x="160" y="100" width="20" height="20" fill="white"/>
<rect opacity="0.3" x="180" y="100" width="20" height="20" fill="#D2D2D2"/>
<rect opacity="0.3" x="200" y="100" width="20" height="20" fill="white"/>
<rect opacity="0.3" x="220" y="100" width="20" height="20" fill="#D2D2D2"/>
<rect opacity="0.3" x="240" y="100" width="20" height="20" fill="white"/>
<rect opacity="0.3" x="260" y="100" width="20" height="20" fill="#D2D2D2"/>
<rect opacity="0.3" x="280" y="100" width="20" height="20" fill="white"/>
<rect opacity="0.3" x="300" y="100" width="20" height="20" fill="#D2D2D2"/>
<rect opacity="0.3" y="120" width="20" height="20" fill="#D2D2D2"/>
<rect opacity="0.3" x="20" y="120" width="20" height="20" fill="white"/>
<rect opacity="0.3" x="40" y="120" width="20" height="20" fill="#D2D2D2"/>
<rect opacity="0.3" x="60" y="120" width="20" height="20" fill="white"/>
<rect opacity="0.3" x="80" y="120" width="20" height="20" fill="#D2D2D2"/>
<rect opacity="0.3" x="100" y="120" width="20" height="20" fill="white"/>
<rect opacity="0.3" x="120" y="120" width="20" height="20" fill="#D2D2D2"/>
<rect opacity="0.3" x="140" y="120" width="20" height="20" fill="white"/>
<rect opacity="0.3" x="160" y="120" width="20" height="20" fill="#D2D2D2"/>
<rect opacity="0.3" x="180" y="120" width="20" height="20" fill="white"/>
<rect opacity="0.3" x="200" y="120" width="20" height="20" fill="#D2D2D2"/>
<rect opacity="0.3" x="220" y="120" width="20" height="20" fill="white"/>
<rect opacity="0.3" x="240" y="120" width="20" height="20" fill="#D2D2D2"/>
<rect opacity="0.3" x="260" y="120" width="20" height="20" fill="white"/>
<rect opacity="0.3" x="280" y="120" width="20" height="20" fill="#D2D2D2"/>
<rect opacity="0.3" x="300" y="120" width="20" height="20" fill="white"/>
<rect opacity="0.3" y="140" width="20" height="20" fill="white"/>
<rect opacity="0.3" x="20" y="140" width="20" height="20" fill="#D2D2D2"/>
<rect opacity="0.3" x="40" y="140" width="20" height="20" fill="white"/>
<rect opacity="0.3" x="60" y="140" width="20" height="20" fill="#D2D2D2"/>
<rect opacity="0.3" x="80" y="140" width="20" height="20" fill="white"/>
<rect opacity="0.3" x="100" y="140" width="20" height="20" fill="#D2D2D2"/>
<rect opacity="0.3" x="120" y="140" width="20" height="20" fill="white"/>
<rect opacity="0.3" x="140" y="140" width="20" height="20" fill="#D2D2D2"/>
<rect opacity="0.3" x="160" y="140" width="20" height="20" fill="white"/>
<rect opacity="0.3" x="180" y="140" width="20" height="20" fill="#D2D2D2"/>
<rect opacity="0.3" x="200" y="140" width="20" height="20" fill="white"/>
<rect opacity="0.3" x="220" y="140" width="20" height="20" fill="#D2D2D2"/>
<rect opacity="0.3" x="240" y="140" width="20" height="20" fill="white"/>
<rect opacity="0.3" x="260" y="140" width="20" height="20" fill="#D2D2D2"/>
<rect opacity="0.3" x="280" y="140" width="20" height="20" fill="white"/>
<rect opacity="0.3" x="300" y="140" width="20" height="20" fill="#D2D2D2"/>
<rect opacity="0.3" y="160" width="20" height="20" fill="#D2D2D2"/>
<rect opacity="0.3" x="20" y="160" width="20" height="20" fill="white"/>
<rect opacity="0.3" x="40" y="160" width="20" height="20" fill="#D2D2D2"/>
<rect opacity="0.3" x="60" y="160" width="20" height="20" fill="white"/>
<rect opacity="0.3" x="80" y="160" width="20" height="20" fill="#D2D2D2"/>
<rect opacity="0.3" x="100" y="160" width="20" height="20" fill="white"/>
<rect opacity="0.3" x="120" y="160" width="20" height="20" fill="#D2D2D2"/>
<rect opacity="0.3" x="140" y="160" width="20" height="20" fill="white"/>
<rect opacity="0.3" x="160" y="160" width="20" height="20" fill="#D2D2D2"/>
<rect opacity="0.3" x="180" y="160" width="20" height="20" fill="white"/>
<rect opacity="0.3" x="200" y="160" width="20" height="20" fill="#D2D2D2"/>
<rect opacity="0.3" x="220" y="160" width="20" height="20" fill="white"/>
<rect opacity="0.3" x="240" y="160" width="20" height="20" fill="#D2D2D2"/>
<rect opacity="0.3" x="260" y="160" width="20" height="20" fill="white"/>
<rect opacity="0.3" x="280" y="160" width="20" height="20" fill="#D2D2D2"/>
<rect opacity="0.3" x="300" y="160" width="20" height="20" fill="white"/>
<rect opacity="0.3" y="180" width="20" height="20" fill="white"/>
<rect opacity="0.3" x="20" y="180" width="20" height="20" fill="#D2D2D2"/>
<rect opacity="0.3" x="40" y="180" width="20" height="20" fill="white"/>
<rect opacity="0.3" x="60" y="180" width="20" height="20" fill="#D2D2D2"/>
<rect opacity="0.3" x="80" y="180" width="20" height="20" fill="white"/>
<rect opacity="0.3" x="100" y="180" width="20" height="20" fill="#D2D2D2"/>
<rect opacity="0.3" x="120" y="180" width="20" height="20" fill="white"/>
<rect opacity="0.3" x="140" y="180" width="20" height="20" fill="#D2D2D2"/>
<rect opacity="0.3" x="160" y="180" width="20" height="20" fill="white"/>
<rect opacity="0.3" x="180" y="180" width="20" height="20" fill="#D2D2D2"/>
<rect opacity="0.3" x="200" y="180" width="20" height="20" fill="white"/>
<rect opacity="0.3" x="220" y="180" width="20" height="20" fill="#D2D2D2"/>
<rect opacity="0.3" x="240" y="180" width="20" height="20" fill="white"/>
<rect opacity="0.3" x="260" y="180" width="20" height="20" fill="#D2D2D2"/>
<rect opacity="0.3" x="280" y="180" width="20" height="20" fill="white"/>
<rect opacity="0.3" x="300" y="180" width="20" height="20" fill="#D2D2D2"/>
<rect opacity="0.3" y="200" width="20" height="20" fill="#D2D2D2"/>
<rect opacity="0.3" x="20" y="200" width="20" height="20" fill="white"/>
<rect opacity="0.3" x="40" y="200" width="20" height="20" fill="#D2D2D2"/>
<rect opacity="0.3" x="60" y="200" width="20" height="20" fill="white"/>
<rect opacity="0.3" x="80" y="200" width="20" height="20" fill="#D2D2D2"/>
<rect opacity="0.3" x="100" y="200" width="20" height="20" fill="white"/>
<rect opacity="0.3" x="120" y="200" width="20" height="20" fill="#D2D2D2"/>
<rect opacity="0.3" x="140" y="200" width="20" height="20" fill="white"/>
<rect opacity="0.3" x="160" y="200" width="20" height="20" fill="#D2D2D2"/>
<rect opacity="0.3" x="180" y="200" width="20" height="20" fill="white"/>
<rect opacity="0.3" x="200" y="200" width="20" height="20" fill="#D2D2D2"/>
<rect opacity="0.3" x="220" y="200" width="20" height="20" fill="white"/>
<rect opacity="0.3" x="240" y="200" width="20" height="20" fill="#D2D2D2"/>
<rect opacity="0.3" x="260" y="200" width="20" height="20" fill="white"/>
<rect opacity="0.3" x="280" y="200" width="20" height="20" fill="#D2D2D2"/>
<rect opacity="0.3" x="300" y="200" width="20" height="20" fill="white"/>
<rect opacity="0.3" y="220" width="20" height="20" fill="white"/>
<rect opacity="0.3" x="20" y="220" width="20" height="20" fill="#D2D2D2"/>
<rect opacity="0.3" x="40" y="220" width="20" height="20" fill="white"/>
<rect opacity="0.3" x="60" y="220" width="20" height="20" fill="#D2D2D2"/>
<rect opacity="0.3" x="80" y="220" width="20" height="20" fill="white"/>
<rect opacity="0.3" x="100" y="220" width="20" height="20" fill="#D2D2D2"/>
<rect opacity="0.3" x="120" y="220" width="20" height="20" fill="white"/>
<rect opacity="0.3" x="140" y="220" width="20" height="20" fill="#D2D2D2"/>
<rect opacity="0.3" x="160" y="220" width="20" height="20" fill="white"/>
<rect opacity="0.3" x="180" y="220" width="20" height="20" fill="#D2D2D2"/>
<rect opacity="0.3" x="200" y="220" width="20" height="20" fill="white"/>
<rect opacity="0.3" x="220" y="220" width="20" height="20" fill="#D2D2D2"/>
<rect opacity="0.3" x="240" y="220" width="20" height="20" fill="white"/>
<rect opacity="0.3" x="260" y="220" width="20" height="20" fill="#D2D2D2"/>
<rect opacity="0.3" x="280" y="220" width="20" height="20" fill="white"/>
<rect opacity="0.3" x="300" y="220" width="20" height="20" fill="#D2D2D2"/>
<rect opacity="0.3" y="240" width="20" height="20" fill="#D2D2D2"/>
<rect opacity="0.3" x="20" y="240" width="20" height="20" fill="white"/>
<rect opacity="0.3" x="40" y="240" width="20" height="20" fill="#D2D2D2"/>
<rect opacity="0.3" x="60" y="240" width="20" height="20" fill="white"/>
<rect opacity="0.3" x="80" y="240" width="20" height="20" fill="#D2D2D2"/>
<rect opacity="0.3" x="100" y="240" width="20" height="20" fill="white"/>
<rect opacity="0.3" x="120" y="240" width="20" height="20" fill="#D2D2D2"/>
<rect opacity="0.3" x="140" y="240" width="20" height="20" fill="white"/>
<rect opacity="0.3" x="160" y="240" width="20" height="20" fill="#D2D2D2"/>
<rect opacity="0.3" x="180" y="240" width="20" height="20" fill="white"/>
<rect opacity="0.3" x="200" y="240" width="20" height="20" fill="#D2D2D2"/>
<rect opacity="0.3" x="220" y="240" width="20" height="20" fill="white"/>
<rect opacity="0.3" x="240" y="240" width="20" height="20" fill="#D2D2D2"/>
<rect opacity="0.3" x="260" y="240" width="20" height="20" fill="white"/>
<rect opacity="0.3" x="280" y="240" width="20" height="20" fill="#D2D2D2"/>
<rect opacity="0.3" x="300" y="240" width="20" height="20" fill="white"/>
<rect opacity="0.3" y="260" width="20" height="20" fill="white"/>
<rect opacity="0.3" x="20" y="260" width="20" height="20" fill="#D2D2D2"/>
<rect opacity="0.3" x="40" y="260" width="20" height="20" fill="white"/>
<rect opacity="0.3" x="60" y="260" width="20" height="20" fill="#D2D2D2"/>
<rect opacity="0.3" x="80" y="260" width="20" height="20" fill="white"/>
<rect opacity="0.3" x="100" y="260" width="20" height="20" fill="#D2D2D2"/>
<rect opacity="0.3" x="120" y="260" width="20" height="20" fill="white"/>
<rect opacity="0.3" x="140" y="260" width="20" height="20" fill="#D2D2D2"/>
<rect opacity="0.3" x="160" y="260" width="20" height="20" fill="white"/>
<rect opacity="0.3" x="180" y="260" width="20" height="20" fill="#D2D2D2"/>
<rect opacity="0.3" x="200" y="260" width="20" height="20" fill="white"/>
<rect opacity="0.3" x="220" y="260" width="20" height="20" fill="#D2D2D2"/>
<rect opacity="0.3" x="240" y="260" width="20" height="20" fill="white"/>
<rect opacity="0.3" x="260" y="260" width="20" height="20" fill="#D2D2D2"/>
<rect opacity="0.3" x="280" y="260" width="20" height="20" fill="white"/>
<rect opacity="0.3" x="300" y="260" width="20" height="20" fill="#D2D2D2"/>
<rect opacity="0.3" y="280" width="20" height="20" fill="#D2D2D2"/>
<rect opacity="0.3" x="20" y="280" width="20" height="20" fill="white"/>
<rect opacity="0.3" x="40" y="280" width="20" height="20" fill="#D2D2D2"/>
<rect opacity="0.3" x="60" y="280" width="20" height="20" fill="white"/>
<rect opacity="0.3" x="80" y="280" width="20" height="20" fill="#D2D2D2"/>
<rect opacity="0.3" x="100" y="280" width="20" height="20" fill="white"/>
<rect opacity="0.3" x="120" y="280" width="20" height="20" fill="#D2D2D2"/>
<rect opacity="0.3" x="140" y="280" width="20" height="20" fill="white"/>
<rect opacity="0.3" x="160" y="280" width="20" height="20" fill="#D2D2D2"/>
<rect opacity="0.3" x="180" y="280" width="20" height="20" fill="white"/>
<rect opacity="0.3" x="200" y="280" width="20" height="20" fill="#D2D2D2"/>
<rect opacity="0.3" x="220" y="280" width="20" height="20" fill="white"/>
<rect opacity="0.3" x="240" y="280" width="20" height="20" fill="#D2D2D2"/>
<rect opacity="0.3" x="260" y="280" width="20" height="20" fill="white"/>
<rect opacity="0.3" x="280" y="280" width="20" height="20" fill="#D2D2D2"/>
<rect opacity="0.3" x="300" y="280" width="20" height="20" fill="white"/>
<rect opacity="0.3" y="300" width="20" height="20" fill="white"/>
<rect opacity="0.3" x="20" y="300" width="20" height="20" fill="#D2D2D2"/>
<rect opacity="0.3" x="40" y="300" width="20" height="20" fill="white"/>
<rect opacity="0.3" x="60" y="300" width="20" height="20" fill="#D2D2D2"/>
<rect opacity="0.3" x="80" y="300" width="20" height="20" fill="white"/>
<rect opacity="0.3" x="100" y="300" width="20" height="20" fill="#D2D2D2"/>
<rect opacity="0.3" x="120" y="300" width="20" height="20" fill="white"/>
<rect opacity="0.3" x="140" y="300" width="20" height="20" fill="#D2D2D2"/>
<rect opacity="0.3" x="160" y="300" width="20" height="20" fill="white"/>
<rect opacity="0.3" x="180" y="300" width="20" height="20" fill="#D2D2D2"/>
<rect opacity="0.3" x="200" y="300" width="20" height="20" fill="white"/>
<rect opacity="0.3" x="220" y="300" width="20" height="20" fill="#D2D2D2"/>
<rect opacity="0.3" x="240" y="300" width="20" height="20" fill="white"/>
<rect opacity="0.3" x="260" y="300" width="20" height="20" fill="#D2D2D2"/>
<rect opacity="0.3" x="280" y="300" width="20" height="20" fill="white"/>
<rect opacity="0.3" x="300" y="300" width="20" height="20" fill="#D2D2D2"/>
</g>
</g>
<defs>
<filter id="filter0_i_6_197" x="0" y="0" width="322" height="322" filterUnits="userSpaceOnUse" color-interpolation-filters="sRGB">
<feFlood flood-opacity="0" result="BackgroundImageFix"/>
<feBlend mode="normal" in="SourceGraphic" in2="BackgroundImageFix" result="shape"/>
<feColorMatrix in="SourceAlpha" type="matrix" values="0 0 0 0 0 0 0 0 0 0 0 0 0 0 0 0 0 0 127 0" result="hardAlpha"/>
<feOffset dx="2" dy="2"/>
<feGaussianBlur stdDeviation="2"/>
<feComposite in2="hardAlpha" operator="arithmetic" k2="-1" k3="1"/>
<feColorMatrix type="matrix" values="0 0 0 0 0 0 0 0 0 0 0 0 0 0 0 0 0 0 0.25 0"/>
<feBlend mode="normal" in2="shape" result="effect1_innerShadow_6_197"/>
</filter>
<clipPath id="clip0_6_197">
<rect width="320" height="320" rx="8" fill="white"/>
</clipPath>
</defs>
</svg>
