<svg class="color-immutable" part="coach-floor" width="110" height="184" viewBox="0 0 110 184" fill="none" xmlns="http://www.w3.org/2000/svg">
<mask id="path-1-outside-1_19_219" maskUnits="userSpaceOnUse" x="0" y="0" width="110" height="184" fill="black">
<rect fill="white" width="110" height="184"/>
<path d="M2 14C2 7.37258 7.37258 2 14 2H110V182H14C7.37258 182 2 176.627 2 170V14Z"/>
</mask>
<path d="M2 14C2 7.37258 7.37258 2 14 2H110V182H14C7.37258 182 2 176.627 2 170V14Z"/>
<path d="M0 14C0 6.26801 6.26801 0 14 0H110V4H14C8.47715 4 4 8.47715 4 14H0ZM110 184H14C6.26801 184 0 177.732 0 170H4C4 175.523 8.47715 180 14 180H110V184ZM14 184C6.26801 184 0 177.732 0 170V14C0 6.26801 6.26801 0 14 0V4C8.47715 4 4 8.47715 4 14V170C4 175.523 8.47715 180 14 180V184ZM110 2V182V2Z" fill="#B7B7B7" mask="url(#path-1-outside-1_19_219)"/>
<path d="M108 111C108 110.448 108.448 110 109 110C109.552 110 110 110.448 110 111V182H108V111Z" fill="#B7B7B7"/>
<path d="M70.5 134C70.5 132.067 72.067 130.5 74 130.5H96C96.8284 130.5 97.5 131.172 97.5 132V160C97.5 160.828 96.8284 161.5 96 161.5H74C72.067 161.5 70.5 159.933 70.5 158V134Z" fill="white" stroke="#B7B7B7"/>
<path d="M89.9999 159.143V162H95.9999C97.1044 162 97.9999 161.105 97.9999 160V132C97.9999 130.895 97.1044 130 95.9999 130H89.9999V132.857C89.9999 133.962 90.8953 134.857 91.9999 134.857C93.1044 134.857 93.9999 135.753 93.9999 136.857V155.143C93.9999 156.247 93.1044 157.143 91.9999 157.143C90.8953 157.143 89.9999 158.038 89.9999 159.143Z" fill="#B7B7B7"/>
<path fill-rule="evenodd" clip-rule="evenodd" d="M66 146C66 140.477 61.5228 136 56 136C50.4772 136 46 140.477 46 146C46 151.523 50.4772 156 56 156C61.5228 156 66 151.523 66 146ZM61.6249 147.137C62.5931 147.137 63.5178 147.487 64.2368 148.107C63.3068 151.753 60.0193 154.457 56.0934 154.5C55.6288 153.616 55.5068 152.582 55.7696 151.602L55.973 150.843C56.5587 148.657 58.5396 147.137 60.8026 147.137H61.6249ZM47.5 146C47.5 149.247 49.3204 152.068 51.9963 153.5C52.897 152.972 53.5634 152.108 53.8377 151.084L54.2937 149.382C54.4261 148.888 54.3641 148.362 54.1206 147.912L53.6775 147.094C53.3559 146.5 53.3559 145.784 53.6775 145.189L54.1206 144.371C54.3641 143.921 54.4261 143.395 54.2937 142.901L53.8377 141.199C53.5378 140.08 52.769 139.151 51.7375 138.644C49.2037 140.116 47.5 142.859 47.5 146ZM55.7696 140.682C55.4785 139.595 55.6595 138.443 56.2556 137.504C60.1898 137.62 63.453 140.41 64.2911 144.119C63.5646 144.768 62.6176 145.137 61.6249 145.137H60.7999C58.5369 145.137 56.556 143.617 55.9703 141.431L55.7696 140.682ZM57.5 146C57.5 145.172 56.8284 144.5 56 144.5C55.1716 144.5 54.5 145.172 54.5 146C54.5 146.828 55.1716 147.5 56 147.5C56.8284 147.5 57.5 146.828 57.5 146Z" fill="#B7B7B7"/>
<path d="M30 173.759C30 173.759 26.0941 175.355 19.9148 170.338C16.0039 167.159 12.7047 153.134 11.5231 147.553C11.1975 146.015 10.9889 144.478 10.8957 142.909C10.5844 137.674 9.93796 122.946 10.0048 91.6556L10.0048 91.8952C9.93796 60.6047 10.5845 45.877 10.8957 40.6423C10.989 39.0732 11.1975 37.5356 11.5231 35.9979C12.7047 30.4169 16.0039 16.3915 19.9148 13.2133C26.0941 8.19587 30 10.5533 30 10.5533C30 10.5533 30 10.5533 30 173.759Z" fill="#E5E5E5"/>
<mask id="path-8-inside-2_19_219" fill="white">
<path d="M42 2H106V14C106 15.1046 105.105 16 104 16H44C42.8954 16 42 15.1046 42 14V2Z"/>
</mask>
<path d="M42 2H106V14C106 15.1046 105.105 16 104 16H44C42.8954 16 42 15.1046 42 14V2Z" fill="#F6F6F6"/>
<path d="M42 2H106H42ZM107 14C107 15.6569 105.657 17 104 17H44C42.3431 17 41 15.6569 41 14H43C43 14.5523 43.4477 15 44 15H104C104.552 15 105 14.5523 105 14H107ZM44 17C42.3431 17 41 15.6569 41 14V2H43V14C43 14.5523 43.4477 15 44 15V17ZM107 2V14C107 15.6569 105.657 17 104 17V15C104.552 15 105 14.5523 105 14V2H107Z" fill="#B7B7B7" mask="url(#path-8-inside-2_19_219)"/>
<path d="M65.9902 9.61084C65.6368 9.96421 65.8871 10.5684 66.3868 10.5684H73.2799C73.7796 10.5684 74.0299 9.96421 73.6765 9.61084L70.23 6.1643C70.0109 5.94523 69.6558 5.94524 69.4367 6.1643L65.9902 9.61084Z" fill="#686868"/>
<path d="M74.7201 7.43157C74.2204 7.43157 73.9701 8.03579 74.3235 8.38916L77.77 11.8357C77.9891 12.0548 78.3443 12.0548 78.5633 11.8357L82.0099 8.38916C82.3632 8.03579 82.113 7.43157 81.6132 7.43157H74.7201Z" fill="#686868"/>
</svg>
