<svg width="18" height="184" viewBox="0 0 18 184" fill="none" xmlns="http://www.w3.org/2000/svg">
<mask id="path-1-outside-1_107_9559" maskUnits="userSpaceOnUse" x="0" y="0" width="11" height="184" fill="black">
<rect fill="white" width="11" height="184"/>
<path d="M0 2H5C7.20914 2 9 3.79086 9 6V178C9 180.209 7.20914 182 5 182H0V2Z"/>
</mask>
<path part="coach-floor" d="M0 2H5C7.20914 2 9 3.79086 9 6V178C9 180.209 7.20914 182 5 182H0V2Z" fill="none"/>
<path d="M0 0H5C8.31371 0 11 2.68629 11 6H7C7 4.89543 6.10457 4 5 4H0V0ZM11 178C11 181.314 8.31371 184 5 184H0V180H5C6.10457 180 7 179.105 7 178H11ZM0 182V2V182ZM5 0C8.31371 0 11 2.68629 11 6V178C11 181.314 8.31371 184 5 184V180C6.10457 180 7 179.105 7 178V6C7 4.89543 6.10457 4 5 4V0Z" fill="#B7B7B7" mask="url(#path-1-outside-1_107_9559)"/>
<mask id="path-3-outside-2_107_9559" maskUnits="userSpaceOnUse" x="2" y="77" width="13" height="30" fill="black">
<rect fill="white" x="2" y="77" width="13" height="30"/>
<path d="M3 80C3 78.8954 3.89543 78 5 78H13C14.1046 78 15 78.8954 15 80V104C15 105.105 14.1046 106 13 106H5C3.89543 106 3 105.105 3 104V80Z"/>
</mask>
<path d="M3 80C3 78.8954 3.89543 78 5 78H13C14.1046 78 15 78.8954 15 80V104C15 105.105 14.1046 106 13 106H5C3.89543 106 3 105.105 3 104V80Z" fill="#F6F6F6"/>
<path d="M2 80C2 78.3431 3.34315 77 5 77H12C13.6569 77 15 78.3431 15 80C15 79.4477 14.1046 79 13 79H5C4.44772 79 4 79.4477 4 80H2ZM15 104C15 105.657 13.6569 107 12 107H5C3.34315 107 2 105.657 2 104H4C4 104.552 4.44772 105 5 105H13C14.1046 105 15 104.552 15 104ZM5 107C3.34315 107 2 105.657 2 104V80C2 78.3431 3.34315 77 5 77V79C4.44772 79 4 79.4477 4 80V104C4 104.552 4.44772 105 5 105V107ZM15 78V106V78Z" fill="#B7B7B7" mask="url(#path-3-outside-2_107_9559)"/>
<path d="M8.88916 82.4901C8.53579 82.1368 7.93157 82.387 7.93157 82.8868V89.7799C7.93157 90.2796 8.53579 90.5299 8.88916 90.1765L12.3357 86.73C12.5548 86.5109 12.5548 86.1557 12.3357 85.9367L8.88916 82.4901Z" />
<path d="M10.0684 94.2201C10.0684 93.7204 9.46421 93.4701 9.11084 93.8235L5.6643 97.27C5.44524 97.4891 5.44523 97.8442 5.6643 98.0633L9.11084 101.51C9.46421 101.863 10.0684 101.613 10.0684 101.113V94.2201Z" />
<mask id="path-6-outside-3_107_9559" maskUnits="userSpaceOnUse" x="11" y="76" width="6" height="32" fill="black">
<rect fill="white" x="11" y="76" width="6" height="32"/>
<path d="M11 78H13C14.1046 78 15 78.8954 15 80V104C15 105.105 14.1046 106 13 106H11V78Z"/>
</mask>
<path d="M11 76H13C15.2091 76 17 77.7909 17 80H13H11V76ZM17 104C17 106.209 15.2091 108 13 108H11V104H13H17ZM11 106V78V106ZM13 76C15.2091 76 17 77.7909 17 80V104C17 106.209 15.2091 108 13 108V104V80V76Z" fill="#B7B7B7" mask="url(#path-6-outside-3_107_9559)"/>
</svg>
