<svg class="color-immutable" width="108" height="184" viewBox="0 0 108 184" fill="none" xmlns="http://www.w3.org/2000/svg">
<path part="coach-floor" d="M61.4304 13.2364L73.4346 8.09312C84.3574 3.41313 96.1168 1 108 1L108 183C96.1168 183 84.3574 180.587 73.4346 175.907L61.4304 170.764C41.1729 162.084 24.0203 147.471 12.2326 128.85C7.09106 120.728 3.65403 111.645 2.13022 102.154L1.95607 101.069C0.991532 95.0615 0.991532 88.9385 1.95607 82.9308L2.13022 81.8461C3.65403 72.3549 7.09106 63.2724 12.2326 55.1503C24.0203 36.5291 41.173 21.916 61.4304 13.2364Z" fill="none"/>
<path d="M108 1V1C96.1168 1 84.3574 3.41313 73.4346 8.09312L61.4304 13.2364C41.173 21.916 24.0203 36.5291 12.2326 55.1503V55.1503C7.09106 63.2724 3.65403 72.3549 2.13022 81.8461L1.95607 82.9308C0.991532 88.9385 0.991532 95.0615 1.95607 101.069L2.13022 102.154C3.65403 111.645 7.09106 120.728 12.2326 128.85V128.85C24.0203 147.471 41.1729 162.084 61.4304 170.764L73.4346 175.907C84.3574 180.587 96.1168 183 108 183V183" stroke="#B7B7B7" stroke-width="2"/>
<path d="M79 141.853C79 141.853 72.6017 142.824 62.0041 139.773C53.9297 137.448 49.3408 129.81 47.6133 126.305C47.0348 125.131 46.6567 123.885 46.4549 122.592C45.8981 119.022 44.8991 110.036 45.0083 91.9272L45.0083 92.0728C44.8991 73.9641 45.8981 64.9779 46.4549 61.4084C46.6567 60.1152 47.0348 58.869 47.6133 57.695C49.3408 54.1897 53.9297 46.5517 62.0041 44.2271C72.6017 41.176 79 42.1468 79 42.1468L79 141.853Z" fill="#E5E5E5"/>
</svg>
