<svg part="coach-floor" class="color-immutable" width="18" height="184" viewBox="0 0 18 184" fill="none" xmlns="http://www.w3.org/2000/svg">
<mask id="path-1-outside-1_107_9022" maskUnits="userSpaceOnUse" x="7" y="0" width="11" height="184" fill="black">
<rect fill="white" x="7" width="11" height="184"/>
<path d="M9 6C9 3.79086 10.7909 2 13 2H18V182H13C10.7909 182 9 180.209 9 178V6Z"/>
</mask>
<path d="M9 6C9 3.79086 10.7909 2 13 2H18V182H13C10.7909 182 9 180.209 9 178V6Z"/>
<path d="M7 6C7 2.68629 9.68629 0 13 0H18V4H13C11.8954 4 11 4.89543 11 6H7ZM18 184H13C9.68629 184 7 181.314 7 178H11C11 179.105 11.8954 180 13 180H18V184ZM13 184C9.68629 184 7 181.314 7 178V6C7 2.68629 9.68629 0 13 0V4C11.8954 4 11 4.89543 11 6V178C11 179.105 11.8954 180 13 180V184ZM18 2V182V2Z" fill="#B7B7B7" mask="url(#path-1-outside-1_107_9022)"/>
<mask id="path-3-outside-2_107_9022" maskUnits="userSpaceOnUse" x="1" y="76" width="6" height="32" fill="black">
<rect fill="white" x="1" y="76" width="6" height="32"/>
<path d="M3 80C3 78.8954 3.89543 78 5 78H7V106H5C3.89543 106 3 105.105 3 104V80Z"/>
</mask>
<path d="M1 80C1 77.7909 2.79086 76 5 76H7V80H5H1ZM7 108H5C2.79086 108 1 106.209 1 104H5H7V108ZM5 108C2.79086 108 1 106.209 1 104V80C1 77.7909 2.79086 76 5 76V80V104V108ZM7 78V106V78Z" fill="#B7B7B7" mask="url(#path-3-outside-2_107_9022)"/>
<mask id="path-5-outside-3_107_9022" maskUnits="userSpaceOnUse" x="3" y="77" width="13" height="30" fill="black">
<rect fill="white" x="3" y="77" width="13" height="30"/>
<path d="M3 80C3 78.8954 3.89543 78 5 78H13C14.1046 78 15 78.8954 15 80V104C15 105.105 14.1046 106 13 106H5C3.89543 106 3 105.105 3 104V80Z"/>
</mask>
<path d="M3 80C3 78.8954 3.89543 78 5 78H13C14.1046 78 15 78.8954 15 80V104C15 105.105 14.1046 106 13 106H5C3.89543 106 3 105.105 3 104V80Z" fill="white"/>
<path d="M3 80C3 78.3431 4.34315 77 6 77H13C14.6569 77 16 78.3431 16 80H14C14 79.4477 13.5523 79 13 79H5C3.89543 79 3 79.4477 3 80ZM16 104C16 105.657 14.6569 107 13 107H6C4.34315 107 3 105.657 3 104C3 104.552 3.89543 105 5 105H13C13.5523 105 14 104.552 14 104H16ZM3 106V78V106ZM13 77C14.6569 77 16 78.3431 16 80V104C16 105.657 14.6569 107 13 107V105C13.5523 105 14 104.552 14 104V80C14 79.4477 13.5523 79 13 79V77Z" fill="#B7B7B7" mask="url(#path-5-outside-3_107_9022)"/>
<path d="M8.88916 82.4901C8.53579 82.1368 7.93157 82.387 7.93157 82.8868V89.7799C7.93157 90.2796 8.53579 90.5299 8.88916 90.1765L12.3357 86.73C12.5548 86.5109 12.5548 86.1557 12.3357 85.9367L8.88916 82.4901Z" fill="#686868"/>
<path d="M10.0684 94.2201C10.0684 93.7204 9.46421 93.4701 9.11084 93.8235L5.6643 97.27C5.44524 97.4891 5.44523 97.8442 5.6643 98.0633L9.11084 101.51C9.46421 101.863 10.0684 101.613 10.0684 101.113V94.2201Z" fill="#686868"/>
</svg>
