<svg class="color-immutable" width="36" height="36" viewBox="0 0 36 36" fill="none" xmlns="http://www.w3.org/2000/svg">
<path part="svg-place" class="no-bg" d="M1.5 4C1.5 3.17157 2.17157 2.5 3 2.5H25C26.933 2.5 28.5 4.067 28.5 6V30C28.5 31.933 26.933 33.5 25 33.5H3C2.17157 33.5 1.5 32.8284 1.5 32V4Z" fill="#F6F6F6"/>
<path d="M1.5 4C1.5 3.17157 2.17157 2.5 3 2.5H25C26.933 2.5 28.5 4.067 28.5 6V30C28.5 31.933 26.933 33.5 25 33.5H3C2.17157 33.5 1.5 32.8284 1.5 32V4Z" stroke="#8D8D8D"/>
<path part="svg-icon" d="M9 32V34H3C1.89543 34 1 33.1046 1 32V4C1 2.89543 1.89543 2 3 2H9V4C9 5.10457 8.10457 6 7 6C5.89543 6 5 6.89543 5 8V28C5 29.1046 5.89543 30 7 30C8.10457 30 9 30.8954 9 32Z" fill="#8D8D8D"/>
<path part="svg-icon" class="fix-rotation-inverse" d="M17 19.557L21.2818 23.8388C21.4967 24.0537 21.8453 24.0537 22.0603 23.8388L22.8388 23.0603C23.0537 22.8453 23.0537 22.4967 22.8388 22.2818L18.557 18L22.8388 13.7182C23.0537 13.5033 23.0537 13.1547 22.8388 12.9397L22.0603 12.1612C21.8453 11.9463 21.4967 11.9463 21.2818 12.1612L17 16.443L12.7182 12.1612C12.5033 11.9463 12.1547 11.9463 11.9397 12.1612L11.1612 12.9397C10.9463 13.1547 10.9463 13.5033 11.1612 13.7182L15.443 18L11.1612 22.2818C10.9463 22.4967 10.9463 22.8453 11.1612 23.0603L11.9397 23.8388C12.1547 24.0537 12.5033 24.0537 12.7182 23.8388L17 19.557Z" fill="#B7B7B7"/>
</svg>
