<svg width="36" height="36" viewBox="0 0 36 36" fill="none" xmlns="http://www.w3.org/2000/svg">
<path part="svg-place" d="M1.5 4C1.5 3.17157 2.17157 2.5 3 2.5H25C26.933 2.5 28.5 4.067 28.5 6V30C28.5 31.933 26.933 33.5 25 33.5H3C2.17157 33.5 1.5 32.8284 1.5 32V4Z" fill="#F6F6F6"/>
<path d="M1.5 4C1.5 3.17157 2.17157 2.5 3 2.5H25C26.933 2.5 28.5 4.067 28.5 6V30C28.5 31.933 26.933 33.5 25 33.5H3C2.17157 33.5 1.5 32.8284 1.5 32V4Z" stroke="#8D8D8D"/>
<path part="svg-backrest" d="M9 32V34H3C1.89543 34 1 33.1046 1 32V4C1 2.89543 1.89543 2 3 2H9V4C9 5.10457 8.10457 6 7 6C5.89543 6 5 6.89543 5 8V28C5 29.1046 5.89543 30 7 30C8.10457 30 9 30.8954 9 32Z" fill="#8D8D8D"/>
</svg>
