<svg class="color-immutable" width="36" height="36" viewBox="0 0 36 36" fill="none" xmlns="http://www.w3.org/2000/svg">
<path part="svg-place" d="M1 4C1 2.89543 1.89543 2 3 2H25C27.2091 2 29 3.79086 29 6V30C29 32.2091 27.2091 34 25 34H3C1.89543 34 1 33.1046 1 32V4Z" fill="#EB0000"/>
<path part="svg-backrest" d="M9 32V34H3C1.89543 34 1 33.1046 1 32V4C1 2.89543 1.89543 2 3 2H9V4C9 5.10457 8.10457 6 7 6C5.89543 6 5 6.89543 5 8V28C5 29.1046 5.89543 30 7 30C8.10457 30 9 30.8954 9 32Z" fill="#A20013"/>
<path class="fix-rotation-inverse" fill-rule="evenodd" clip-rule="evenodd" d="M15.7805 23.8065L24.8171 14.5161C24.8659 14.4645 24.9085 14.4065 24.9451 14.3419C24.9817 14.2774 25 14.2065 25 14.129C25 14.0516 24.9817 13.9742 24.9451 13.8968C24.9085 13.8194 24.8659 13.7548 24.8171 13.7032L23.3537 12.1935C23.3049 12.1419 23.2439 12.0968 23.1707 12.0581C23.0976 12.0194 23.0244 12 22.9512 12C22.878 12 22.8049 12.0194 22.7317 12.0581C22.6585 12.0968 22.5976 12.1419 22.5488 12.1935L15.378 19.5484L12.4512 16.6065C12.4024 16.529 12.3415 16.4774 12.2683 16.4516C12.1951 16.4258 12.122 16.4129 12.0488 16.4129C11.9756 16.4129 11.9085 16.4258 11.8476 16.4516C11.7866 16.4774 11.7195 16.529 11.6463 16.6065L10.1829 18.1161C10.1341 18.1677 10.0915 18.2323 10.0549 18.3097C10.0183 18.3871 10 18.4516 10 18.5032C10 18.6065 10.0183 18.6903 10.0549 18.7548C10.0915 18.8194 10.1341 18.8774 10.1829 18.929L14.9756 23.8065C15.0244 23.8839 15.0854 23.9355 15.1585 23.9613C15.2317 23.9871 15.3049 24 15.378 24C15.4512 24 15.5244 23.9871 15.5976 23.9613C15.6707 23.9355 15.7317 23.8839 15.7805 23.8065Z" fill="#fff"/>
</svg>
