<svg part="svg-place" class="fix-rotation-inverse" width="36" height="36" viewBox="0 0 36 36" fill="none" xmlns="http://www.w3.org/2000/svg">
<path d="M2.5 4C2.5 3.17157 3.17157 2.5 4 2.5H32C32.8284 2.5 33.5 3.17157 33.5 4V32C33.5 32.8284 32.8284 33.5 32 33.5H4C3.17157 33.5 2.5 32.8284 2.5 32V4Z"/>
<path d="M2.5 4C2.5 3.17157 3.17157 2.5 4 2.5H32C32.8284 2.5 33.5 3.17157 33.5 4V32C33.5 32.8284 32.8284 33.5 32 33.5H4C3.17157 33.5 2.5 32.8284 2.5 32V4Z" stroke="currentColor"/>
<g class="fix-rotation-inverse">
<path d="M19.6058 7.5122L21.0708 8.02454C21.1023 8.03655 21.137 8.04177 21.1709 8.04177C21.2722 8.04177 21.3662 7.99141 21.4226 7.90736L21.7519 7.41905C21.7788 7.37852 21.7925 7.33118 21.7925 7.28379C21.7925 7.14938 21.6841 7.04045 21.5503 7.04045H19.6864C19.5517 7.04045 19.4428 7.14938 19.4428 7.28379C19.4428 7.38683 19.5089 7.47846 19.6058 7.5122Z" fill="#212121"/>
<path d="M14.4799 7.52597H16.6043V7.04052H14.4799C14.346 7.04052 14.2377 7.14932 14.2377 7.28355C14.2377 7.41717 14.346 7.52597 14.4799 7.52597Z" fill="#212121"/>
<path d="M14.4804 8.31508H14.784C14.9178 8.31508 15.0269 8.20616 15.0269 8.07236C15.0269 7.93795 14.9178 7.82902 14.784 7.82902H14.4804C14.3466 7.82902 14.2383 7.93795 14.2383 8.07236C14.2383 8.20616 14.3466 8.31508 14.4804 8.31508Z" fill="#212121"/>
<path d="M22.3083 9.01214C21.8354 9.01214 21.3688 9.12483 20.9486 9.34104L20.366 8.40587H15.633L15.0505 9.34104C14.6304 9.12483 14.1643 9.01214 13.6915 9.01214C12.05 9.01214 10.7181 10.344 10.7181 11.9861C10.7181 13.6268 12.05 14.9595 13.6915 14.9595C15.3324 14.9595 16.6643 13.6267 16.6643 11.9861C16.6643 11.0441 16.2192 10.1592 15.463 9.5973L15.7893 9.07301L17.3798 11.4379C17.2701 11.5768 17.2107 11.7481 17.2107 11.9253C17.2107 12.3603 17.5646 12.7141 17.999 12.7141C18.3057 12.7141 18.5846 12.5361 18.7146 12.2589H19.3476C19.4881 13.789 20.7718 14.9595 22.3082 14.9595C23.9498 14.9595 25.2819 13.6267 25.2819 11.9861C25.2819 10.344 23.9498 9.01214 22.3083 9.01214ZM16.1795 11.9861C16.1795 13.3594 15.0647 14.4741 13.6915 14.4741C12.3183 14.4741 11.2029 13.3594 11.2029 11.9861C11.2029 10.6122 12.3182 9.49802 13.6915 9.49802C14.074 9.49802 14.4506 9.58595 14.7934 9.75495L13.4848 11.8577C13.4616 11.8959 13.4488 11.9403 13.4488 11.9861C13.4488 12.1199 13.5569 12.2288 13.6915 12.2288C13.7757 12.2288 13.8531 12.1851 13.8974 12.1138L15.2061 10.0119C15.8195 10.483 16.1795 11.2124 16.1795 11.9861ZM18.2171 11.1665C18.1465 11.1463 18.0735 11.1365 17.9991 11.1365C17.9263 11.1365 17.8534 11.1462 17.7828 11.1665L16.2524 8.89108H19.7474L18.2171 11.1665ZM19.3422 11.7735H18.774C18.75 11.651 18.6975 11.5354 18.6199 11.4378L20.2098 9.07294L20.5368 9.59724C19.8406 10.114 19.4047 10.9089 19.3422 11.7735ZM20.7938 10.0119L21.8904 11.7735H19.8293C19.8888 11.0764 20.2391 10.4371 20.7938 10.0119ZM22.3083 14.4741C21.0395 14.4741 19.9744 13.5194 19.8345 12.2588H21.9069C21.9972 12.3918 22.1475 12.4715 22.3083 12.4715C22.5759 12.4715 22.793 12.2535 22.793 11.9861C22.793 11.7179 22.5758 11.5001 22.3083 11.5001C22.303 11.5001 22.297 11.5001 22.2926 11.501L21.2057 9.75501C21.5483 9.58601 21.9257 9.49808 22.3083 9.49808C23.6815 9.49808 24.7954 10.6123 24.7954 11.9862C24.7954 13.3594 23.6816 14.4741 22.3083 14.4741Z" fill="#212121"/>
<path fill-rule="evenodd" clip-rule="evenodd" d="M19.4023 7.28379C19.4023 7.12701 19.5294 7 19.6864 7H21.5503C21.7067 7 21.8329 7.12724 21.8329 7.28379C21.8329 7.3389 21.817 7.39406 21.7856 7.44145L21.4562 7.92991M19.6864 7.08091C19.574 7.08091 19.4832 7.17175 19.4832 7.28379C19.4832 7.36939 19.5382 7.44584 19.6191 7.47399L21.0852 7.98672C21.1113 7.99667 21.141 8.00132 21.1709 8.00132C21.2587 8.00132 21.3401 7.95773 21.389 7.88481L21.7182 7.39666C21.7405 7.36299 21.752 7.32344 21.752 7.28379C21.752 7.17152 21.6616 7.08091 21.5503 7.08091H19.6864ZM14.1972 7.28355C14.1972 7.12712 14.3235 7.00006 14.4799 7.00006H16.6448V7.56643H14.4799C14.3236 7.56643 14.1972 7.43943 14.1972 7.28355ZM14.4799 7.08097C14.3685 7.08097 14.2782 7.17152 14.2782 7.28355C14.2782 7.39491 14.3684 7.48552 14.4799 7.48552H16.5639V7.08097H14.4799ZM19.4023 7.28379C19.4023 7.40427 19.4795 7.51108 19.5925 7.55041L19.4023 7.28379ZM19.5925 7.55041L21.0569 8.06255L19.5925 7.55041ZM14.1978 8.07236C14.1978 7.9158 14.324 7.78857 14.4804 7.78857H14.784C14.9401 7.78857 15.0673 7.91563 15.0673 8.07236C15.0673 8.22854 14.9401 8.35554 14.784 8.35554H14.4804C14.3241 8.35554 14.1978 8.22837 14.1978 8.07236ZM14.4804 7.86948C14.3691 7.86948 14.2787 7.96009 14.2787 8.07236C14.2787 8.18395 14.369 8.27463 14.4804 8.27463H14.784C14.8955 8.27463 14.9864 8.18378 14.9864 8.07236C14.9864 7.96026 14.8954 7.86948 14.784 7.86948H14.4804ZM15.6105 8.36541H20.3885L20.9634 9.28821C21.3806 9.08005 21.8414 8.97169 22.3083 8.97169C23.9722 8.97169 25.3223 10.3217 25.3223 11.9861C25.3223 13.6491 23.9722 14.9999 22.3082 15C20.7633 15 19.4704 13.8323 19.3109 12.2993H18.7399C18.5988 12.5773 18.3127 12.7546 17.999 12.7546C17.5423 12.7546 17.1703 12.3826 17.1703 11.9253C17.1703 11.7489 17.2262 11.578 17.3301 11.4364L15.7907 9.14745L15.5169 9.58725C16.2652 10.1577 16.7047 11.0438 16.7047 11.9861C16.7047 13.649 15.3547 14.9999 13.6915 14.9999C12.0276 14.9999 10.6777 13.6491 10.6777 11.9861C10.6777 10.3217 12.0276 8.97169 13.6915 8.97169C14.1583 8.97169 14.6186 9.08005 15.0358 9.28821L15.6105 8.36541ZM15.6554 8.44632L15.0652 9.39407L15.032 9.37701C14.6176 9.16375 14.1579 9.0526 13.6915 9.0526C12.0723 9.0526 10.7586 10.3663 10.7586 11.9861C10.7586 13.6044 12.0723 14.919 13.6915 14.919C15.31 14.919 16.6238 13.6044 16.6238 11.9861C16.6238 11.0569 16.1848 10.1841 15.4389 9.62977L15.409 9.60755L15.788 8.99856L17.4299 11.4398L17.4116 11.4629C17.3075 11.5947 17.2512 11.7571 17.2512 11.9253C17.2512 12.338 17.587 12.6737 17.999 12.6737C18.2899 12.6737 18.5546 12.5048 18.678 12.2417L18.6889 12.2184H19.3845L19.3879 12.2552C19.5265 13.7645 20.7927 14.9191 22.3082 14.9191C23.9275 14.919 25.2414 13.6044 25.2414 11.9861C25.2414 10.3663 23.9275 9.0526 22.3083 9.0526C21.8418 9.0526 21.3816 9.16376 20.9671 9.37701L20.934 9.39406L20.3435 8.44632H15.6554ZM16.1765 8.85063H19.8234L18.2343 11.2135L18.206 11.2054C18.1392 11.1863 18.0699 11.177 17.9991 11.177C17.9299 11.177 17.8608 11.1862 17.7939 11.2054L17.7656 11.2136L16.1765 8.85063ZM16.3284 8.93154L17.8002 11.12C17.8656 11.1038 17.9325 11.096 17.9991 11.096C18.0671 11.096 18.1342 11.1038 18.1997 11.12L19.6714 8.93154H16.3284ZM20.2111 8.99854L20.5908 9.60749L20.5609 9.62972C19.8742 10.1395 19.4442 10.9235 19.3826 11.7764L19.3799 11.8139H18.7407L18.7343 11.7813C18.7115 11.665 18.6617 11.5553 18.5883 11.463L18.5698 11.4398L20.2111 8.99854ZM18.6697 11.4363C18.7349 11.5249 18.7812 11.6262 18.8066 11.733H19.3048C19.3769 10.8836 19.8046 10.1038 20.4828 9.58719L20.2085 9.14735L18.6697 11.4363ZM13.6915 9.53848C12.3405 9.53848 11.2434 10.6346 11.2434 11.9861C11.2434 13.3371 12.3406 14.4337 13.6915 14.4337C15.0424 14.4337 16.139 13.3371 16.139 11.9861C16.139 11.2399 15.7986 10.5355 15.2166 10.0715L13.9318 12.1351C13.8802 12.2182 13.7899 12.2692 13.6915 12.2692C13.5345 12.2692 13.4084 12.1421 13.4084 11.9861C13.4084 11.9328 13.4232 11.8812 13.4502 11.8367L14.7353 9.77184C14.4089 9.61825 14.0529 9.53848 13.6915 9.53848ZM11.1625 11.9861C11.1625 10.5899 12.2959 9.45757 13.6915 9.45757C14.0803 9.45757 14.4629 9.54693 14.8113 9.71867L14.8514 9.73841L13.5194 11.8786C13.5 11.9106 13.4893 11.9479 13.4893 11.9861C13.4893 12.0976 13.5794 12.1883 13.6915 12.1883C13.7615 12.1883 13.826 12.152 13.863 12.0924L15.1953 9.95262L15.2307 9.9798C15.8541 10.4585 16.2199 11.1998 16.2199 11.9861C16.2199 13.3818 15.0871 14.5146 13.6915 14.5146C12.2959 14.5146 11.1625 13.3818 11.1625 11.9861ZM21.2639 9.77189L22.3146 11.4597C22.6017 11.4631 22.8334 11.6978 22.8334 11.9861C22.8334 12.2757 22.5983 12.5119 22.3083 12.5119C22.1414 12.5119 21.9849 12.4326 21.886 12.2993H19.8802C20.0378 13.5171 21.0753 14.4337 22.3083 14.4337C23.6592 14.4337 24.755 13.337 24.7549 11.9862C24.7549 10.6346 23.6591 9.53854 22.3083 9.53854C21.9468 9.53854 21.5901 9.61832 21.2639 9.77189ZM21.1878 9.71873C21.536 9.54698 21.9195 9.45763 22.3083 9.45763C23.7039 9.45763 24.8358 10.5899 24.8358 11.9862C24.8359 13.3817 23.7039 14.5146 22.3083 14.5146C21.0189 14.5146 19.9365 13.5443 19.7943 12.2633L19.7894 12.2184H21.9283L21.9404 12.2361C22.0231 12.358 22.1609 12.431 22.3083 12.431C22.5534 12.431 22.7525 12.2312 22.7525 11.9861C22.7525 11.7401 22.5534 11.5406 22.3083 11.5406L22.3017 11.5406L22.2999 11.5407L22.273 11.546L21.1478 9.73849L21.1878 9.71873ZM20.8045 9.95271L21.9632 11.8139H19.7853L19.789 11.77C19.8495 11.0616 20.2055 10.412 20.7691 9.97984L20.8045 9.95271ZM19.8738 11.733H21.8176L20.7832 10.0715C20.2694 10.4805 19.9414 11.0792 19.8738 11.733Z" fill="#212121"/>
</g>
</svg>
