<svg width="36" height="18" viewBox="0 0 36 18" fill="none" xmlns="http://www.w3.org/2000/svg">
<mask id="path-1-inside-1_35_152" fill="white">
<path d="M0 0H30C32.2091 0 34 1.79086 34 4V14C34 16.2091 32.2091 18 30 18H0V0Z"/>
</mask>
<path d="M0 0H30C32.2091 0 34 1.79086 34 4V14C34 16.2091 32.2091 18 30 18H0V0Z" fill="#F6F6F6"/>
<path d="M0 -1H30C32.7614 -1 35 1.23858 35 4H33C33 2.34315 31.6569 1 30 1H0V-1ZM35 14C35 16.7614 32.7614 19 30 19H0V17H30C31.6569 17 33 15.6569 33 14H35ZM0 18V0V18ZM30 -1C32.7614 -1 35 1.23858 35 4V14C35 16.7614 32.7614 19 30 19V17C31.6569 17 33 15.6569 33 14V4C33 2.34315 31.6569 1 30 1V-1Z" fill="#B7B7B7" mask="url(#path-1-inside-1_35_152)"/>
</svg>