<svg width="20" height="20" viewBox="0 0 20 20" fill="none" xmlns="http://www.w3.org/2000/svg">
  <path d="M2.48964 1.61705C2.48964 2.40781 3.13136 3.04938 3.92196 3.04938C4.71255 3.04938 5.35403 2.40781 5.35403 1.61705C5.35403 0.826539 4.71255 0.185059 3.92196 0.185059C3.13136 0.185059 2.48964 0.826457 2.48964 1.61705Z" fill="#686868"/>
  <path d="M2.48563 6.27018V14.5882L0.121208 18.247C0.0419847 18.3694 0 18.5121 0 18.6578C0 19.0758 0.339236 19.4149 0.757041 19.4149C1.01394 19.4149 1.25333 19.2844 1.39287 19.0688L3.99137 15.0477C4.07706 14.9153 4.12248 14.7611 4.12248 14.6034V12.1627L5.75949 13.7997V17.9123C5.75949 18.3302 6.09864 18.6692 6.51653 18.6692C6.93442 18.6692 7.27357 18.3302 7.27357 17.9123V13.28C7.27357 13.063 7.18723 12.8547 7.03361 12.7014L5.35003 11.0178V5.26131C5.35003 4.35785 4.61697 3.62446 3.71327 3.62446C3.20118 3.62446 2.71847 3.86418 2.40919 4.272L0.687884 6.54107C0.579934 6.68348 0.521253 6.85723 0.521253 7.03581V10.4033C0.521253 10.6969 0.759823 10.9353 1.05331 10.9353C1.34712 10.9353 1.58537 10.6968 1.58537 10.4033V7.45689L2.48563 6.27018Z" fill="#686868"/>
  <path d="M7.2119 9.56261C7.1479 9.56261 7.08422 9.55149 7.02382 9.52963L6.04573 9.1755V8.00057L7.39997 8.49073C7.61849 8.56979 7.76425 8.7775 7.76425 9.01018C7.76425 9.31504 7.51668 9.56261 7.2119 9.56261Z" fill="#686868"/>
  <path d="M12.5523 16.7869H16.2762V15.2728H20V14.5362H15.5396V16.0505H11.8156V17.5646H8.09186V19.0786H4.36812V19.8151H8.82861V18.3011H12.5523V16.7869Z" fill="#686868"/>
</svg>
