<svg width="20" height="20" viewBox="0 0 20 20" fill="none" xmlns="http://www.w3.org/2000/svg">
    <path d="M5.07327 4.7085C5.07327 5.52914 4.40818 6.19424 3.58754 6.19424C2.76696 6.19424 2.10166 5.52914 2.10166 4.7085C2.10166 3.88778 2.76696 3.22262 3.58754 3.22262C4.40825 3.22262 5.07327 3.88785 5.07327 4.7085Z" fill="#686868"/>
    <path d="M11.7359 17.2216L9.72614 12.4966C9.58699 12.1695 9.26661 11.9572 8.91108 11.9572H5.48014L5.29607 10.4806H8.13682C8.43586 10.4806 8.67797 10.2382 8.67797 9.93927C8.67797 9.64038 8.43586 9.39771 8.13682 9.39771H5.16123L4.93572 7.58888C4.85167 6.91457 4.23687 6.43607 3.56256 6.51998C2.88826 6.60403 2.40962 7.21884 2.49381 7.89314L3.08343 12.625C3.09048 12.6814 3.11384 12.8251 3.11384 12.8433C3.11384 13.3328 3.51032 13.7292 3.99971 13.7292H8.32523L10.1055 17.915C10.2489 18.2519 10.5766 18.4542 10.9212 18.4542C11.0368 18.4542 11.1543 18.4314 11.2675 18.3834C11.7175 18.192 11.9272 17.6716 11.7359 17.2216Z" fill="#686868"/>
    <path d="M9.03601 16.6192C8.30535 17.8566 6.95898 18.6874 5.41778 18.6874C3.09822 18.6874 1.21803 16.8071 1.21803 14.4877C1.21803 13.3222 1.69304 12.268 2.4597 11.507L2.29236 10.0636C0.906021 11.0449 0 12.66 0 14.4877C0 17.4799 2.42566 19.9054 5.41778 19.9054C7.10825 19.9054 8.61756 19.1309 9.61119 17.9177L9.03601 16.6192Z" fill="#686868"/>
    <path d="M14.2095 0.23763L12.5924 6.20774H11.2857L10.2526 1.94452L9.2521 6.20774H7.92904L6.33647 0.23763H7.6473L8.60694 4.62337L9.6564 0.23763H10.8896L11.9391 4.59068L12.911 0.23763H14.2095Z" fill="#686868"/>
    <path d="M20 3.90459C19.9564 4.52259 19.7495 5.05072 19.3793 5.48902C18.8947 6.06347 18.2086 6.35063 17.3212 6.35063C16.3765 6.35063 15.6415 6.01714 15.1161 5.35016C14.667 4.7812 14.4423 4.07066 14.4423 3.21855C14.4423 2.32565 14.7091 1.58106 15.2427 0.984839C15.7763 0.391385 16.4854 0.0946045 17.3702 0.0946045C18.1951 0.0946045 18.8594 0.366893 19.363 0.911309C19.7223 1.29514 19.921 1.73757 19.9592 2.23843H18.6729C18.6021 1.90087 18.451 1.6402 18.2196 1.45643C17.9881 1.27271 17.6955 1.18083 17.3416 1.18083C16.7753 1.18083 16.352 1.41907 16.0716 1.89544C15.862 2.25755 15.7572 2.70128 15.7572 3.22669C15.7572 3.76573 15.8674 4.2149 16.088 4.57424C16.3684 5.03437 16.7835 5.26436 17.3335 5.26436C17.7255 5.26436 18.0379 5.14868 18.2707 4.91723C18.5034 4.68584 18.647 4.34827 18.7015 3.90454L20 3.90459Z" fill="#686868"/>
</svg>
