<svg width="20" height="20" viewBox="0 0 20 20" fill="none" xmlns="http://www.w3.org/2000/svg">
    <path d="M17.9043 17.1527C17.9043 15.5828 16.627 14.3056 15.057 14.3056C13.487 14.3056 12.2099 15.5827 12.2099 17.1527C12.2099 18.7228 13.487 20 15.057 20C16.6269 20 17.9043 18.7228 17.9043 17.1527ZM17.0821 17.1527C17.0821 18.2693 16.1736 19.1778 15.057 19.1778C13.9404 19.1778 13.032 18.2693 13.032 17.1527C13.032 16.0358 13.9404 15.1274 15.057 15.1274C16.1736 15.1275 17.0821 16.0358 17.0821 17.1527Z" fill="#686868"/>
    <path d="M10.5909 17.1527C10.5909 15.5828 9.31376 14.3056 7.74378 14.3056C6.17397 14.3056 4.89665 15.5827 4.89665 17.1527C4.89665 18.7228 6.17397 20 7.74378 20C9.31376 20 10.5909 18.7228 10.5909 17.1527ZM9.7689 17.1527C9.7689 18.2693 8.8604 19.1778 7.74378 19.1778C6.62716 19.1778 5.7185 18.2693 5.7185 17.1527C5.7185 16.0358 6.62716 15.1274 7.74378 15.1274C8.8604 15.1275 9.7689 16.0358 9.7689 17.1527Z" fill="#686868"/>
    <path d="M19.4561 7.40845C19.2099 9.71445 18.2758 11.8146 16.8606 13.4984H5.86978C4.45426 11.8146 3.52018 9.71445 3.27414 7.40845H19.4561Z" fill="#686868"/>
    <path d="M12.4494 6.59626C12.0029 6.59626 11.8202 6.27974 12.0435 5.89313L15.4459 0C17.7522 1.33465 19.3386 3.77496 19.4781 6.59635L12.4494 6.59626Z" fill="#686868"/>
    <path d="M0.846662 6.27421H5.71858V6.924H0.846662C0.667934 6.924 0.521851 6.77775 0.521851 6.59927C0.521851 6.42054 0.667934 6.27421 0.846662 6.27421Z" fill="#686868"/>
</svg>
