<svg width="20" height="20" viewBox="0 0 20 20" fill="none" xmlns="http://www.w3.org/2000/svg">
<path d="M0.5 16L0.499999 4L17 4C18.6569 4 20 5.34315 20 7L20 13C20 14.6569 18.6569 16 17 16L0.5 16Z" fill="white"/>
<path d="M0.5 15L0.5 5L17 5C18.1046 5 19 5.89543 19 7L19 13C19 14.1046 18.1046 15 17 15L0.5 15Z" fill="#EB0000"/>
<path d="M0.5 14L0.5 6L16 6C16.5523 6 17 6.44772 17 7L17 13C17 13.5523 16.5523 14 16 14L0.5 14Z" fill="#151515"/>
<line x1="0.25" y1="5" x2="0.25" y2="15" stroke="#686868" stroke-width="0.5"/>
</svg>
