<svg width="20" height="20" viewBox="0 0 20 20" fill="none" xmlns="http://www.w3.org/2000/svg">
<path d="M16 19.5L4 19.5L4 3C4 1.34315 5.34315 9.31652e-07 7 7.86805e-07L13 2.62268e-07C14.6569 1.17422e-07 16 1.34315 16 3L16 19.5Z" fill="white"/>
<path d="M15 19.5L5 19.5L5 3C5 1.89543 5.89543 1 7 1L13 1C14.1046 1 15 1.89543 15 3L15 19.5Z" fill="#EB0000"/>
<path d="M14 19.5L6 19.5L6 4C6 3.44772 6.44771 3 7 3L13 3C13.5523 3 14 3.44772 14 4L14 19.5Z" fill="#151515"/>
<line x1="5" y1="19.75" x2="15" y2="19.75" stroke="#686868" stroke-width="0.5"/>
</svg>
