<svg width="20" height="20" viewBox="0 0 20 20" fill="none" xmlns="http://www.w3.org/2000/svg">
<path d="M19.5 4L19.5 16L3 16C1.34315 16 1.39748e-06 14.6569 1.18021e-06 13L3.93402e-07 7C1.76132e-07 5.34315 1.34315 4 3 4L19.5 4Z" fill="white"/>
<path d="M19.5 5L19.5 15L3 15C1.89543 15 1 14.1046 1 13L1 7C1 5.89543 1.89543 5 3 5L19.5 5Z" fill="#EB0000"/>
<path d="M19.5 6L19.5 14L4 14C3.44772 14 3 13.5523 3 13L3 7C3 6.44772 3.44772 6 4 6L19.5 6Z" fill="#151515"/>
<line x1="19.75" y1="15" x2="19.75" y2="5" stroke="#686868" stroke-width="0.5"/>
</svg>
