<svg width="20" height="20" viewBox="0 0 20 20" fill="none" xmlns="http://www.w3.org/2000/svg">
<path d="M4 0.5L16 0.499998L16 17C16 18.6569 14.6569 20 13 20L7 20C5.34315 20 4 18.6569 4 17L4 0.5Z" fill="white"/>
<path d="M5 0.5L15 0.499998L15 17C15 18.1046 14.1046 19 13 19L7 19C5.89543 19 5 18.1046 5 17L5 0.5Z" fill="#EB0000"/>
<path d="M6 0.5L14 0.499999L14 16C14 16.5523 13.5523 17 13 17L7 17C6.44772 17 6 16.5523 6 16L6 0.5Z" fill="#151515"/>
<line x1="15" y1="0.25" x2="5" y2="0.250001" stroke="#686868" stroke-width="0.5"/>
</svg>
