<svg width="20" height="20" viewBox="0 0 20 20" fill="none" xmlns="http://www.w3.org/2000/svg">
<path d="M16 4L16 9C16 12.866 12.866 16 9 16L0.499999 16L0.5 4L16 4Z" fill="white"/>
<path d="M16 0.5L16 4L4 4L4 0.499999L16 0.5Z" fill="white"/>
<path d="M15 5L15 9C15 12.3137 12.3137 15 9 15L0.5 15L0.5 5L15 5Z" fill="#EB0000"/>
<path d="M14 6L14 9C14 11.7614 11.7614 14 9 14L0.5 14L0.5 6L14 6Z" fill="#151515"/>
<path d="M15 0.5L15 5L5 5L5 0.5L15 0.5Z" fill="#EB0000"/>
<path d="M14 0.5L14 6L6 6L6 0.5L14 0.5Z" fill="#151515"/>
<line x1="5" y1="0.25" x2="15" y2="0.25" stroke="#686868" stroke-width="0.5"/>
<line x1="0.25" y1="5" x2="0.25" y2="15" stroke="#686868" stroke-width="0.5"/>
</svg>
