<svg width="20" height="20" viewBox="0 0 20 20" fill="none" xmlns="http://www.w3.org/2000/svg">
<path d="M16 16L11 16C7.13401 16 4 12.866 4 9.00003L4 0.50003L16 0.500031L16 16Z" fill="white"/>
<path d="M19.5 16L16 16L16 4L19.5 4L19.5 16Z" fill="white"/>
<path d="M15 15L11 15C7.68629 15 5 12.3137 5 9.00003L5 0.50003L15 0.500031L15 15Z" fill="#EB0000"/>
<path d="M13.9999 14L10.9999 14C8.23845 14 5.99988 11.7614 5.99988 9L5.99988 0.5L13.9999 0.5L13.9999 14Z" fill="#151515"/>
<path d="M19.4999 15L14.9999 15L14.9999 5L19.4999 5L19.4999 15Z" fill="#EB0000"/>
<path d="M19.5 14L14 14L14 6L19.5 6L19.5 14Z" fill="#151515"/>
<line x1="19.75" y1="5" x2="19.75" y2="15" stroke="#686868" stroke-width="0.5"/>
<line x1="15" y1="0.25" x2="5" y2="0.25" stroke="#686868" stroke-width="0.5"/>
</svg>
